<svg width="405" height="139" viewBox="0 0 405 139" fill="none" xmlns="http://www.w3.org/2000/svg">
    <g opacity="0.3">
        <path fill-rule="evenodd" clip-rule="evenodd" d="M371.58 138.6H32.4899L0 106.11V32.49L0.119971 32.37L32.4899 0H371.58L404.07 32.49V106.11L403.95 106.23L371.58 138.6ZM32.82 137.73H371.22L403.17 105.75V32.88L371.22 0.9H32.82L0.869971 32.88V105.75L32.82 137.73Z" fill="#08595E"/>
    </g>
    <path fill-rule="evenodd" clip-rule="evenodd" d="M367.379 133.17H36.4194L36.2694 133.05L5.60938 102.36V35.6401L5.72935 35.5201L36.4194 4.83008H367.379L367.499 4.95008L398.189 35.6401V102.36L398.069 102.48L367.379 133.17ZM36.7494 132.33H367.049L397.349 102V36.0001L367.049 5.67007H36.7494L6.41936 36.0001V102L36.7494 132.33Z" fill="#08595E"/>
    <path d="M61.4707 5.25L66.8707 10.65H171.481L176.761 5.34L61.4707 5.25Z" fill="#08595E"/>
    <path d="M230.131 5.25L235.531 10.65H340.141L345.421 5.34L230.131 5.25Z" fill="#08595E"/>
    <path d="M262.921 132.751L257.521 127.351H152.911L147.631 132.661L262.921 132.751Z" fill="#08595E"/>
    <g opacity="0.3">
        <path d="M125.52 133.08L113.37 120.93H61.9505L17.7305 76.7102V36.5702L17.8805 36.4502L49.3805 4.9502L49.9805 5.5502L18.6305 36.9302V76.3502L62.3105 120.03H113.73L126.151 132.45L125.52 133.08Z" fill="#08595E"/>
    </g>
    <g opacity="0.3">
        <path d="M281.22 133.08L280.59 132.45L293.01 120.03H344.43L388.11 76.3502V36.9302L356.76 5.5502L357.39 4.9502L389.01 36.5702V76.7102L388.89 76.8602L344.82 120.93H293.37L281.22 133.08Z" fill="#08595E"/>
    </g>
</svg>
