<svg width="151" height="151" viewBox="0 0 151 151" fill="none" xmlns="http://www.w3.org/2000/svg">
<mask id="path-1-inside-1_2084_13" fill="white">
<path d="M89.6157 1.70229H60.7871V1.42773H89.6157V1.70229Z"/>
</mask>
<path d="M89.6157 1.70229H60.7871V1.42773H89.6157V1.70229Z" fill="url(#paint0_linear_2084_13)"/>
<path d="M89.6157 1.70229V2.70229H90.6157V1.70229H89.6157ZM60.7871 1.70229H59.7871V2.70229H60.7871V1.70229ZM60.7871 1.42773V0.427734H59.7871V1.42773H60.7871ZM89.6157 1.42773H90.6157V0.427734H89.6157V1.42773ZM89.6157 1.70229V0.702292H60.7871V1.70229V2.70229H89.6157V1.70229ZM60.7871 1.70229H61.7871V1.42773H60.7871H59.7871V1.70229H60.7871ZM60.7871 1.42773V2.42773H89.6157V1.42773V0.427734H60.7871V1.42773ZM89.6157 1.42773H88.6157V1.70229H89.6157H90.6157V1.42773H89.6157Z" fill="#08595E" mask="url(#path-1-inside-1_2084_13)"/>
<mask id="path-3-inside-2_2084_13" fill="white">
<path d="M103.727 5.92983H46.7285V5.65527H103.727V5.92983Z"/>
</mask>
<path d="M103.727 5.92983H46.7285V5.65527H103.727V5.92983Z" fill="url(#paint1_linear_2084_13)"/>
<path d="M103.727 5.92983V6.92983H104.727V5.92983H103.727ZM46.7285 5.92983H45.7285V6.92983H46.7285V5.92983ZM46.7285 5.65527V4.65527H45.7285V5.65527H46.7285ZM103.727 5.65527H104.727V4.65527H103.727V5.65527ZM103.727 5.92983V4.92983H46.7285V5.92983V6.92983H103.727V5.92983ZM46.7285 5.92983H47.7285V5.65527H46.7285H45.7285V5.92983H46.7285ZM46.7285 5.65527V6.65527H103.727V5.65527V4.65527H46.7285V5.65527ZM103.727 5.65527H102.727V5.92983H103.727H104.727V5.65527H103.727Z" fill="#08595E" mask="url(#path-3-inside-2_2084_13)"/>
<mask id="path-5-inside-3_2084_13" fill="white">
<path d="M116.851 12.9044H33.6055V12.6299H116.851V12.9044Z"/>
</mask>
<path d="M116.851 12.9044H33.6055V12.6299H116.851V12.9044Z" fill="url(#paint2_linear_2084_13)"/>
<path d="M116.851 12.9044V13.9044H117.851V12.9044H116.851ZM33.6055 12.9044H32.6055V13.9044H33.6055V12.9044ZM33.6055 12.6299V11.6299H32.6055V12.6299H33.6055ZM116.851 12.6299H117.851V11.6299H116.851V12.6299ZM116.851 12.9044V11.9044H33.6055V12.9044V13.9044H116.851V12.9044ZM33.6055 12.9044H34.6055V12.6299H33.6055H32.6055V12.9044H33.6055ZM33.6055 12.6299V13.6299H116.851V12.6299V11.6299H33.6055V12.6299ZM116.851 12.6299H115.851V12.9044H116.851H117.851V12.6299H116.851Z" fill="#08595E" mask="url(#path-5-inside-3_2084_13)"/>
<mask id="path-7-inside-4_2084_13" fill="white">
<path d="M128.328 22.3488H22.1289V22.0742H128.328V22.3488Z"/>
</mask>
<path d="M128.328 22.3488H22.1289V22.0742H128.328V22.3488Z" fill="url(#paint3_linear_2084_13)"/>
<path d="M128.328 22.3488V23.3488H129.328V22.3488H128.328ZM22.1289 22.3488H21.1289V23.3488H22.1289V22.3488ZM22.1289 22.0742V21.0742H21.1289V22.0742H22.1289ZM128.328 22.0742H129.328V21.0742H128.328V22.0742ZM128.328 22.3488V21.3488H22.1289V22.3488V23.3488H128.328V22.3488ZM22.1289 22.3488H23.1289V22.0742H22.1289H21.1289V22.3488H22.1289ZM22.1289 22.0742V23.0742H128.328V22.0742V21.0742H22.1289V22.0742ZM128.328 22.0742H127.328V22.3488H128.328H129.328V22.0742H128.328Z" fill="#08595E" mask="url(#path-7-inside-4_2084_13)"/>
<mask id="path-9-inside-5_2084_13" fill="white">
<path d="M137.717 33.661H12.7383V33.4414H137.717V33.661Z"/>
</mask>
<path d="M137.717 33.661H12.7383V33.4414H137.717V33.661Z" fill="url(#paint4_linear_2084_13)"/>
<path d="M137.717 33.661V34.661H138.717V33.661H137.717ZM12.7383 33.661H11.7383V34.661H12.7383V33.661ZM12.7383 33.4414V32.4414H11.7383V33.4414H12.7383ZM137.717 33.4414H138.717V32.4414H137.717V33.4414ZM137.717 33.661V32.661H12.7383V33.661V34.661H137.717V33.661ZM12.7383 33.661H13.7383V33.4414H12.7383H11.7383V33.661H12.7383ZM12.7383 33.4414V34.4414H137.717V33.4414V32.4414H12.7383V33.4414ZM137.717 33.4414H136.717V33.661H137.717H138.717V33.4414H137.717Z" fill="#08595E" mask="url(#path-9-inside-5_2084_13)"/>
<mask id="path-11-inside-6_2084_13" fill="white">
<path d="M144.692 46.839H5.71094V46.5645H144.692V46.839Z"/>
</mask>
<path d="M144.692 46.839H5.71094V46.5645H144.692V46.839Z" fill="url(#paint5_linear_2084_13)"/>
<path d="M144.692 46.839V47.839H145.692V46.839H144.692ZM5.71094 46.839H4.71094V47.839H5.71094V46.839ZM5.71094 46.5645V45.5645H4.71094V46.5645H5.71094ZM144.692 46.5645H145.692V45.5645H144.692V46.5645ZM144.692 46.839V45.839H5.71094V46.839V47.839H144.692V46.839ZM5.71094 46.839H6.71094V46.5645H5.71094H4.71094V46.839H5.71094ZM5.71094 46.5645V47.5645H144.692V46.5645V45.5645H5.71094V46.5645ZM144.692 46.5645H143.692V46.839H144.692H145.692V46.5645H144.692Z" fill="#08595E" mask="url(#path-11-inside-6_2084_13)"/>
<mask id="path-13-inside-7_2084_13" fill="white">
<path d="M148.975 60.9513H1.48242V60.6768H148.975V60.9513Z"/>
</mask>
<path d="M148.975 60.9513H1.48242V60.6768H148.975V60.9513Z" fill="url(#paint6_linear_2084_13)"/>
<path d="M148.975 60.9513V61.9513H149.975V60.9513H148.975ZM1.48242 60.9513H0.482422V61.9513H1.48242V60.9513ZM1.48242 60.6768V59.6768H0.482422V60.6768H1.48242ZM148.975 60.6768H149.975V59.6768H148.975V60.6768ZM148.975 60.9513V59.9513H1.48242V60.9513V61.9513H148.975V60.9513ZM1.48242 60.9513H2.48242V60.6768H1.48242H0.482422V60.9513H1.48242ZM1.48242 60.6768V61.6768H148.975V60.6768V59.6768H1.48242V60.6768ZM148.975 60.6768H147.975V60.9513H148.975H149.975V60.6768H148.975Z" fill="#08595E" mask="url(#path-13-inside-7_2084_13)"/>
<mask id="path-15-inside-8_2084_13" fill="white">
<path d="M150.402 75.5031H0.0546875V75.2285H150.402V75.5031Z"/>
</mask>
<path d="M150.402 75.5031H0.0546875V75.2285H150.402V75.5031Z" fill="url(#paint7_linear_2084_13)"/>
<path d="M150.402 75.5031V76.5031H151.402V75.5031H150.402ZM0.0546875 75.5031H-0.945312V76.5031H0.0546875V75.5031ZM0.0546875 75.2285V74.2285H-0.945312V75.2285H0.0546875ZM150.402 75.2285H151.402V74.2285H150.402V75.2285ZM150.402 75.5031V74.5031H0.0546875V75.5031V76.5031H150.402V75.5031ZM0.0546875 75.5031H1.05469V75.2285H0.0546875H-0.945312V75.5031H0.0546875ZM0.0546875 75.2285V76.2285H150.402V75.2285V74.2285H0.0546875V75.2285ZM150.402 75.2285H149.402V75.5031H150.402H151.402V75.2285H150.402Z" fill="#08595E" mask="url(#path-15-inside-8_2084_13)"/>
<mask id="path-17-inside-9_2084_13" fill="white">
<path d="M89.6157 149.249H60.7871V148.975H89.6157V149.249Z"/>
</mask>
<path d="M89.6157 149.249H60.7871V148.975H89.6157V149.249Z" fill="url(#paint8_linear_2084_13)"/>
<path d="M89.6157 149.249V150.249H90.6157V149.249H89.6157ZM60.7871 149.249H59.7871V150.249H60.7871V149.249ZM60.7871 148.975V147.975H59.7871V148.975H60.7871ZM89.6157 148.975H90.6157V147.975H89.6157V148.975ZM89.6157 149.249V148.249H60.7871V149.249V150.249H89.6157V149.249ZM60.7871 149.249H61.7871V148.975H60.7871H59.7871V149.249H60.7871ZM60.7871 148.975V149.975H89.6157V148.975V147.975H60.7871V148.975ZM89.6157 148.975H88.6157V149.249H89.6157H90.6157V148.975H89.6157Z" fill="#08595E" mask="url(#path-17-inside-9_2084_13)"/>
<mask id="path-19-inside-10_2084_13" fill="white">
<path d="M103.727 145.076H46.7285V144.802H103.727V145.076Z"/>
</mask>
<path d="M103.727 145.076H46.7285V144.802H103.727V145.076Z" fill="url(#paint9_linear_2084_13)"/>
<path d="M103.727 145.076V146.076H104.727V145.076H103.727ZM46.7285 145.076H45.7285V146.076H46.7285V145.076ZM46.7285 144.802V143.802H45.7285V144.802H46.7285ZM103.727 144.802H104.727V143.802H103.727V144.802ZM103.727 145.076V144.076H46.7285V145.076V146.076H103.727V145.076ZM46.7285 145.076H47.7285V144.802H46.7285H45.7285V145.076H46.7285ZM46.7285 144.802V145.802H103.727V144.802V143.802H46.7285V144.802ZM103.727 144.802H102.727V145.076H103.727H104.727V144.802H103.727Z" fill="#08595E" mask="url(#path-19-inside-10_2084_13)"/>
<mask id="path-21-inside-11_2084_13" fill="white">
<path d="M116.851 138.103H33.6055V137.828H116.851V138.103Z"/>
</mask>
<path d="M116.851 138.103H33.6055V137.828H116.851V138.103Z" fill="url(#paint10_linear_2084_13)"/>
<path d="M116.851 138.103V139.103H117.851V138.103H116.851ZM33.6055 138.103H32.6055V139.103H33.6055V138.103ZM33.6055 137.828V136.828H32.6055V137.828H33.6055ZM116.851 137.828H117.851V136.828H116.851V137.828ZM116.851 138.103V137.103H33.6055V138.103V139.103H116.851V138.103ZM33.6055 138.103H34.6055V137.828H33.6055H32.6055V138.103H33.6055ZM33.6055 137.828V138.828H116.851V137.828V136.828H33.6055V137.828ZM116.851 137.828H115.851V138.103H116.851H117.851V137.828H116.851Z" fill="#08595E" mask="url(#path-21-inside-11_2084_13)"/>
<mask id="path-23-inside-12_2084_13" fill="white">
<path d="M128.328 128.603H22.1289V128.328H128.328V128.603Z"/>
</mask>
<path d="M128.328 128.603H22.1289V128.328H128.328V128.603Z" fill="url(#paint11_linear_2084_13)"/>
<path d="M128.328 128.603V129.603H129.328V128.603H128.328ZM22.1289 128.603H21.1289V129.603H22.1289V128.603ZM22.1289 128.328V127.328H21.1289V128.328H22.1289ZM128.328 128.328H129.328V127.328H128.328V128.328ZM128.328 128.603V127.603H22.1289V128.603V129.603H128.328V128.603ZM22.1289 128.603H23.1289V128.328H22.1289H21.1289V128.603H22.1289ZM22.1289 128.328V129.328H128.328V128.328V127.328H22.1289V128.328ZM128.328 128.328H127.328V128.603H128.328H129.328V128.328H128.328Z" fill="#08595E" mask="url(#path-23-inside-12_2084_13)"/>
<mask id="path-25-inside-13_2084_13" fill="white">
<path d="M137.717 117.291H12.7383V117.017H137.717V117.291Z"/>
</mask>
<path d="M137.717 117.291H12.7383V117.017H137.717V117.291Z" fill="url(#paint12_linear_2084_13)"/>
<path d="M137.717 117.291V118.291H138.717V117.291H137.717ZM12.7383 117.291H11.7383V118.291H12.7383V117.291ZM12.7383 117.017V116.017H11.7383V117.017H12.7383ZM137.717 117.017H138.717V116.017H137.717V117.017ZM137.717 117.291V116.291H12.7383V117.291V118.291H137.717V117.291ZM12.7383 117.291H13.7383V117.017H12.7383H11.7383V117.291H12.7383ZM12.7383 117.017V118.017H137.717V117.017V116.017H12.7383V117.017ZM137.717 117.017H136.717V117.291H137.717H138.717V117.017H137.717Z" fill="#08595E" mask="url(#path-25-inside-13_2084_13)"/>
<mask id="path-27-inside-14_2084_13" fill="white">
<path d="M144.692 104.167H5.71094V103.893H144.692V104.167Z"/>
</mask>
<path d="M144.692 104.167H5.71094V103.893H144.692V104.167Z" fill="url(#paint13_linear_2084_13)"/>
<path d="M144.692 104.167V105.167H145.692V104.167H144.692ZM5.71094 104.167H4.71094V105.167H5.71094V104.167ZM5.71094 103.893V102.893H4.71094V103.893H5.71094ZM144.692 103.893H145.692V102.893H144.692V103.893ZM144.692 104.167V103.167H5.71094V104.167V105.167H144.692V104.167ZM5.71094 104.167H6.71094V103.893H5.71094H4.71094V104.167H5.71094ZM5.71094 103.893V104.893H144.692V103.893V102.893H5.71094V103.893ZM144.692 103.893H143.692V104.167H144.692H145.692V103.893H144.692Z" fill="#08595E" mask="url(#path-27-inside-14_2084_13)"/>
<mask id="path-29-inside-15_2084_13" fill="white">
<path d="M148.975 90.0548H1.48242V89.7803H148.975V90.0548Z"/>
</mask>
<path d="M148.975 90.0548H1.48242V89.7803H148.975V90.0548Z" fill="url(#paint14_linear_2084_13)"/>
<path d="M148.975 90.0548V91.0548H149.975V90.0548H148.975ZM1.48242 90.0548H0.482422V91.0548H1.48242V90.0548ZM1.48242 89.7803V88.7803H0.482422V89.7803H1.48242ZM148.975 89.7803H149.975V88.7803H148.975V89.7803ZM148.975 90.0548V89.0548H1.48242V90.0548V91.0548H148.975V90.0548ZM1.48242 90.0548H2.48242V89.7803H1.48242H0.482422V90.0548H1.48242ZM1.48242 89.7803V90.7803H148.975V89.7803V88.7803H1.48242V89.7803ZM148.975 89.7803H147.975V90.0548H148.975H149.975V89.7803H148.975Z" fill="#08595E" mask="url(#path-29-inside-15_2084_13)"/>
<mask id="path-31-inside-16_2084_13" fill="white">
<path fill-rule="evenodd" clip-rule="evenodd" d="M75.2288 150.567C65.0702 150.567 55.241 148.59 45.961 144.691C37.0104 140.903 28.9384 135.466 22.0195 128.547C15.1007 121.629 9.71937 113.612 5.93047 104.661C1.97684 95.3809 0 85.4968 0 75.3382C0 65.1795 1.97684 55.3504 5.93047 46.0703C9.71937 37.1197 15.1007 29.0477 22.0195 22.1838C28.9384 15.265 37.0104 9.82872 45.961 6.03982C55.241 2.1411 65.0702 0.109375 75.2288 0.109375C85.3874 0.109375 95.2166 2.1411 104.497 6.03982C113.447 9.82872 121.519 15.265 128.438 22.1838C135.302 29.0477 140.738 37.1197 144.527 46.0703C148.481 55.3504 150.458 65.1795 150.458 75.3382C150.458 85.4968 148.481 95.3809 144.527 104.661C140.738 113.612 135.302 121.629 128.438 128.547C121.519 135.466 113.447 140.903 104.497 144.691C95.2166 148.59 85.3874 150.567 75.2288 150.567ZM75.2288 0.274107C33.8255 0.274107 0.109863 33.9349 0.109863 75.3382C0.109863 116.741 33.8255 150.457 75.2288 150.457C116.632 150.457 150.293 116.741 150.293 75.3382C150.293 33.9349 116.632 0.274107 75.2288 0.274107Z"/>
</mask>
<path fill-rule="evenodd" clip-rule="evenodd" d="M75.2288 150.567C65.0702 150.567 55.241 148.59 45.961 144.691C37.0104 140.903 28.9384 135.466 22.0195 128.547C15.1007 121.629 9.71937 113.612 5.93047 104.661C1.97684 95.3809 0 85.4968 0 75.3382C0 65.1795 1.97684 55.3504 5.93047 46.0703C9.71937 37.1197 15.1007 29.0477 22.0195 22.1838C28.9384 15.265 37.0104 9.82872 45.961 6.03982C55.241 2.1411 65.0702 0.109375 75.2288 0.109375C85.3874 0.109375 95.2166 2.1411 104.497 6.03982C113.447 9.82872 121.519 15.265 128.438 22.1838C135.302 29.0477 140.738 37.1197 144.527 46.0703C148.481 55.3504 150.458 65.1795 150.458 75.3382C150.458 85.4968 148.481 95.3809 144.527 104.661C140.738 113.612 135.302 121.629 128.438 128.547C121.519 135.466 113.447 140.903 104.497 144.691C95.2166 148.59 85.3874 150.567 75.2288 150.567ZM75.2288 0.274107C33.8255 0.274107 0.109863 33.9349 0.109863 75.3382C0.109863 116.741 33.8255 150.457 75.2288 150.457C116.632 150.457 150.293 116.741 150.293 75.3382C150.293 33.9349 116.632 0.274107 75.2288 0.274107Z" fill="url(#paint15_linear_2084_13)"/>
<path d="M45.961 144.691L45.5712 145.612L45.5737 145.613L45.961 144.691ZM5.93047 104.661L6.85136 104.271L6.85046 104.269L5.93047 104.661ZM5.93047 46.0703L6.85046 46.4623L6.85136 46.4601L5.93047 46.0703ZM22.0195 22.1838L22.7238 22.8937L22.7266 22.8909L22.0195 22.1838ZM45.961 6.03982L45.5737 5.11788L45.5712 5.11893L45.961 6.03982ZM104.497 6.03982L104.886 5.11893L104.884 5.11788L104.497 6.03982ZM144.527 46.0703L143.606 46.4601L143.607 46.4623L144.527 46.0703ZM144.527 104.661L143.607 104.269L143.606 104.271L144.527 104.661ZM128.438 128.547L129.145 129.255L129.148 129.252L128.438 128.547ZM104.497 144.691L104.884 145.613L104.886 145.612L104.497 144.691ZM75.2288 150.567V149.567C65.2023 149.567 55.5049 147.616 46.3483 143.769L45.961 144.691L45.5737 145.613C54.9772 149.564 64.938 151.567 75.2288 151.567V150.567ZM45.961 144.691L46.3508 143.771C37.519 140.032 29.5547 134.668 22.7266 127.84L22.0195 128.547L21.3124 129.255C28.3221 136.264 36.5018 141.773 45.5712 145.612L45.961 144.691ZM22.0195 128.547L22.7266 127.84C15.8993 121.013 10.5904 113.104 6.85136 104.271L5.93047 104.661L5.00958 105.051C8.84836 114.119 14.302 122.244 21.3124 129.255L22.0195 128.547ZM5.93047 104.661L6.85046 104.269C2.95088 95.1158 1 85.3653 1 75.3382H0H-1C-1 85.6283 1.0028 95.646 5.01048 105.053L5.93047 104.661ZM0 75.3382H1C1 65.3118 2.95059 55.6161 6.85046 46.4623L5.93047 46.0703L5.01048 45.6784C1.00309 55.0846 -1 65.0473 -1 75.3382H0ZM5.93047 46.0703L6.85136 46.4601C10.5913 37.6251 15.9005 29.6629 22.7238 22.8937L22.0195 22.1838L21.3152 21.4739C14.3008 28.4326 8.84739 36.6144 5.00958 45.6805L5.93047 46.0703ZM22.0195 22.1838L22.7266 22.8909C29.5547 16.0629 37.519 10.6993 46.3508 6.96071L45.961 6.03982L45.5712 5.11893C36.5018 8.95812 28.3221 14.467 21.3124 21.4767L22.0195 22.1838ZM45.961 6.03982L46.3483 6.96177C55.5083 3.11349 65.2059 1.10938 75.2288 1.10938V0.109375V-0.890625C64.9344 -0.890625 54.9738 1.16872 45.5737 5.11788L45.961 6.03982ZM75.2288 0.109375V1.10938C85.2517 1.10938 94.9494 3.11349 104.109 6.96177L104.497 6.03982L104.884 5.11788C95.4839 1.16872 85.5232 -0.890625 75.2288 -0.890625V0.109375ZM104.497 6.03982L104.107 6.96071C112.939 10.6993 120.903 16.0629 127.731 22.8909L128.438 22.1838L129.145 21.4767C122.136 14.467 113.956 8.95812 104.886 5.11893L104.497 6.03982ZM128.438 22.1838L127.731 22.8909C134.504 29.6637 139.867 37.6279 143.606 46.4601L144.527 46.0703L145.448 45.6805C141.609 36.6116 136.1 28.4318 129.145 21.4767L128.438 22.1838ZM144.527 46.0703L143.607 46.4623C147.507 55.6161 149.458 65.3117 149.458 75.3382H150.458H151.458C151.458 65.0473 149.455 55.0846 145.447 45.6784L144.527 46.0703ZM150.458 75.3382H149.458C149.458 85.3653 147.507 95.1158 143.607 104.269L144.527 104.661L145.447 105.053C149.455 95.646 151.458 85.6283 151.458 75.3382H150.458ZM144.527 104.661L143.606 104.271C139.868 113.101 134.505 121.012 127.728 127.843L128.438 128.547L129.148 129.252C136.099 122.245 141.608 114.122 145.448 105.051L144.527 104.661ZM128.438 128.547L127.731 127.84C120.903 134.668 112.939 140.032 104.107 143.771L104.497 144.691L104.886 145.612C113.956 141.773 122.136 136.264 129.145 129.255L128.438 128.547ZM104.497 144.691L104.109 143.769C94.9528 147.616 85.2553 149.567 75.2288 149.567V150.567V151.567C85.5195 151.567 95.4805 149.564 104.884 145.613L104.497 144.691ZM75.2288 0.274107V-0.725893C33.2742 -0.725893 -0.890137 33.3816 -0.890137 75.3382H0.109863H1.10986C1.10986 34.4881 34.3768 1.27411 75.2288 1.27411V0.274107ZM0.109863 75.3382H-0.890137C-0.890137 117.294 33.2732 151.457 75.2288 151.457V150.457V149.457C34.3778 149.457 1.10986 116.189 1.10986 75.3382H0.109863ZM75.2288 150.457V151.457C117.185 151.457 151.293 117.293 151.293 75.3382H150.293H149.293C149.293 116.19 116.079 149.457 75.2288 149.457V150.457ZM150.293 75.3382H151.293C151.293 33.3826 117.184 -0.725893 75.2288 -0.725893V0.274107V1.27411C116.08 1.27411 149.293 34.4872 149.293 75.3382H150.293Z" fill="#08595E" mask="url(#path-31-inside-16_2084_13)"/>
<mask id="path-33-inside-17_2084_13" fill="white">
<path fill-rule="evenodd" clip-rule="evenodd" d="M75.2279 150.567C65.2889 150.567 55.6795 148.59 46.5641 144.691C37.8332 140.903 29.9809 135.466 23.2267 128.547C16.4726 121.629 11.1462 113.612 7.46709 104.661C3.62329 95.3809 1.64648 85.4968 1.64648 75.3382C1.64648 65.1795 3.62329 55.3504 7.46709 46.0703C11.1462 37.1197 16.4726 29.0477 23.2267 22.1838C29.9809 15.265 37.8332 9.82872 46.5641 6.03982C55.6795 2.1411 65.2889 0.109375 75.2279 0.109375C85.1669 0.109375 94.7764 2.1411 103.837 6.03982C112.623 9.82872 120.475 15.265 127.229 22.1838C133.983 29.0477 139.31 37.1197 142.989 46.0703C146.833 55.3504 148.809 65.1795 148.809 75.3382C148.809 85.4968 146.833 95.3809 142.989 104.661C139.31 113.612 133.983 121.629 127.229 128.547C120.475 135.466 112.623 140.903 103.837 144.691C94.7764 148.59 85.1669 150.567 75.2279 150.567ZM75.2279 0.274107C34.7581 0.274107 1.81125 33.9349 1.81125 75.3382C1.81125 116.741 34.7581 150.457 75.2279 150.457C115.698 150.457 148.645 116.741 148.645 75.3382C148.645 33.9349 115.698 0.274107 75.2279 0.274107Z"/>
</mask>
<path fill-rule="evenodd" clip-rule="evenodd" d="M75.2279 150.567C65.2889 150.567 55.6795 148.59 46.5641 144.691C37.8332 140.903 29.9809 135.466 23.2267 128.547C16.4726 121.629 11.1462 113.612 7.46709 104.661C3.62329 95.3809 1.64648 85.4968 1.64648 75.3382C1.64648 65.1795 3.62329 55.3504 7.46709 46.0703C11.1462 37.1197 16.4726 29.0477 23.2267 22.1838C29.9809 15.265 37.8332 9.82872 46.5641 6.03982C55.6795 2.1411 65.2889 0.109375 75.2279 0.109375C85.1669 0.109375 94.7764 2.1411 103.837 6.03982C112.623 9.82872 120.475 15.265 127.229 22.1838C133.983 29.0477 139.31 37.1197 142.989 46.0703C146.833 55.3504 148.809 65.1795 148.809 75.3382C148.809 85.4968 146.833 95.3809 142.989 104.661C139.31 113.612 133.983 121.629 127.229 128.547C120.475 135.466 112.623 140.903 103.837 144.691C94.7764 148.59 85.1669 150.567 75.2279 150.567ZM75.2279 0.274107C34.7581 0.274107 1.81125 33.9349 1.81125 75.3382C1.81125 116.741 34.7581 150.457 75.2279 150.457C115.698 150.457 148.645 116.741 148.645 75.3382C148.645 33.9349 115.698 0.274107 75.2279 0.274107Z" fill="url(#paint16_linear_2084_13)"/>
<path d="M46.5641 144.691L46.166 145.609L46.1709 145.611L46.5641 144.691ZM7.46709 104.661L8.39201 104.281L8.39098 104.278L7.46709 104.661ZM7.46709 46.0703L8.39098 46.453L8.39201 46.4505L7.46709 46.0703ZM23.2267 22.1838L23.9395 22.8852L23.9423 22.8823L23.2267 22.1838ZM46.5641 6.03982L46.1709 5.12038L46.166 5.12248L46.5641 6.03982ZM103.837 6.03982L104.233 5.12157L104.232 5.12125L103.837 6.03982ZM127.229 22.1838L126.514 22.8824L126.516 22.8852L127.229 22.1838ZM142.989 46.0703L142.064 46.4505L142.065 46.453L142.989 46.0703ZM142.989 104.661L142.065 104.278L142.064 104.281L142.989 104.661ZM103.837 144.691L104.232 145.61L104.233 145.61L103.837 144.691ZM75.2279 150.567V149.567C65.4245 149.567 55.9488 147.618 46.9574 143.772L46.5641 144.691L46.1709 145.611C55.4102 149.563 65.1534 151.567 75.2279 151.567V150.567ZM46.5641 144.691L46.9622 143.774C38.3526 140.038 30.6075 134.677 23.9423 127.849L23.2267 128.547L22.5112 129.246C29.3542 136.256 37.3138 141.767 46.166 145.609L46.5641 144.691ZM23.2267 128.547L23.9423 127.849C17.2755 121.019 12.0211 113.11 8.39201 104.281L7.46709 104.661L6.54218 105.041C10.2712 114.113 15.6698 122.238 22.5112 129.246L23.2267 128.547ZM7.46709 104.661L8.39098 104.278C4.59744 95.1196 2.64648 85.3655 2.64648 75.3382H1.64648H0.646484C0.646484 85.6281 2.64914 95.6422 6.54321 105.044L7.46709 104.661ZM1.64648 75.3382H2.64648C2.64648 65.3115 4.59716 55.6124 8.39098 46.453L7.46709 46.0703L6.54321 45.6876C2.64942 55.0884 0.646484 65.0475 0.646484 75.3382H1.64648ZM7.46709 46.0703L8.39201 46.4505C12.0221 37.6192 17.2767 29.6564 23.9395 22.8852L23.2267 22.1838L22.514 21.4824C15.6686 28.4391 10.2703 36.6203 6.54218 45.6901L7.46709 46.0703ZM23.2267 22.1838L23.9423 22.8823C30.6075 16.0545 38.3526 10.6934 46.9622 6.95717L46.5641 6.03982L46.166 5.12248C37.3138 8.96401 29.3542 14.4754 22.5112 21.4853L23.2267 22.1838ZM46.5641 6.03982L46.9574 6.95925C55.9522 3.11206 65.4282 1.10938 75.2279 1.10938V0.109375V-0.890625C65.1497 -0.890625 55.4067 1.17014 46.1709 5.12039L46.5641 6.03982ZM75.2279 0.109375V1.10938C85.028 1.10938 94.5032 3.1122 103.442 6.95839L103.837 6.03982L104.232 5.12125C95.0496 1.17001 85.3058 -0.890625 75.2279 -0.890625V0.109375ZM103.837 6.03982L103.441 6.95807C112.104 10.6941 119.849 16.0548 126.514 22.8823L127.229 22.1838L127.945 21.4853C121.102 14.4751 113.141 8.9633 104.233 5.12157L103.837 6.03982ZM127.229 22.1838L126.516 22.8852C133.179 29.6564 138.434 37.6192 142.064 46.4505L142.989 46.0703L143.914 45.6901C140.186 36.6203 134.787 28.4391 127.942 21.4824L127.229 22.1838ZM142.989 46.0703L142.065 46.453C145.859 55.6124 147.809 65.3115 147.809 75.3382H148.809H149.809C149.809 65.0475 147.806 55.0884 143.913 45.6876L142.989 46.0703ZM148.809 75.3382H147.809C147.809 85.3655 145.858 95.1196 142.065 104.278L142.989 104.661L143.913 105.044C147.807 95.6422 149.809 85.6281 149.809 75.3382H148.809ZM142.989 104.661L142.064 104.281C138.435 113.11 133.18 121.019 126.514 127.849L127.229 128.547L127.945 129.246C134.786 122.238 140.185 114.113 143.914 105.041L142.989 104.661ZM127.229 128.547L126.514 127.849C119.849 134.676 112.104 140.037 103.441 143.773L103.837 144.691L104.233 145.61C113.141 141.768 121.102 136.256 127.945 129.246L127.229 128.547ZM103.837 144.691L103.442 143.773C94.5067 147.618 85.0317 149.567 75.2279 149.567V150.567V151.567C85.3021 151.567 95.0462 149.563 104.232 145.61L103.837 144.691ZM75.2279 0.274107V-0.725893C34.1853 -0.725893 0.811246 33.4034 0.811246 75.3382H1.81125H2.81125C2.81125 34.4663 35.331 1.27411 75.2279 1.27411V0.274107ZM1.81125 75.3382H0.811246C0.811246 117.272 34.1843 151.457 75.2279 151.457V150.457V149.457C35.332 149.457 2.81125 116.211 2.81125 75.3382H1.81125ZM75.2279 150.457V151.457C116.272 151.457 149.645 117.272 149.645 75.3382H148.645H147.645C147.645 116.211 115.124 149.457 75.2279 149.457V150.457ZM148.645 75.3382H149.645C149.645 33.4034 116.271 -0.725893 75.2279 -0.725893V0.274107V1.27411C115.125 1.27411 147.645 34.4663 147.645 75.3382H148.645Z" fill="#08595E" mask="url(#path-33-inside-17_2084_13)"/>
<mask id="path-35-inside-18_2084_13" fill="white">
<path fill-rule="evenodd" clip-rule="evenodd" d="M75.2277 150.567C65.8378 150.567 56.6676 148.59 48.1014 144.691C39.8097 140.903 32.3418 135.466 25.9172 128.547C19.5474 121.629 14.4955 113.612 11.0361 104.661C7.357 95.3809 5.54492 85.4968 5.54492 75.3382C5.54492 65.1795 7.357 55.3504 11.0361 46.0703C14.4955 37.1197 19.5474 29.0477 25.9172 22.1838C32.3418 15.265 39.8097 9.82872 48.1014 6.03982C56.6676 2.1411 65.8378 0.109375 75.2277 0.109375C84.6175 0.109375 93.7329 2.1411 102.354 6.03982C110.646 9.82872 118.114 15.265 124.483 22.1838C130.908 29.0477 135.905 37.1197 139.419 46.0703C143.098 55.3504 144.91 65.1795 144.91 75.3382C144.91 85.4968 143.098 95.3809 139.419 104.661C135.905 113.612 130.908 121.629 124.483 128.547C118.114 135.466 110.646 140.903 102.354 144.691C93.7329 148.59 84.6175 150.567 75.2277 150.567ZM75.2277 0.274107C36.8445 0.274107 5.65479 33.9349 5.65479 75.3382C5.65479 116.741 36.8445 150.457 75.2277 150.457C113.556 150.457 144.801 116.741 144.801 75.3382C144.801 33.9349 113.556 0.274107 75.2277 0.274107Z"/>
</mask>
<path fill-rule="evenodd" clip-rule="evenodd" d="M75.2277 150.567C65.8378 150.567 56.6676 148.59 48.1014 144.691C39.8097 140.903 32.3418 135.466 25.9172 128.547C19.5474 121.629 14.4955 113.612 11.0361 104.661C7.357 95.3809 5.54492 85.4968 5.54492 75.3382C5.54492 65.1795 7.357 55.3504 11.0361 46.0703C14.4955 37.1197 19.5474 29.0477 25.9172 22.1838C32.3418 15.265 39.8097 9.82872 48.1014 6.03982C56.6676 2.1411 65.8378 0.109375 75.2277 0.109375C84.6175 0.109375 93.7329 2.1411 102.354 6.03982C110.646 9.82872 118.114 15.265 124.483 22.1838C130.908 29.0477 135.905 37.1197 139.419 46.0703C143.098 55.3504 144.91 65.1795 144.91 75.3382C144.91 85.4968 143.098 95.3809 139.419 104.661C135.905 113.612 130.908 121.629 124.483 128.547C118.114 135.466 110.646 140.903 102.354 144.691C93.7329 148.59 84.6175 150.567 75.2277 150.567ZM75.2277 0.274107C36.8445 0.274107 5.65479 33.9349 5.65479 75.3382C5.65479 116.741 36.8445 150.457 75.2277 150.457C113.556 150.457 144.801 116.741 144.801 75.3382C144.801 33.9349 113.556 0.274107 75.2277 0.274107Z" fill="url(#paint17_linear_2084_13)"/>
<path d="M48.1014 144.691L47.6857 145.601L47.6871 145.602L48.1014 144.691ZM25.9172 128.547L25.1814 129.225L25.1844 129.228L25.9172 128.547ZM11.0361 104.661L11.9689 104.3L11.9657 104.292L11.0361 104.661ZM11.0361 46.0703L11.9657 46.4389L11.9688 46.4308L11.0361 46.0703ZM25.9172 22.1838L25.1844 21.5034L25.1842 21.5036L25.9172 22.1838ZM48.1014 6.03982L47.6871 5.12965L47.6857 5.13028L48.1014 6.03982ZM102.354 6.03982L102.77 5.13028L102.766 5.12866L102.354 6.03982ZM124.483 22.1838L123.748 22.8611L123.753 22.8672L124.483 22.1838ZM139.419 46.0703L138.488 46.4358L138.49 46.4389L139.419 46.0703ZM139.419 104.661L138.49 104.292L138.488 104.295L139.419 104.661ZM124.483 128.547L123.751 127.867L123.748 127.87L124.483 128.547ZM102.354 144.691L102.766 145.603L102.77 145.601L102.354 144.691ZM75.2277 150.567V149.567C65.98 149.567 56.9511 147.62 48.5156 143.781L48.1014 144.691L47.6871 145.602C56.384 149.56 65.6956 151.567 75.2277 151.567V150.567ZM48.1014 144.691L48.517 143.782C40.3495 140.05 32.9884 134.693 26.6499 127.867L25.9172 128.547L25.1844 129.228C31.6952 136.24 39.2699 141.755 47.6857 145.601L48.1014 144.691ZM25.9172 128.547L26.6529 127.87C20.3663 121.042 15.3821 113.131 11.9688 104.3L11.0361 104.661L10.1033 105.021C13.6089 114.092 18.7286 122.216 25.1815 129.225L25.9172 128.547ZM11.0361 104.661L11.9657 104.292C8.33537 95.1353 6.54492 85.3769 6.54492 75.3382H5.54492H4.54492C4.54492 85.6167 6.37863 95.6264 10.1065 105.029L11.0361 104.661ZM5.54492 75.3382H6.54492C6.54492 65.3002 8.33512 55.5965 11.9657 46.4389L11.0361 46.0703L10.1065 45.7018C6.37888 55.1042 4.54492 65.0589 4.54492 75.3382H5.54492ZM11.0361 46.0703L11.9688 46.4308C15.3829 37.5976 20.3674 29.6343 26.6502 22.864L25.9172 22.1838L25.1842 21.5036C18.7275 28.4612 13.6081 36.6419 10.1033 45.7098L11.0361 46.0703ZM25.9172 22.1838L26.6499 22.8643C32.9884 16.0383 40.3495 10.6815 48.517 6.94936L48.1014 6.03982L47.6857 5.13028C39.2699 8.97593 31.6952 14.4916 25.1844 21.5034L25.9172 22.1838ZM48.1014 6.03982L48.5156 6.94999C56.9547 3.10911 65.984 1.10938 75.2277 1.10938V0.109375V-0.890625C65.6916 -0.890625 56.3804 1.17309 47.6871 5.12966L48.1014 6.03982ZM75.2277 0.109375V1.10938C84.4702 1.10938 93.4454 3.1086 101.942 6.95098L102.354 6.03982L102.766 5.12866C94.0203 1.17361 84.7649 -0.890625 75.2277 -0.890625V0.109375ZM102.354 6.03982L101.938 6.94936C110.106 10.6816 117.466 16.0378 123.748 22.8611L124.483 22.1838L125.219 21.5065C118.761 14.4921 111.185 8.97583 102.77 5.13028L102.354 6.03982ZM124.483 22.1838L123.753 22.8672C130.086 29.6333 135.018 37.5958 138.488 46.4358L139.419 46.0703L140.35 45.7048C136.792 36.6437 131.73 28.4622 125.213 21.5005L124.483 22.1838ZM139.419 46.0703L138.49 46.4389C142.12 55.5965 143.91 65.3002 143.91 75.3382H144.91H145.91C145.91 65.0589 144.076 55.1042 140.349 45.7018L139.419 46.0703ZM144.91 75.3382H143.91C143.91 85.3769 142.12 95.1353 138.49 104.292L139.419 104.661L140.349 105.029C144.077 95.6264 145.91 85.6167 145.91 75.3382H144.91ZM139.419 104.661L138.488 104.295C135.018 113.133 130.087 121.043 123.751 127.867L124.483 128.547L125.216 129.228C131.729 122.215 136.791 114.09 140.35 105.026L139.419 104.661ZM124.483 128.547L123.748 127.87C117.466 134.693 110.106 140.05 101.938 143.782L102.354 144.691L102.77 145.601C111.185 141.755 118.761 136.239 125.219 129.225L124.483 128.547ZM102.354 144.691L101.942 143.78C93.449 147.621 84.4741 149.567 75.2277 149.567V150.567V151.567C84.761 151.567 94.0167 149.559 102.766 145.603L102.354 144.691ZM75.2277 0.274107V-0.725893C36.222 -0.725893 4.65479 33.4556 4.65479 75.3382H5.65479H6.65479C6.65479 34.4142 37.467 1.27411 75.2277 1.27411V0.274107ZM5.65479 75.3382H4.65479C4.65479 117.22 36.2211 151.457 75.2277 151.457V150.457V149.457C37.468 149.457 6.65479 116.263 6.65479 75.3382H5.65479ZM75.2277 150.457V151.457C114.179 151.457 145.801 117.22 145.801 75.3382H144.801H143.801C143.801 116.263 112.933 149.457 75.2277 149.457V150.457ZM144.801 75.3382H145.801C145.801 33.455 114.178 -0.725893 75.2277 -0.725893V0.274107V1.27411C112.934 1.27411 143.801 34.4147 143.801 75.3382H144.801Z" fill="#08595E" mask="url(#path-35-inside-18_2084_13)"/>
<mask id="path-37-inside-19_2084_13" fill="white">
<path fill-rule="evenodd" clip-rule="evenodd" d="M75.2283 150.677C58.4802 150.677 42.7756 142.825 30.9147 128.603C19.1087 114.381 12.5742 95.4909 12.5742 75.3384C12.5742 55.2408 19.1087 36.3512 30.9147 22.1291C42.7756 7.90704 58.4802 0.0546875 75.2283 0.0546875C91.9763 0.0546875 107.681 7.90704 119.487 22.1291C131.348 36.3512 137.827 55.2408 137.827 75.3384C137.827 95.4909 131.348 114.381 119.487 128.603C107.681 142.825 91.9763 150.677 75.2283 150.677ZM75.2283 0.329245C40.8536 0.329245 12.8488 33.99 12.8488 75.3384C12.8488 116.742 40.8536 150.402 75.2283 150.402C109.603 150.402 137.608 116.742 137.608 75.3384C137.608 33.99 109.603 0.329245 75.2283 0.329245Z"/>
</mask>
<path fill-rule="evenodd" clip-rule="evenodd" d="M75.2283 150.677C58.4802 150.677 42.7756 142.825 30.9147 128.603C19.1087 114.381 12.5742 95.4909 12.5742 75.3384C12.5742 55.2408 19.1087 36.3512 30.9147 22.1291C42.7756 7.90704 58.4802 0.0546875 75.2283 0.0546875C91.9763 0.0546875 107.681 7.90704 119.487 22.1291C131.348 36.3512 137.827 55.2408 137.827 75.3384C137.827 95.4909 131.348 114.381 119.487 128.603C107.681 142.825 91.9763 150.677 75.2283 150.677ZM75.2283 0.329245C40.8536 0.329245 12.8488 33.99 12.8488 75.3384C12.8488 116.742 40.8536 150.402 75.2283 150.402C109.603 150.402 137.608 116.742 137.608 75.3384C137.608 33.99 109.603 0.329245 75.2283 0.329245Z" fill="url(#paint18_linear_2084_13)"/>
<path d="M30.9147 128.603L30.1452 129.241L30.1467 129.243L30.9147 128.603ZM30.9147 22.1291L30.1467 21.4886L30.1452 21.4904L30.9147 22.1291ZM119.487 22.1291L118.717 22.7678L118.719 22.7696L119.487 22.1291ZM119.487 128.603L118.719 127.962L118.718 127.964L119.487 128.603ZM75.2283 150.677V149.677C58.8123 149.677 43.3775 141.985 31.6827 127.962L30.9147 128.603L30.1467 129.243C42.1737 143.664 58.1482 151.677 75.2283 151.677V150.677ZM30.9147 128.603L31.6841 127.964C20.0399 113.937 13.5742 95.2785 13.5742 75.3384H12.5742H11.5742C11.5742 95.7034 18.1775 114.824 30.1452 129.241L30.9147 128.603ZM12.5742 75.3384H13.5742C13.5742 55.4535 20.0397 36.7953 31.6841 22.7678L30.9147 22.1291L30.1452 21.4904C18.1777 35.9072 11.5742 55.028 11.5742 75.3384H12.5742ZM30.9147 22.1291L31.6827 22.7696C43.3775 8.74666 58.8123 1.05469 75.2283 1.05469V0.0546875V-0.945312C58.1482 -0.945312 42.1737 7.06741 30.1467 21.4886L30.9147 22.1291ZM75.2283 0.0546875V1.05469C91.6445 1.05469 107.078 8.74681 118.718 22.7678L119.487 22.1291L120.256 21.4904C108.284 7.06726 92.3081 -0.945312 75.2283 -0.945312V0.0546875ZM119.487 22.1291L118.719 22.7696C130.416 36.7949 136.827 55.4516 136.827 75.3384H137.827H138.827C138.827 55.0299 132.28 35.9076 120.255 21.4886L119.487 22.1291ZM137.827 75.3384H136.827C136.827 95.2804 130.416 113.937 118.719 127.962L119.487 128.603L120.255 129.243C132.28 114.824 138.827 95.7014 138.827 75.3384H137.827ZM119.487 128.603L118.718 127.964C107.078 141.985 91.6445 149.677 75.2283 149.677V150.677V151.677C92.3081 151.677 108.284 143.664 120.256 129.241L119.487 128.603ZM75.2283 0.329245V-0.670755C40.1368 -0.670755 11.8488 33.6181 11.8488 75.3384H12.8488H13.8488C13.8488 34.3619 41.5705 1.32925 75.2283 1.32925V0.329245ZM12.8488 75.3384H11.8488C11.8488 117.113 40.1364 151.402 75.2283 151.402V150.402V149.402C41.5709 149.402 13.8488 116.37 13.8488 75.3384H12.8488ZM75.2283 150.402V151.402C110.32 151.402 138.608 117.113 138.608 75.3384H137.608H136.608C136.608 116.37 108.886 149.402 75.2283 149.402V150.402ZM137.608 75.3384H138.608C138.608 33.6181 110.32 -0.670755 75.2283 -0.670755V0.329245V1.32925C108.886 1.32925 136.608 34.3619 136.608 75.3384H137.608Z" fill="#08595E" mask="url(#path-37-inside-19_2084_13)"/>
<mask id="path-39-inside-20_2084_13" fill="white">
<path fill-rule="evenodd" clip-rule="evenodd" d="M75.2273 150.732C60.9503 150.732 47.5519 142.88 37.5031 128.603C27.4543 114.381 21.9082 95.4911 21.9082 75.3386C21.9082 55.241 27.4543 36.3514 37.5031 22.0744C47.5519 7.85235 60.9503 0 75.2273 0C89.5043 0 102.848 7.85235 112.952 22.0744C123 36.3514 128.546 55.241 128.546 75.3386C128.546 95.4911 123 114.381 112.952 128.603C102.848 142.88 89.5043 150.732 75.2273 150.732ZM75.2273 0.384383C46.0693 0.384383 22.2926 34.0451 22.2926 75.3386C22.2926 116.687 46.0693 150.293 75.2273 150.293C104.385 150.293 128.162 116.687 128.162 75.3386C128.162 34.0451 104.385 0.384383 75.2273 0.384383Z"/>
</mask>
<path fill-rule="evenodd" clip-rule="evenodd" d="M75.2273 150.732C60.9503 150.732 47.5519 142.88 37.5031 128.603C27.4543 114.381 21.9082 95.4911 21.9082 75.3386C21.9082 55.241 27.4543 36.3514 37.5031 22.0744C47.5519 7.85235 60.9503 0 75.2273 0C89.5043 0 102.848 7.85235 112.952 22.0744C123 36.3514 128.546 55.241 128.546 75.3386C128.546 95.4911 123 114.381 112.952 128.603C102.848 142.88 89.5043 150.732 75.2273 150.732ZM75.2273 0.384383C46.0693 0.384383 22.2926 34.0451 22.2926 75.3386C22.2926 116.687 46.0693 150.293 75.2273 150.293C104.385 150.293 128.162 116.687 128.162 75.3386C128.162 34.0451 104.385 0.384383 75.2273 0.384383Z" fill="url(#paint19_linear_2084_13)"/>
<path d="M37.5031 128.603L38.3208 128.027L38.3198 128.026L37.5031 128.603ZM37.5031 22.0744L36.6864 21.4974L36.6853 21.4989L37.5031 22.0744ZM112.952 22.0744L113.769 21.4989L113.767 21.4953L112.952 22.0744ZM112.952 128.603L113.768 129.18L113.768 129.18L112.952 128.603ZM75.2273 150.732V149.732C61.3494 149.732 48.2292 142.105 38.3208 128.027L37.5031 128.603L36.6853 129.178C46.8746 143.655 60.5512 151.732 75.2273 151.732V150.732ZM37.5031 128.603L38.3198 128.026C28.4078 113.997 22.9082 95.3171 22.9082 75.3386H21.9082H20.9082C20.9082 95.6652 26.5008 114.764 36.6864 129.18L37.5031 128.603ZM21.9082 75.3386H22.9082C22.9082 55.4158 28.4074 36.7346 38.3208 22.65L37.5031 22.0744L36.6853 21.4989C26.5011 35.9683 20.9082 55.0662 20.9082 75.3386H21.9082ZM37.5031 22.0744L38.3198 22.6515C48.2283 8.62801 61.3489 1 75.2273 1V0V-1C60.5517 -1 46.8755 7.07669 36.6864 21.4974L37.5031 22.0744ZM75.2273 0V1C89.1043 1 102.171 8.62668 112.136 22.6536L112.952 22.0744L113.767 21.4953C103.524 7.07802 89.9043 -1 75.2273 -1V0ZM112.952 22.0744L112.134 22.65C122.047 36.7346 127.546 55.4158 127.546 75.3386H128.546H129.546C129.546 55.0662 123.954 35.9683 113.769 21.4989L112.952 22.0744ZM128.546 75.3386H127.546C127.546 95.3171 122.047 113.997 112.135 128.026L112.952 128.603L113.768 129.18C123.954 114.764 129.546 95.6652 129.546 75.3386H128.546ZM112.952 128.603L112.135 128.025C102.17 142.106 89.1038 149.732 75.2273 149.732V150.732V151.732C89.9048 151.732 103.525 143.654 113.768 129.18L112.952 128.603ZM75.2273 0.384383V-0.615617C60.2348 -0.615617 46.7274 8.03908 37.0088 21.7996C27.2878 35.5635 21.2926 54.5088 21.2926 75.3386H22.2926H23.2926C23.2926 54.8749 29.1857 36.3432 38.6425 22.9533C48.1017 9.56007 61.0617 1.38438 75.2273 1.38438V0.384383ZM22.2926 75.3386H21.2926C21.2926 96.1956 27.2877 115.141 37.009 128.898C46.7279 142.652 60.2354 151.293 75.2273 151.293V150.293V149.293C61.0611 149.293 48.1012 141.13 38.6423 127.744C29.1858 114.362 23.2926 95.83 23.2926 75.3386H22.2926ZM75.2273 150.293V151.293C90.2191 151.293 103.727 142.652 113.446 128.898C123.167 115.141 129.162 96.1956 129.162 75.3386H128.162H127.162C127.162 95.83 121.269 114.362 111.812 127.744C102.353 141.13 89.3934 149.293 75.2273 149.293V150.293ZM128.162 75.3386H129.162C129.162 54.5088 123.167 35.5635 113.446 21.7996C103.727 8.03908 90.2197 -0.615617 75.2273 -0.615617V0.384383V1.38438C89.3929 1.38438 102.353 9.56007 111.812 22.9533C121.269 36.3432 127.162 54.8749 127.162 75.3386H128.162Z" fill="#08595E" mask="url(#path-39-inside-20_2084_13)"/>
<mask id="path-41-inside-21_2084_13" fill="white">
<path fill-rule="evenodd" clip-rule="evenodd" d="M75.2282 150.732C64.0811 150.732 53.6479 142.88 45.7956 128.603C37.9982 114.381 33.6602 95.4362 33.6602 75.3386C33.6602 55.241 37.9982 36.3514 45.7956 22.1293C53.6479 7.85235 64.0811 0 75.2282 0C86.3752 0 96.8084 7.85235 104.661 22.1293C112.458 36.3514 116.741 55.241 116.741 75.3386C116.741 95.4362 112.458 114.381 104.661 128.603C96.8084 142.88 86.3752 150.732 75.2282 150.732ZM75.2282 0.549115C52.6046 0.549115 34.2093 34.1001 34.2093 75.3386C34.2093 116.632 52.6046 150.183 75.2282 150.183C97.8517 150.183 116.247 116.632 116.247 75.3386C116.247 34.1001 97.8517 0.549115 75.2282 0.549115Z"/>
</mask>
<path fill-rule="evenodd" clip-rule="evenodd" d="M75.2282 150.732C64.0811 150.732 53.6479 142.88 45.7956 128.603C37.9982 114.381 33.6602 95.4362 33.6602 75.3386C33.6602 55.241 37.9982 36.3514 45.7956 22.1293C53.6479 7.85235 64.0811 0 75.2282 0C86.3752 0 96.8084 7.85235 104.661 22.1293C112.458 36.3514 116.741 55.241 116.741 75.3386C116.741 95.4362 112.458 114.381 104.661 128.603C96.8084 142.88 86.3752 150.732 75.2282 150.732ZM75.2282 0.549115C52.6046 0.549115 34.2093 34.1001 34.2093 75.3386C34.2093 116.632 52.6046 150.183 75.2282 150.183C97.8517 150.183 116.247 116.632 116.247 75.3386C116.247 34.1001 97.8517 0.549115 75.2282 0.549115Z" fill="url(#paint20_linear_2084_13)"/>
<path d="M45.7956 128.603L44.9187 129.084L44.9194 129.085L45.7956 128.603ZM45.7956 22.1293L44.9194 21.6474L44.9187 21.6486L45.7956 22.1293ZM104.661 22.1293L105.538 21.6486L105.537 21.6474L104.661 22.1293ZM104.661 128.603L105.537 129.085L105.538 129.084L104.661 128.603ZM75.2282 150.732V149.732C64.6011 149.732 54.4387 142.243 46.6718 128.121L45.7956 128.603L44.9194 129.085C52.8572 143.517 63.5612 151.732 75.2282 151.732V150.732ZM45.7956 128.603L46.6724 128.122C38.9724 114.078 34.6602 95.3065 34.6602 75.3386H33.6602H32.6602C32.6602 95.566 37.0239 114.684 44.9187 129.084L45.7956 128.603ZM33.6602 75.3386H34.6602C34.6602 55.3713 38.9722 36.6549 46.6724 22.6101L45.7956 22.1293L44.9187 21.6486C37.0241 36.048 32.6602 55.1107 32.6602 75.3386H33.6602ZM45.7956 22.1293L46.6718 22.6113C54.4387 8.48959 64.6011 1 75.2282 1V0V-1C63.5612 -1 52.8572 7.2151 44.9194 21.6474L45.7956 22.1293ZM75.2282 0V1C85.8552 1 96.0176 8.48959 103.785 22.6113L104.661 22.1293L105.537 21.6474C97.5992 7.2151 86.8952 -1 75.2282 -1V0ZM104.661 22.1293L103.784 22.6101C111.483 36.6533 115.741 55.3691 115.741 75.3386H116.741H117.741C117.741 55.1129 113.433 36.0495 105.538 21.6486L104.661 22.1293ZM116.741 75.3386H115.741C115.741 95.3087 111.483 114.079 103.784 128.122L104.661 128.603L105.538 129.084C113.433 114.682 117.741 95.5638 117.741 75.3386H116.741ZM104.661 128.603L103.785 128.121C96.0176 142.243 85.8552 149.732 75.2282 149.732V150.732V151.732C86.8952 151.732 97.5992 143.517 105.537 129.085L104.661 128.603ZM75.2282 0.549115V-0.450885C63.3807 -0.450885 52.8594 8.32011 45.3581 21.9986C37.8362 35.7145 33.2093 54.5836 33.2093 75.3386H34.2093H35.2093C35.2093 54.855 39.78 36.3294 47.1117 22.9602C54.4639 9.55359 64.452 1.54912 75.2282 1.54912V0.549115ZM34.2093 75.3386H33.2093C33.2093 96.1209 37.8361 115.004 45.358 128.727C52.8593 142.412 63.3806 151.183 75.2282 151.183V150.183V149.183C64.4521 149.183 54.464 141.179 47.1118 127.765C39.7801 114.389 35.2093 95.8498 35.2093 75.3386H34.2093ZM75.2282 150.183V151.183C87.0757 151.183 97.5971 142.412 105.098 128.727C112.62 115.004 117.247 96.1209 117.247 75.3386H116.247H115.247C115.247 95.8498 110.676 114.389 103.345 127.765C95.9923 141.179 86.0042 149.183 75.2282 149.183V150.183ZM116.247 75.3386H117.247C117.247 54.5836 112.62 35.7145 105.098 21.9986C97.597 8.32011 87.0756 -0.450885 75.2282 -0.450885V0.549115V1.54912C86.0043 1.54912 95.9924 9.55359 103.345 22.9602C110.676 36.3294 115.247 54.855 115.247 75.3386H116.247Z" fill="#08595E" mask="url(#path-41-inside-21_2084_13)"/>
<mask id="path-43-inside-22_2084_13" fill="white">
<path fill-rule="evenodd" clip-rule="evenodd" d="M75.2285 150.732C67.3762 150.732 59.9632 142.825 54.472 128.493C49.0358 114.326 46.0156 95.4362 46.0156 75.3386C46.0156 55.2959 49.0358 36.4063 54.472 22.1843C59.9632 7.90726 67.3762 0 75.2285 0C83.0809 0 90.494 7.90726 95.9851 22.1843C101.421 36.4063 104.442 55.2959 104.442 75.3386C104.442 95.4362 101.421 114.326 95.9851 128.493C90.494 142.825 83.0809 150.732 75.2285 150.732ZM75.2285 0.768762C59.5787 0.768762 46.7844 34.2648 46.7844 75.3386C46.7844 116.467 59.5787 149.908 75.2285 149.908C90.8783 149.908 103.618 116.467 103.618 75.3386C103.618 34.2648 90.8783 0.768762 75.2285 0.768762Z"/>
</mask>
<path fill-rule="evenodd" clip-rule="evenodd" d="M75.2285 150.732C67.3762 150.732 59.9632 142.825 54.472 128.493C49.0358 114.326 46.0156 95.4362 46.0156 75.3386C46.0156 55.2959 49.0358 36.4063 54.472 22.1843C59.9632 7.90726 67.3762 0 75.2285 0C83.0809 0 90.494 7.90726 95.9851 22.1843C101.421 36.4063 104.442 55.2959 104.442 75.3386C104.442 95.4362 101.421 114.326 95.9851 128.493C90.494 142.825 83.0809 150.732 75.2285 150.732ZM75.2285 0.768762C59.5787 0.768762 46.7844 34.2648 46.7844 75.3386C46.7844 116.467 59.5787 149.908 75.2285 149.908C90.8783 149.908 103.618 116.467 103.618 75.3386C103.618 34.2648 90.8783 0.768762 75.2285 0.768762Z" fill="url(#paint21_linear_2084_13)"/>
<path d="M54.472 128.493L55.4058 128.135L55.4056 128.135L54.472 128.493ZM54.472 22.1843L53.5387 21.8253L53.5379 21.8272L54.472 22.1843ZM95.9851 22.1843L96.9192 21.8272L96.9185 21.8253L95.9851 22.1843ZM95.9851 128.493L95.0515 128.135L95.0513 128.135L95.9851 128.493ZM75.2285 150.732V149.732C71.665 149.732 68.0953 147.943 64.6955 144.304C61.2923 140.662 58.1241 135.23 55.4058 128.135L54.472 128.493L53.5382 128.851C56.3111 136.088 59.595 141.775 63.2342 145.67C66.8768 149.568 70.9397 151.732 75.2285 151.732V150.732ZM54.472 128.493L55.4056 128.135C50.0247 114.112 47.0156 95.3503 47.0156 75.3386H46.0156H45.0156C45.0156 95.5222 48.0469 114.54 53.5384 128.851L54.472 128.493ZM46.0156 75.3386H47.0156C47.0156 55.3824 50.0245 36.6203 55.4061 22.5413L54.472 22.1843L53.5379 21.8272C48.047 36.1923 45.0156 55.2094 45.0156 75.3386H46.0156ZM54.472 22.1843L55.4054 22.5432C58.1236 15.4759 61.2916 10.0571 64.6949 6.42166C68.0949 2.78969 71.6647 1 75.2285 1V0V-1C70.94 -1 66.8772 1.16394 63.2348 5.05485C59.5956 8.94229 56.3116 14.6156 53.5387 21.8253L54.472 22.1843ZM75.2285 0V1C78.7923 1 82.3622 2.78969 85.7622 6.42167C89.1655 10.0571 92.3336 15.4759 95.0518 22.5432L95.9851 22.1843L96.9185 21.8253C94.1455 14.6156 90.8615 8.94229 87.2223 5.05485C83.5799 1.16394 79.5171 -1 75.2285 -1V0ZM95.9851 22.1843L95.051 22.5413C100.433 36.6203 103.442 55.3824 103.442 75.3386H104.442H105.442C105.442 55.2094 102.41 36.1923 96.9192 21.8272L95.9851 22.1843ZM104.442 75.3386H103.442C103.442 95.3503 100.432 114.112 95.0515 128.135L95.9851 128.493L96.9187 128.851C102.41 114.54 105.442 95.5222 105.442 75.3386H104.442ZM95.9851 128.493L95.0513 128.135C92.333 135.23 89.1648 140.662 85.7616 144.304C82.3618 147.943 78.7921 149.732 75.2285 149.732V150.732V151.732C79.5173 151.732 83.5803 149.568 87.2229 145.67C90.8622 141.775 94.1461 136.088 96.9189 128.851L95.9851 128.493ZM75.2285 0.768762V-0.231238C70.932 -0.231238 66.9486 2.07121 63.4382 5.97572C59.9271 9.88112 56.8062 15.474 54.2035 22.2945C48.9954 35.9424 45.7844 54.711 45.7844 75.3386H46.7844H47.7844C47.7844 54.8924 50.9706 36.376 56.0721 23.0075C58.6242 16.3198 61.6362 10.9715 64.9255 7.31287C68.2156 3.65332 71.7002 1.76876 75.2285 1.76876V0.768762ZM46.7844 75.3386H45.7844C45.7844 95.9935 48.9953 114.762 54.2036 128.404C56.8064 135.221 59.9273 140.809 63.4386 144.71C66.9492 148.61 70.9326 150.908 75.2285 150.908V149.908V148.908C71.6996 148.908 68.215 147.027 64.9252 143.372C61.636 139.717 58.624 134.374 56.072 127.69C50.9706 114.329 47.7844 95.8124 47.7844 75.3386H46.7844ZM75.2285 149.908V150.908C79.5248 150.908 83.5048 148.61 87.0104 144.709C90.5166 140.808 93.6306 135.22 96.2264 128.403C101.421 114.761 104.618 95.993 104.618 75.3386H103.618H102.618C102.618 95.8129 99.4452 114.329 94.3573 127.691C91.812 134.375 88.8068 139.718 85.5228 143.372C82.2383 147.027 78.7572 148.908 75.2285 148.908V149.908ZM103.618 75.3386H104.618C104.618 54.7115 101.421 35.9432 96.2265 22.2953C93.6307 15.4749 90.5168 9.88187 87.0108 5.97628C83.5054 2.07145 79.5253 -0.231238 75.2285 -0.231238V0.768762V1.76876C78.7566 1.76876 82.2376 3.65307 85.5225 7.31231C88.8066 10.9708 91.8119 16.3189 94.3573 23.0067C99.4452 36.3753 102.618 54.8919 102.618 75.3386H103.618Z" fill="#08595E" mask="url(#path-43-inside-22_2084_13)"/>
<path d="M75.2285 0.5C76.3849 0.5 77.5018 1.1426 78.583 2.38379C79.6632 3.6239 80.6565 5.40582 81.5566 7.53906C83.3552 11.8015 84.7335 17.3487 85.7197 22.4443L85.7207 22.4482C88.5674 36.5726 90.1035 55.372 90.1035 75.3389C90.1035 95.3607 88.5674 114.16 85.7207 128.284V128.288C84.7344 133.356 83.3553 138.903 81.5566 143.173C80.6564 145.31 79.6633 147.096 78.583 148.341C77.5013 149.587 76.3841 150.232 75.2285 150.232C74.073 150.232 72.9566 149.587 71.874 148.341C70.7927 147.096 69.7973 145.31 68.8936 143.173C67.3135 139.437 66.0505 134.722 65.0801 130.205L64.6816 128.285C61.8895 114.16 60.3535 95.36 60.3535 75.3389C60.3535 55.9962 61.7952 37.748 64.4238 23.7842L64.6816 22.4463C65.6955 17.3495 67.088 11.8019 68.8936 7.53906C69.7971 5.40596 70.7921 3.62495 71.873 2.38477C72.9552 1.14334 74.0721 0.500085 75.2285 0.5ZM75.2285 0.542969C74.1302 0.543051 73.1018 1.13937 72.1602 2.1416C71.2165 3.14601 70.3106 4.60845 69.4482 6.46875C67.7222 10.1925 66.1211 15.6174 64.7451 22.4697L64.7441 22.4727C61.9908 36.57 60.3965 55.3837 60.3965 75.3389C60.3965 95.3489 61.9909 114.107 64.7441 128.259L64.7451 128.262C66.1212 135.115 67.7228 140.527 69.4492 144.237C70.3116 146.091 71.2173 147.546 72.1611 148.545C73.1033 149.542 74.1314 150.134 75.2285 150.134C76.3257 150.134 77.3544 149.543 78.2959 148.545C79.239 147.545 80.1429 146.09 81.002 144.236C82.7215 140.526 84.3096 135.114 85.6582 128.261C88.4669 114.107 90.0058 95.3476 90.0059 75.3389C90.0059 56.0087 88.5619 37.7475 85.918 23.8066L85.6582 22.4707C84.3096 15.618 82.7213 10.1927 81.002 6.46875C80.143 4.60842 79.2397 3.1461 78.2969 2.1416C77.356 1.13911 76.327 0.542969 75.2285 0.542969Z" fill="url(#paint22_linear_2084_13)" stroke="#08595E"/>
<path d="M75.3867 0.774414V149.957H75.0684V0.774414H75.3867Z" fill="url(#paint23_linear_2084_13)" stroke="#08595E"/>
<defs>
<linearGradient id="paint0_linear_2084_13" x1="167221" y1="235497" x2="173585" y2="242903" gradientUnits="userSpaceOnUse">
<stop stop-color="#5EDDC9"/>
<stop offset="1" stop-color="#00B1FB"/>
</linearGradient>
<linearGradient id="paint1_linear_2084_13" x1="162824" y1="232995" x2="175407" y2="247639" gradientUnits="userSpaceOnUse">
<stop stop-color="#5EDDC9"/>
<stop offset="1" stop-color="#00B1FB"/>
</linearGradient>
<linearGradient id="paint2_linear_2084_13" x1="157831" y1="231424" x2="176208" y2="252811" gradientUnits="userSpaceOnUse">
<stop stop-color="#5EDDC9"/>
<stop offset="1" stop-color="#00B1FB"/>
</linearGradient>
<linearGradient id="paint3_linear_2084_13" x1="152466" y1="230909" x2="175910" y2="258193" gradientUnits="userSpaceOnUse">
<stop stop-color="#5EDDC9"/>
<stop offset="1" stop-color="#00B1FB"/>
</linearGradient>
<linearGradient id="paint4_linear_2084_13" x1="146988" y1="231419" x2="174578" y2="263528" gradientUnits="userSpaceOnUse">
<stop stop-color="#5EDDC9"/>
<stop offset="1" stop-color="#00B1FB"/>
</linearGradient>
<linearGradient id="paint5_linear_2084_13" x1="141507" y1="232993" x2="172188" y2="268699" gradientUnits="userSpaceOnUse">
<stop stop-color="#5EDDC9"/>
<stop offset="1" stop-color="#00B1FB"/>
</linearGradient>
<linearGradient id="paint6_linear_2084_13" x1="136348" y1="235538" x2="168907" y2="273431" gradientUnits="userSpaceOnUse">
<stop stop-color="#5EDDC9"/>
<stop offset="1" stop-color="#00B1FB"/>
</linearGradient>
<linearGradient id="paint7_linear_2084_13" x1="131676" y1="238914" x2="164867" y2="277541" gradientUnits="userSpaceOnUse">
<stop stop-color="#5EDDC9"/>
<stop offset="1" stop-color="#00B1FB"/>
</linearGradient>
<linearGradient id="paint8_linear_2084_13" x1="123154" y1="273361" x2="129519" y2="280768" gradientUnits="userSpaceOnUse">
<stop stop-color="#5EDDC9"/>
<stop offset="1" stop-color="#00B1FB"/>
</linearGradient>
<linearGradient id="paint9_linear_2084_13" x1="121210" y1="268753" x2="133793" y2="283396" gradientUnits="userSpaceOnUse">
<stop stop-color="#5EDDC9"/>
<stop offset="1" stop-color="#00B1FB"/>
</linearGradient>
<linearGradient id="paint10_linear_2084_13" x1="120372" y1="263611" x2="138749" y2="284999" gradientUnits="userSpaceOnUse">
<stop stop-color="#5EDDC9"/>
<stop offset="1" stop-color="#00B1FB"/>
</linearGradient>
<linearGradient id="paint11_linear_2084_13" x1="120668" y1="258231" x2="144112" y2="285515" gradientUnits="userSpaceOnUse">
<stop stop-color="#5EDDC9"/>
<stop offset="1" stop-color="#00B1FB"/>
</linearGradient>
<linearGradient id="paint12_linear_2084_13" x1="121974" y1="252916" x2="149564" y2="285025" gradientUnits="userSpaceOnUse">
<stop stop-color="#5EDDC9"/>
<stop offset="1" stop-color="#00B1FB"/>
</linearGradient>
<linearGradient id="paint13_linear_2084_13" x1="124347" y1="247737" x2="155028" y2="283444" gradientUnits="userSpaceOnUse">
<stop stop-color="#5EDDC9"/>
<stop offset="1" stop-color="#00B1FB"/>
</linearGradient>
<linearGradient id="paint14_linear_2084_13" x1="127637" y1="243024" x2="160197" y2="280917" gradientUnits="userSpaceOnUse">
<stop stop-color="#5EDDC9"/>
<stop offset="1" stop-color="#00B1FB"/>
</linearGradient>
<linearGradient id="paint15_linear_2084_13" x1="221301" y1="306191" x2="268136" y2="360698" gradientUnits="userSpaceOnUse">
<stop stop-color="#5EDDC9"/>
<stop offset="1" stop-color="#00B1FB"/>
</linearGradient>
<linearGradient id="paint16_linear_2084_13" x1="221696" y1="306439" x2="267465" y2="359704" gradientUnits="userSpaceOnUse">
<stop stop-color="#5EDDC9"/>
<stop offset="1" stop-color="#00B1FB"/>
</linearGradient>
<linearGradient id="paint17_linear_2084_13" x1="222507" y1="306853" x2="265734" y2="357161" gradientUnits="userSpaceOnUse">
<stop stop-color="#5EDDC9"/>
<stop offset="1" stop-color="#00B1FB"/>
</linearGradient>
<linearGradient id="paint18_linear_2084_13" x1="223435" y1="306767" x2="261999" y2="351648" gradientUnits="userSpaceOnUse">
<stop stop-color="#5EDDC9"/>
<stop offset="1" stop-color="#00B1FB"/>
</linearGradient>
<linearGradient id="paint19_linear_2084_13" x1="223394" y1="304905" x2="255724" y2="342532" gradientUnits="userSpaceOnUse">
<stop stop-color="#5EDDC9"/>
<stop offset="1" stop-color="#00B1FB"/>
</linearGradient>
<linearGradient id="paint20_linear_2084_13" x1="220605" y1="298925" x2="245015" y2="327332" gradientUnits="userSpaceOnUse">
<stop stop-color="#5EDDC9"/>
<stop offset="1" stop-color="#00B1FB"/>
</linearGradient>
<linearGradient id="paint21_linear_2084_13" x1="213546" y1="287278" x2="229844" y2="306246" gradientUnits="userSpaceOnUse">
<stop stop-color="#5EDDC9"/>
<stop offset="1" stop-color="#00B1FB"/>
</linearGradient>
<linearGradient id="paint22_linear_2084_13" x1="199433" y1="266360" x2="207278" y2="275490" gradientUnits="userSpaceOnUse">
<stop stop-color="#5EDDC9"/>
<stop offset="1" stop-color="#00B1FB"/>
</linearGradient>
<linearGradient id="paint23_linear_2084_13" x1="180610" y1="230147" x2="180901" y2="230486" gradientUnits="userSpaceOnUse">
<stop stop-color="#5EDDC9"/>
<stop offset="1" stop-color="#00B1FB"/>
</linearGradient>
</defs>
</svg>
