<svg width="305" height="92" viewBox="0 0 305 92" fill="none" xmlns="http://www.w3.org/2000/svg">
<path opacity="0.1" d="M304.673 91.0227L0.472656 91.0227L0.472656 3.72266L304.673 3.72266V91.0227Z" fill="#08595E"/>
<path d="M304.051 4.2L299.851 0H150.151L145.741 4.40999H100.951L104.881 8.36997H224.251L232.801 16.95H289.351L294.811 22.41V61.2L301.081 67.47V77.7L303.661 80.28L304.051 4.2Z" fill="#08595E"/>
<path d="M0 73.1426V91.5026H19.05L0 73.1426Z" fill="#08595E"/>
<path opacity="0.1" d="M304.673 91.0227L0.472656 91.0227L0.472656 3.72266L304.673 3.72266V91.0227Z" fill="#08595E"/>
<path d="M304.051 4.2L299.851 0H150.151L145.741 4.40999H100.951L104.881 8.36997H224.251L232.801 16.95H289.351L294.811 22.41V61.2L301.081 67.47V77.7L303.661 80.28L304.051 4.2Z" fill="#08595E"/>
<path d="M0 73.1426V91.5026H19.05L0 73.1426Z" fill="#08595E"/>
</svg>
