<svg width="655" height="598" viewBox="0 0 655 598" fill="none" xmlns="http://www.w3.org/2000/svg">
<path d="M3.00977 249.091L29.4998 275.581L3.51977 301.561L3.00977 249.091Z" stroke="#08595E" stroke-width="2" stroke-miterlimit="10"/>
<path d="M19.6406 275.371L9.56348 285.448L9.48242 265.241L19.6406 275.371Z" fill="#08595E" stroke="#08595E"/>
<path d="M6.75977 591.75L604.45 591.75L647.26 548.94V308.61L434.05 308.61L423.37 319.32L122.05 319.32L114.37 311.64H50.4098L7.20977 354.84L6.75977 591.75Z" stroke="#08595E" stroke-width="2" stroke-miterlimit="10"/>
<path d="M117.311 314.58L122.051 319.32L423.371 319.32L430.001 312.69" stroke="#08595E" stroke-width="12" stroke-miterlimit="10"/>
<path d="M580.24 591.75H604.45L647.26 548.94V531.27" stroke="#08595E" stroke-width="12" stroke-miterlimit="10"/>
<path d="M52.3301 591.75H242.11" stroke="#08595E" stroke-width="12" stroke-miterlimit="10"/>
<path d="M6.75977 511.98L6.75977 438.691" stroke="#08595E" stroke-width="12" stroke-miterlimit="10"/>
<path d="M1 185.699L71.71 256.439L622.39 256.439L638.68 240.149V137.009L653.02 122.669V5.99936L1 5.99936L1 185.699Z" stroke="#08595E" stroke-width="2" stroke-miterlimit="10"/>
<path d="M648.479 244.856V140.321L652.52 134.767V255.939H637.396L648.479 244.856Z" fill="#08595E" stroke="#08595E"/>
<path d="M141.818 6L263.168 6" stroke="#08595E" stroke-width="12" stroke-miterlimit="10"/>
<path d="M52.9902 237.719L71.7102 256.439H108.37" stroke="#08595E" stroke-width="12" stroke-miterlimit="10"/>
<path d="M523.531 257.748L518.292 262.961L228.756 262.961L222.739 256.945L523.531 257.748Z" fill="#08595E" stroke="#08595E"/>
<path d="M611.458 508.972C612.155 508.972 612.737 509.564 612.737 510.156C612.737 510.867 612.155 511.459 611.458 511.459C610.876 511.459 610.295 510.867 610.295 510.156C610.295 509.564 610.876 508.972 611.458 508.972Z" fill="#08595E"/>
<path d="M611.458 505.537C612.155 505.537 612.737 506.129 612.737 506.722C612.737 507.432 612.155 508.025 611.458 508.025C610.876 508.025 610.295 507.432 610.295 506.722C610.295 506.129 610.876 505.537 611.458 505.537Z" fill="#08595E"/>
<path d="M611.458 502.102C612.155 502.102 612.737 502.575 612.737 503.286C612.737 503.997 612.155 504.589 611.458 504.589C610.876 504.589 610.295 503.997 610.295 503.286C610.295 502.575 610.876 502.102 611.458 502.102Z" fill="#08595E"/>
<path d="M624.483 536.574V488.597L617.971 481.963V440.857H616.809V482.437L623.32 489.071V536.574H624.483Z" fill="#08595E"/>
<path d="M632.504 383.641V336.139H631.341V383.168L610.877 403.898V493.573H612.04V404.372L632.504 383.641Z" fill="#08595E"/>
<path d="M627.504 336.376C627.504 333.888 629.481 331.874 631.922 331.874C634.248 331.874 636.225 333.888 636.225 336.376C636.225 338.745 634.248 340.759 631.922 340.759C629.481 340.759 627.504 338.745 627.504 336.376Z" fill="#08595E"/>
<path d="M632.154 394.659H628.666V536.575L632.154 531.837V394.659Z" fill="#08595E"/>
<path d="M601.225 567.874V557.584L614.75 544.859V499.825L617.598 502.481V538.884L622.225 543.2V548.732L601.225 567.874Z" fill="#08595E"/>
<path d="M611.458 508.972C612.155 508.972 612.737 509.564 612.737 510.156C612.737 510.867 612.155 511.459 611.458 511.459C610.876 511.459 610.295 510.867 610.295 510.156C610.295 509.564 610.876 508.972 611.458 508.972Z" fill="#08595E"/>
<path d="M611.458 505.537C612.155 505.537 612.737 506.129 612.737 506.722C612.737 507.432 612.155 508.025 611.458 508.025C610.876 508.025 610.295 507.432 610.295 506.722C610.295 506.129 610.876 505.537 611.458 505.537Z" fill="#08595E"/>
<path d="M611.458 502.102C612.155 502.102 612.737 502.575 612.737 503.286C612.737 503.997 612.155 504.589 611.458 504.589C610.876 504.589 610.295 503.997 610.295 503.286C610.295 502.575 610.876 502.102 611.458 502.102Z" fill="#08595E"/>
<path d="M624.483 536.574V488.597L617.971 481.963V440.857H616.809V482.437L623.32 489.071V536.574H624.483Z" fill="#08595E"/>
<path d="M632.504 383.641V336.139H631.341V383.168L610.877 403.898V493.573H612.04V404.372L632.504 383.641Z" fill="#08595E"/>
<path d="M627.504 336.376C627.504 333.888 629.481 331.874 631.922 331.874C634.248 331.874 636.225 333.888 636.225 336.376C636.225 338.745 634.248 340.759 631.922 340.759C629.481 340.759 627.504 338.745 627.504 336.376Z" fill="#08595E"/>
<path d="M632.154 394.659H628.666V536.575L632.154 531.837V394.659Z" fill="#08595E"/>
</svg>
