<svg width="141" height="141" viewBox="0 0 141 141" fill="none" xmlns="http://www.w3.org/2000/svg">
<path d="M75.248 77.0615C79.5599 73.9446 84.7743 72.6405 89.9688 73.3418L90.4707 73.416L139.446 81.2969L139.397 81.5762L90.4639 73.7471H90.4629C85.1194 72.9034 79.7682 74.1406 75.4297 77.2959H75.4287C71.0421 80.5015 68.1684 85.1198 67.3232 90.4697L59.4961 139.39L59.2178 139.341L67.0479 90.4082C67.9056 84.9934 70.7983 80.2782 75.248 77.0615Z" fill="url(#paint0_linear_2078_6)" stroke="#08595E"/>
<path d="M81.6299 1.39941L73.7471 50.3291V50.3301C72.1388 60.4079 63.4544 67.5898 53.5938 67.5898C52.5236 67.5898 51.4338 67.5012 50.3242 67.3223H50.3232L1.37988 59.4902L1.4209 59.165L50.3828 66.9902V66.9912C61.3653 68.7935 71.7257 61.2477 73.4717 50.3232L81.2988 1.34375L81.6299 1.39941Z" fill="url(#paint1_linear_2078_6)" stroke="#08595E"/>
<path d="M53.8311 82.167C58.281 78.9503 63.694 77.6638 69.1094 78.5215V78.5225C74.4673 79.3798 79.238 82.3262 82.4561 86.7227V86.7236L111.488 126.901L111.25 127.076L82.168 86.9062L82.167 86.9053L81.8672 86.5029C78.7217 82.3926 74.1741 79.6717 69.0469 78.8535C63.7563 78.0094 58.4066 79.2479 54.0156 82.4004L54.0137 82.4014L13.8896 111.488L13.7148 111.25L53.8311 82.167Z" fill="url(#paint2_linear_2078_6)" stroke="#08595E"/>
<path d="M58.625 53.832L58.626 53.833C61.7767 58.1651 66.4502 61.0944 71.7461 61.9395H71.7471C77.0958 62.7839 82.3896 61.488 86.7773 58.3379L86.7793 58.3369L126.901 29.3037L127.077 29.542L86.9619 58.5693L86.9609 58.5703C83.4221 61.144 79.2418 62.4834 75.0098 62.4834C73.9019 62.4834 72.7934 62.3937 71.6846 62.2148L71.1836 62.1289C66.0257 61.175 61.4559 58.3242 58.3945 54.0176L58.3916 54.0146L29.3047 13.835L29.543 13.6602L58.625 53.832Z" fill="url(#paint3_linear_2078_6)" stroke="#08595E"/>
<path d="M59.1172 87.2529C65.2384 77.9668 77.6446 75.2786 87.0283 81.127L87.4736 81.4121L128.9 108.649L128.731 108.909L87.3096 81.6748H87.3086C78.0181 75.5384 65.4633 78.1274 59.3809 87.4189L32.1426 128.846L31.8828 128.677L59.1182 87.2539L59.1172 87.2529Z" fill="url(#paint4_linear_2078_6)" stroke="#08595E"/>
<path d="M108.91 12.0605L81.6758 53.4834C78.6725 58.0419 74.0642 61.202 68.707 62.2734L68.7051 62.2744C67.3099 62.5606 65.9156 62.7031 64.5225 62.7031C60.6096 62.7031 56.6979 61.5778 53.3232 59.3281L53.3203 59.3262L11.9473 32.1426L12.1162 31.8838L53.4844 59.1182L53.4873 59.1201C57.9912 62.0475 63.3962 63.0601 68.6846 61.9912H68.6855C73.9233 60.9211 78.4856 57.8218 81.4141 53.3164L108.65 11.8916L108.91 12.0605Z" fill="url(#paint5_linear_2078_6)" stroke="#08595E"/>
<path d="M50.457 74.3457C55.8158 73.2204 61.2811 74.2912 65.8389 77.2939L65.8408 77.2949C70.3059 80.2024 73.3625 84.6174 74.5732 89.7666L74.6846 90.2676L84.6875 138.762L84.4014 138.824L74.3457 90.2832C73.2754 85.0458 70.1769 80.483 65.6719 77.5547C61.1677 74.5722 55.8172 73.5601 50.5293 74.6289H50.5273L1.99609 84.6826L1.94727 84.4053L50.4561 74.3457H50.457Z" fill="url(#paint6_linear_2078_6)" stroke="#08595E"/>
<path d="M66.4473 50.4551C68.6997 61.3227 79.397 68.3597 90.2656 66.1074L138.816 56.1045L138.879 56.3896L90.3389 66.3916C88.9435 66.6778 87.5495 66.8213 86.1562 66.8213C76.6686 66.8213 68.1469 60.1734 66.1641 50.5273V50.5264L56.1045 1.97461L56.3906 1.91211L66.4473 50.4551Z" fill="url(#paint7_linear_2078_6)" stroke="#08595E"/>
<path d="M63.0684 89.2969C67.0338 78.7406 78.8781 73.4327 89.4385 77.4531H89.4395L135.806 95.0098L135.676 95.3408L89.3545 77.7266L88.8652 77.5479C78.5762 73.9495 67.2214 79.1832 63.3408 89.4375L45.7236 135.761L45.4561 135.664L63.0674 89.2988L63.0684 89.2969Z" fill="url(#paint8_linear_2078_6)" stroke="#08595E"/>
<path d="M95.3438 5.10938L77.7266 51.4395L77.7256 51.4414C74.672 59.584 66.8472 64.625 58.5898 64.625C56.1779 64.625 53.7134 64.1964 51.3574 63.2861L51.3545 63.2842L5.03027 45.7227L5.12793 45.4551L51.4395 63.0117C61.8549 66.9527 73.5108 61.7179 77.4531 51.3555V51.3545L95.0615 4.99414L95.3438 5.10938Z" fill="url(#paint9_linear_2078_6)" stroke="#08595E"/>
<path d="M51.8223 78.5947C56.8073 76.3435 62.38 76.1826 67.4727 78.1123C72.5662 80.0425 76.6392 83.8477 78.8906 88.833L99.2227 134.063L98.9248 134.199L78.5947 88.9717C76.3986 84.0728 72.3983 80.2987 67.332 78.3848C62.3207 76.4711 56.8575 76.641 51.9609 78.8359H51.96L6.72754 99.168L6.5918 98.8711L51.8203 78.5957L51.8223 78.5947Z" fill="url(#paint10_linear_2078_6)" stroke="#08595E"/>
<path d="M62.1992 51.7676C64.3965 56.7236 68.3977 60.4407 73.4609 62.3535V62.3525C78.4732 64.2668 83.9358 64.0971 88.8857 61.9033L88.8877 61.9023L134.064 41.5693L134.2 41.8662L88.9756 62.1963C86.2876 63.379 83.4459 64.0214 80.6113 64.0215C78.1523 64.0215 75.6857 63.5405 73.3193 62.6807C68.224 60.6947 64.1543 56.8888 61.959 51.9092L61.958 51.9062L41.6211 6.7207L41.8711 6.60156L62.1992 51.7676Z" fill="url(#paint11_linear_2078_6)" stroke="#08595E"/>
<path d="M55.9238 84.6426C63.9104 76.656 76.8826 76.656 84.8691 84.6426L119.922 119.695L119.717 119.889L84.6416 84.8682C76.8126 76.985 64.0319 76.987 56.1504 84.8682L21.0752 119.889L20.8701 119.695L55.9238 84.6426Z" fill="url(#paint12_linear_2078_6)" stroke="#08595E"/>
<path d="M119.933 21.085L84.8691 56.0947L84.8662 56.0977C81.009 60.0084 75.8671 62.0986 70.3965 62.0986C64.9258 62.0986 59.783 60.0085 55.9258 56.0977H55.9268L55.9238 56.0947L20.8594 21.085L21.0859 20.8594L56.1504 55.9238L56.1523 55.9268C59.9762 59.6944 64.9886 61.8359 70.3965 61.8359C75.8022 61.8359 80.8709 59.6955 84.6426 55.9238L119.707 20.8594L119.933 21.085Z" fill="url(#paint13_linear_2078_6)" stroke="#08595E"/>
<path d="M50.0791 70.2373C61.3893 70.2373 70.5557 79.4037 70.5557 90.7139V140.238H70.2373V90.7139C70.2373 79.5652 61.2277 70.5557 50.0791 70.5557H0.5V70.2373H50.0791Z" fill="url(#paint14_linear_2078_6)" stroke="#08595E"/>
<path d="M70.5557 0.5V50.0791C70.5557 61.1728 79.6211 70.2373 90.7148 70.2373H140.294V70.5557H90.7148C79.4055 70.5557 70.2383 61.3352 70.2383 50.0791V0.5H70.5557Z" fill="url(#paint15_linear_2078_6)" stroke="#08595E"/>
<defs>
<linearGradient id="paint0_linear_2078_6" x1="58205" y1="40740.6" x2="70265.6" y2="40740.6" gradientUnits="userSpaceOnUse">
<stop stop-color="#5EDDC9"/>
<stop offset="1" stop-color="#00B1FB"/>
</linearGradient>
<linearGradient id="paint1_linear_2078_6" x1="49577.8" y1="31857.3" x2="61638.4" y2="31857.3" gradientUnits="userSpaceOnUse">
<stop stop-color="#5EDDC9"/>
<stop offset="1" stop-color="#00B1FB"/>
</linearGradient>
<linearGradient id="paint2_linear_2078_6" x1="62642.2" y1="30760.5" x2="80556.2" y2="30760.5" gradientUnits="userSpaceOnUse">
<stop stop-color="#5EDDC9"/>
<stop offset="1" stop-color="#00B1FB"/>
</linearGradient>
<linearGradient id="paint3_linear_2078_6" x1="65474.9" y1="24794.5" x2="83388.8" y2="24794.5" gradientUnits="userSpaceOnUse">
<stop stop-color="#5EDDC9"/>
<stop offset="1" stop-color="#00B1FB"/>
</linearGradient>
<linearGradient id="paint4_linear_2078_6" x1="65402.2" y1="31962.4" x2="83031.2" y2="31962.4" gradientUnits="userSpaceOnUse">
<stop stop-color="#5EDDC9"/>
<stop offset="1" stop-color="#00B1FB"/>
</linearGradient>
<linearGradient id="paint5_linear_2078_6" x1="61811.2" y1="25621.5" x2="79430.3" y2="25621.5" gradientUnits="userSpaceOnUse">
<stop stop-color="#5EDDC9"/>
<stop offset="1" stop-color="#00B1FB"/>
</linearGradient>
<linearGradient id="paint6_linear_2078_6" x1="51224.9" y1="40061.8" x2="64051.7" y2="40061.8" gradientUnits="userSpaceOnUse">
<stop stop-color="#5EDDC9"/>
<stop offset="1" stop-color="#00B1FB"/>
</linearGradient>
<linearGradient id="paint7_linear_2078_6" x1="59556.1" y1="31320.2" x2="72391.3" y2="31320.2" gradientUnits="userSpaceOnUse">
<stop stop-color="#5EDDC9"/>
<stop offset="1" stop-color="#00B1FB"/>
</linearGradient>
<linearGradient id="paint8_linear_2078_6" x1="63198.8" y1="37142.8" x2="78490.2" y2="37142.8" gradientUnits="userSpaceOnUse">
<stop stop-color="#5EDDC9"/>
<stop offset="1" stop-color="#00B1FB"/>
</linearGradient>
<linearGradient id="paint9_linear_2078_6" x1="56415.1" y1="29180.8" x2="71697.4" y2="29180.8" gradientUnits="userSpaceOnUse">
<stop stop-color="#5EDDC9"/>
<stop offset="1" stop-color="#00B1FB"/>
</linearGradient>
<linearGradient id="paint10_linear_2078_6" x1="58093.5" y1="35861.3" x2="74162.7" y2="35861.3" gradientUnits="userSpaceOnUse">
<stop stop-color="#5EDDC9"/>
<stop offset="1" stop-color="#00B1FB"/>
</linearGradient>
<linearGradient id="paint11_linear_2078_6" x1="64120.4" y1="28286.8" x2="80180.2" y2="28286.8" gradientUnits="userSpaceOnUse">
<stop stop-color="#5EDDC9"/>
<stop offset="1" stop-color="#00B1FB"/>
</linearGradient>
<linearGradient id="paint12_linear_2078_6" x1="64754.5" y1="26157.5" x2="83138.1" y2="26157.5" gradientUnits="userSpaceOnUse">
<stop stop-color="#5EDDC9"/>
<stop offset="1" stop-color="#00B1FB"/>
</linearGradient>
<linearGradient id="paint13_linear_2078_6" x1="64754.5" y1="21622.8" x2="83138.1" y2="21622.8" gradientUnits="userSpaceOnUse">
<stop stop-color="#5EDDC9"/>
<stop offset="1" stop-color="#00B1FB"/>
</linearGradient>
<linearGradient id="paint14_linear_2078_6" x1="43167.1" y1="42618.8" x2="52358.8" y2="42618.8" gradientUnits="userSpaceOnUse">
<stop stop-color="#5EDDC9"/>
<stop offset="1" stop-color="#00B1FB"/>
</linearGradient>
<linearGradient id="paint15_linear_2078_6" x1="52258.1" y1="33527.8" x2="61449.8" y2="33527.8" gradientUnits="userSpaceOnUse">
<stop stop-color="#5EDDC9"/>
<stop offset="1" stop-color="#00B1FB"/>
</linearGradient>
</defs>
</svg>
