<svg width="33" height="184" viewBox="0 0 33 184" fill="none" xmlns="http://www.w3.org/2000/svg">
<path d="M0 179.902C0 181.902 1.70001 183.602 3.70001 183.602C5.80001 183.602 7.50002 181.902 7.50002 179.902C7.50002 177.802 5.80001 176.102 3.70001 176.102C1.70001 176.102 0 177.802 0 179.902Z" fill="#27AAE1"/>
<path d="M0 179.902C0 181.902 1.70001 183.602 3.70001 183.602C5.80001 183.602 7.50002 181.902 7.50002 179.902C7.50002 177.802 5.80001 176.102 3.70001 176.102C1.70001 176.102 0 177.802 0 179.902Z" fill="#27AAE1"/>
<path d="M0 179.902C0 181.902 1.70001 183.602 3.70001 183.602C5.80001 183.602 7.50002 181.902 7.50002 179.902C7.50002 177.802 5.80001 176.102 3.70001 176.102C1.70001 176.102 0 177.802 0 179.902Z" fill="#27AAE1"/>
<path d="M9.79924 117.002V57.6016L28.1992 39.2016V3.60156H29.1992V39.6016L10.7992 58.0016V117.002H9.79924Z" fill="#08595E"/>
<path d="M24.8985 3.7C24.8985 1.7 26.5985 0 28.6985 0C30.6985 0 32.3985 1.7 32.3985 3.7C32.3985 5.8 30.6985 7.5 28.6985 7.5C26.5985 7.5 24.8985 5.8 24.8985 3.7Z" fill="#08595E"/>
<path d="M3.19923 180V140.8L16.1992 127.9V72H17.1992V128.3L4.19923 141.2V180H3.19923Z" fill="#08595E"/>
<path d="M9.79924 117.002V57.6016L28.1992 39.2016V3.60156H29.1992V39.6016L10.7992 58.0016V117.002H9.79924Z" fill="#08595E"/>
<path d="M24.8985 3.7C24.8985 1.7 26.5985 0 28.6985 0C30.6985 0 32.3985 1.7 32.3985 3.7C32.3985 5.8 30.6985 7.5 28.6985 7.5C26.5985 7.5 24.8985 5.8 24.8985 3.7Z" fill="#08595E"/>
<path d="M3.19923 180V140.8L16.1992 127.9V72H17.1992V128.3L4.19923 141.2V180H3.19923Z" fill="#08595E"/>
<path d="M9.79924 117.002V57.6016L28.1992 39.2016V3.60156H29.1992V39.6016L10.7992 58.0016V117.002H9.79924Z" fill="#08595E"/>
<path d="M24.8985 3.7C24.8985 1.7 26.5985 0 28.6985 0C30.6985 0 32.3985 1.7 32.3985 3.7C32.3985 5.8 30.6985 7.5 28.6985 7.5C26.5985 7.5 24.8985 5.8 24.8985 3.7Z" fill="#08595E"/>
<path d="M3.19923 180V140.8L16.1992 127.9V72H17.1992V128.3L4.19923 141.2V180H3.19923Z" fill="#08595E"/>
<path d="M9.79924 117.002V57.6016L28.1992 39.2016V3.60156H29.1992V39.6016L10.7992 58.0016V117.002H9.79924Z" fill="#08595E"/>
<path d="M24.8985 3.7C24.8985 1.7 26.5985 0 28.6985 0C30.6985 0 32.3985 1.7 32.3985 3.7C32.3985 5.8 30.6985 7.5 28.6985 7.5C26.5985 7.5 24.8985 5.8 24.8985 3.7Z" fill="#08595E"/>
<path d="M3.19923 180V140.8L16.1992 127.9V72H17.1992V128.3L4.19923 141.2V180H3.19923Z" fill="#08595E"/>
<path d="M0 179.902C0 181.902 1.70001 183.602 3.70001 183.602C5.80001 183.602 7.50002 181.902 7.50002 179.902C7.50002 177.802 5.80001 176.102 3.70001 176.102C1.70001 176.102 0 177.802 0 179.902Z" fill="#08595E"/>
</svg>
