<svg width="664" height="585" viewBox="0 0 664 585" fill="none" xmlns="http://www.w3.org/2000/svg">
<path d="M12.4403 6L133.22 6L147.2 19.98L479.15 19.98L488.15 10.98L633.41 10.98L651.68 29.25V242.49L612.89 281.31H479.99L471.65 272.97H95.9303L87.9203 280.95H33.2003L13.5503 261.3L13.5503 95.85L21.2903 88.11L21.2903 39.06L12.3203 30.06L12.4403 6Z" stroke="#08595E" stroke-width="2" stroke-miterlimit="10"/>
<path d="M623.032 19.4707L639.502 35.9407V240.631L607.612 272.491H587.332V19.4707L623.032 19.4707Z" fill="#08595E"/>
<path opacity="0.1" d="M587.33 19.471L497.54 19.471L489.32 27.691L143.72 27.691L129.32 13.291L22.8503 13.291V25.141L28.5203 30.781L28.5203 95.581L21.3203 102.781L21.3203 255.031L38.5403 272.251H80.9603L88.8203 264.391H480.05L488.21 272.581H587.33V19.471Z" fill="#08595E"/>
<path d="M93.9512 281.31L98.6912 276.57H467.721L472.011 280.89L93.9512 281.31Z" fill="#08595E"/>
<path d="M15.2012 32.9707L15.2012 78.1507L21.2312 84.1807L21.2312 39.0607L15.2012 32.9707Z" fill="#08595E"/>
<path d="M39.3203 6L96.9203 6L39.3203 6Z" fill="#08595E"/>
<path d="M39.3203 6L96.9203 6" stroke="#08595E" stroke-width="12" stroke-miterlimit="10"/>
<path d="M636.742 14.3105L647.482 25.0505L636.742 14.3105Z" fill="#08595E"/>
<path d="M636.742 14.3105L647.482 25.0505" stroke="#08595E" stroke-width="12" stroke-miterlimit="10"/>
<path d="M618.781 275.93L643.711 251L618.781 275.93Z" fill="#08595E"/>
<path d="M618.781 275.93L643.711 251" stroke="#08595E" stroke-width="12" stroke-miterlimit="10"/>
<path d="M655.431 290.49L628.941 316.98L654.921 342.96L655.431 290.49Z" stroke="#08595E" stroke-width="2" stroke-miterlimit="10"/>
<path d="M649.43 305.43L638.09 316.77L649.37 328.05L649.43 305.43Z" fill="#08595E"/>
<path d="M5.78125 355.681H43.2812L61.4013 337.561H387.291L399.201 349.471L513.801 349.471L522.291 357.961H607.881L658.221 408.301V583.891H88.4013L75.0513 570.541H33.7412L20.3912 583.891H5.78125L5.78125 492.361L15.9512 482.191L15.9512 388.081L6.71125 378.871L5.78125 355.681Z" stroke="#08595E" stroke-width="2" stroke-miterlimit="10"/>
<path d="M571 357.66H607.42L657.76 408V432.03" stroke="#08595E" stroke-width="12" stroke-miterlimit="10"/>
<path d="M397 342.66H464.68L471.73 349.71H404.23L397 342.66Z" fill="#08595E"/>
<path d="M22.5195 581.761H51.3195L62.4495 570.631H33.7395L22.5195 581.761Z" fill="#08595E"/>
<path d="M6 524.66L6 570.62" stroke="#08595E" stroke-width="12" stroke-miterlimit="10"/>
<path d="M6 335.66H52.23L37.56 350.33H6L6 335.66Z" fill="#08595E"/>
<path d="M10.1914 382.35L15.9514 388.08L15.9514 482.19L10.1914 487.92" stroke="#08595E" stroke-width="12" stroke-miterlimit="10"/>
<path opacity="0.1" d="M13.0712 361.739H47.8112L65.6612 343.859H382.341L395.661 357.179L507.561 357.179L516.801 366.389H603.231L649.941 413.099V575.939H95.1212L82.5212 563.339H28.8812L21.0812 571.139H14.6312L14.6312 499.049L25.9412 487.739L25.9412 380.759L12.9512 367.769L13.0712 361.739Z" fill="#08595E"/>
</svg>
