<svg width="655" height="598" viewBox="0 0 655 598" fill="none" xmlns="http://www.w3.org/2000/svg">
<path d="M3.00977 249.091L29.4998 275.581L3.51977 301.561L3.00977 249.091Z" stroke="#08595E" stroke-width="2" stroke-miterlimit="10"/>
<path d="M19.6406 275.371L9.56348 285.448L9.48242 265.241L19.6406 275.371Z" fill="#08595E" stroke="#08595E"/>
<path d="M6.75977 591.75L604.45 591.75L647.26 548.94V308.61L434.05 308.61L423.37 319.32L122.05 319.32L114.37 311.64H50.4098L7.20977 354.84L6.75977 591.75Z" stroke="#08595E" stroke-width="2" stroke-miterlimit="10"/>
<path d="M117.311 314.58L122.051 319.32L423.371 319.32L430.001 312.69" stroke="#08595E" stroke-width="12" stroke-miterlimit="10"/>
<path d="M580.24 591.75H604.45L647.26 548.94V531.27" stroke="#08595E" stroke-width="12" stroke-miterlimit="10"/>
<path d="M585.6 318.711H635.689V492.551H585.6V318.711Z" fill="#08595E" stroke="#08595E"/>
<path opacity="0.1" d="M20.5098 358.348L54.1465 324.71H109.622L116.527 331.584L116.673 331.73L429.867 331.73L442.497 319.101H635.35V541.894L598.083 579.16L20.5098 579.16L20.5098 358.348Z" fill="#08595E" stroke="#08595E"/>
<path d="M52.3301 591.75H242.11" stroke="#08595E" stroke-width="12" stroke-miterlimit="10"/>
<path d="M6.75977 511.98L6.75977 438.691" stroke="#08595E" stroke-width="12" stroke-miterlimit="10"/>
<path d="M1 185.699L71.71 256.439L622.39 256.439L638.68 240.149V137.009L653.02 122.669V5.99936L1 5.99936L1 185.699Z" stroke="#08595E" stroke-width="2" stroke-miterlimit="10"/>
<path d="M648.479 244.856V140.321L652.52 134.767V255.939H637.396L648.479 244.856Z" fill="#08595E" stroke="#08595E"/>
<path opacity="0.1" d="M13.8555 17.2109L641.9 17.2109V116.644L626.99 131.554V232.293L614.023 245.23L77.0176 245.23L12.332 180.546L13.8555 17.2109Z" fill="#08595E" stroke="#08595E"/>
<path d="M141.818 6L263.168 6" stroke="#08595E" stroke-width="12" stroke-miterlimit="10"/>
<path d="M52.9902 237.719L71.7102 256.439H108.37" stroke="#08595E" stroke-width="12" stroke-miterlimit="10"/>
<path d="M523.531 257.748L518.292 262.961L228.756 262.961L222.739 256.945L523.531 257.748Z" fill="#08595E" stroke="#08595E"/>
</svg>
