<svg width="25" height="45" viewBox="0 0 25 45" fill="none" xmlns="http://www.w3.org/2000/svg">
<path fill-rule="evenodd" clip-rule="evenodd" d="M24.1736 22.5L15.0619 31.0537L8.18186 37.562H7.99584L0.557829 44.4422C0.557829 44.5661 0.49589 44.6281 0.371924 44.6281C0.371924 44.6281 0.309872 44.5661 0.185905 44.4422C0.0619381 44.4422 0 44.3802 0 44.2562V28.8223L7.25211 22.314L0 15.6198V0.371902C0 0.247935 0.0619381 0.123967 0.185905 0C0.309872 0 0.433862 0.0619842 0.557829 0.185951L7.99584 7.06611H8.18186L15.0619 13.5744L24.1736 22.1281C24.2975 22.1281 24.3595 22.1901 24.3595 22.314C24.3595 22.438 24.2975 22.5 24.1736 22.5ZM23.6157 22.314L14.876 14.1322L11.9009 14.3182C11.9009 14.3182 11.8388 14.2562 11.7149 14.1322L7.62392 10.4132C7.62392 10.4132 7.62392 10.3512 7.62392 10.2273L7.43802 7.43802L0.743847 1.1157V13.5744L6.69417 19.3388L10.0414 22.314L6.69417 25.2893L0.743847 30.8678V43.5124L7.43802 37.1901L7.62392 34.4008C7.62392 34.2769 7.62392 34.2149 7.62392 34.2149L11.7149 30.3099C11.8388 30.3099 11.9009 30.3099 11.9009 30.3099L14.876 30.4959L23.6157 22.314ZM12.0868 30.8678L8.18186 34.4008V36.6322L14.1322 31.0537L12.0868 30.8678ZM8.18186 9.85537L12.0868 13.5744L14.1322 13.3884L8.18186 7.80992V9.85537Z" fill="#08595E"/>
<path d="M12.0855 15.9916H11.1557L10.5979 15.4337L6.50695 11.7147L5.94912 11.1569L5.7631 10.2271V8.18166L2.41602 5.02051V12.8304L12.6433 22.3139L2.41602 31.7974V39.6073L5.7631 36.4461V34.4007L5.94912 33.4709L6.50695 32.9131L10.5979 29.1941L11.1557 28.4503L12.0855 28.6362H14.1309L21.0111 22.3139L14.1309 15.9916H12.0855Z" fill="#08595E"/>
<path d="M6.32236 22.3143L0 16.5498V28.0787L6.32236 22.3143Z" fill="#08595E"/>
</svg>
