<svg width="405" height="139" viewBox="0 0 405 139" fill="none" xmlns="http://www.w3.org/2000/svg">
<g opacity="0.3">
<path fill-rule="evenodd" clip-rule="evenodd" d="M367.62 133.319H36.6303L36.5103 133.199L5.82031 102.509V35.7895L5.94032 35.6695L36.6303 4.97949H367.62L398.43 35.7895V102.509L367.62 133.319ZM36.9903 132.479H367.29L397.59 102.149V36.1495L367.29 5.81951H36.9903L6.66029 36.1495V102.149L36.9903 132.479Z" fill="#08595E"/>
</g>
<g opacity="0.3">
<path fill-rule="evenodd" clip-rule="evenodd" d="M371.61 138.6H32.49L20.67 126.75L0 106.11V32.49L32.49 0H371.61L371.73 0.15L404.1 32.49V106.11L403.95 106.23L371.61 138.6ZM32.88 137.73H371.25L403.23 105.75V32.88L371.25 0.9H32.88L0.9 32.88V105.75L32.88 137.73Z" fill="#08595E"/>
</g>
<path fill-rule="evenodd" clip-rule="evenodd" d="M367.77 133.47H36.6303L36.5103 133.35L5.82031 102.51V35.7897L5.94032 35.6397L36.6303 4.94972H148.05L157.38 14.3097H268.32L278.16 4.46973H367.62L367.77 4.58973L398.7 35.5197V102.51L398.58 102.66L367.77 133.47ZM37.0203 132.57H367.41L397.83 102.15V35.8797L367.29 5.33973H278.55L268.71 15.1797H157.02L147.69 5.81973H37.0203L6.69032 36.1497V102.15L37.0203 132.57Z" fill="#08595E"/>
<path d="M154.41 4.88965L160.83 11.3396H266.22L272.28 5.24963L154.41 4.88965Z" fill="#08595E"/>
<g opacity="0.3">
<path d="M311.28 133.199L270.39 92.3094H6.24023V91.4395H270.75L270.87 91.5594L311.91 132.599L311.28 133.199Z" fill="#08595E"/>
</g>
<g opacity="0.3">
<path d="M397.861 51.4199H142.621L142.501 51.2699L96.9609 5.75988L97.591 5.12988L142.981 50.5199H397.861V51.4199Z" fill="#08595E"/>
</g>
</svg>
