<svg width="306" height="178" viewBox="0 0 306 178" fill="none" xmlns="http://www.w3.org/2000/svg">
<g opacity="0.5">
<path d="M30.2863 22.7703H29.5663V29.4753H22.8613V30.1953H30.2863V22.7703Z" fill="#F8F8F8"/>
<path d="M3.46614 22.7703H2.74609V30.1953H10.1711V29.4753H3.46614V22.7703Z" fill="#F8F8F8"/>
<path d="M30.2863 2.83574H22.8613V3.55573H29.5663V10.2607H30.2863V2.83574Z" fill="#F8F8F8"/>
<path d="M10.1711 2.83574H2.74609V10.2607H3.46614V3.55573H10.1711V2.83574Z" fill="#F8F8F8"/>
</g>
<g opacity="0.5">
<path d="M23.0402 16.156H9.99023V16.876H23.0402V16.156Z" fill="#F8F8F8"/>
</g>
<g opacity="0.5">
<path d="M16.8762 9.99004H16.1562V23.04H16.8762V9.99004Z" fill="#F8F8F8"/>
</g>
<path d="M16.8762 26.6403H16.1562V33.0303H16.8762V26.6403Z" fill="#F8F8F8"/>
<path d="M16.8762 0.000619253H16.1562V6.39062H16.8762V0.000619253Z" fill="#F8F8F8"/>
<path d="M33.0306 16.156H26.6406V16.876H33.0306V16.156Z" fill="#F8F8F8"/>
<path d="M6.39003 16.156H0V16.876H6.39003V16.156Z" fill="#F8F8F8"/>
<path d="M19.1262 13.906H13.9062V19.126H19.1262V13.906Z" fill="#F8F8F8"/>
<g opacity="0.7">
<path d="M30.1962 29.6102L29.6562 30.0602L69.1212 73.5752L69.6163 73.1252L30.1962 29.6102Z" fill="#F8F8F8"/>
</g>
<path d="M71.8059 172.624H66.6309V177.844H71.8059V172.624Z" fill="#F8F8F8"/>
<path d="M71.8059 70.0251H66.6309V75.2451H71.8059V70.0251Z" fill="#F8F8F8"/>
<g opacity="0.7">
<path d="M69.7553 156.919H68.8809V175.594H93.0739V174.874H69.7553V156.919Z" fill="#F8F8F8"/>
</g>
<g opacity="0.7">
<path d="M93.0739 72.2751H68.8809V90.9951H69.7553V72.9951H93.0739V72.2751Z" fill="#F8F8F8"/>
</g>
<g opacity="0.7">
<path d="M302.824 156.919H301.891V174.874H278.631V175.594H302.824V156.919Z" fill="#F8F8F8"/>
</g>
<g opacity="0.7">
<path d="M302.824 72.2751H278.631V72.9951H301.891V90.9951H302.824V72.2751Z" fill="#F8F8F8"/>
</g>
<path d="M298.979 172.624H305.741V177.844H298.979V172.624Z" fill="#F8F8F8"/>
<path d="M298.979 70.0251H305.741V75.2451H298.979V70.0251Z" fill="#F8F8F8"/>
<g opacity="0.3">
<path fill-rule="evenodd" clip-rule="evenodd" d="M298.161 77.0445H73.4863V171.77H298.161V77.0445ZM74.4191 77.7645H297.286V171.095H74.4191V77.7645Z" fill="#F8F8F8"/>
</g>
</svg>
