<svg width="151" height="132" viewBox="0 0 151 132" fill="none" xmlns="http://www.w3.org/2000/svg">
<path d="M42.3973 121.426H31.612C31.4881 121.426 31.3642 121.488 31.2402 121.612L29.7525 123.285H21.3848L19.8972 121.612C19.7732 121.488 19.6492 121.426 19.5253 121.426H11.5294L20.641 105.806L20.0832 105.62L10.7857 121.612L9.66992 123.471C9.66992 123.595 9.66992 123.719 9.66992 123.843C9.79389 123.843 9.91788 123.843 10.0418 123.843H21.1989H29.9386H37.1906L41.0956 127.748C41.2196 127.872 41.2815 127.934 41.2815 127.934H48.9055L42.3973 121.426Z" fill="#08595E"/>
<path fill-rule="evenodd" clip-rule="evenodd" d="M150.806 131.281C150.806 131.281 150.806 131.343 150.806 131.467C150.806 131.591 150.744 131.653 150.62 131.653H138.161C138.037 131.653 137.913 131.591 137.789 131.467L136.488 129.793H98.1819L96.8801 131.467C96.7561 131.591 96.6323 131.653 96.5083 131.653H61.3636C61.3636 131.653 61.3017 131.591 61.1777 131.467L59.8762 129.793H28.2645L26.9628 131.467C26.9628 131.591 26.9009 131.653 26.7769 131.653H7.80994C7.68597 131.653 7.56198 131.591 7.43802 131.467L6.13645 129.793H2.41745H1.11577H0.371924C0.371924 129.793 0.309985 129.793 0.186019 129.793C0.186019 129.669 0.123967 129.607 0 129.607C0 129.483 0 129.359 0 129.236L6.32236 118.45C6.32236 118.45 6.3843 118.388 6.50826 118.264L8.73969 118.079L27.8926 84.7934L26.9628 82.7479C26.9628 82.7479 26.9628 82.6859 26.9628 82.562L44.6281 52.0661C44.6281 51.9421 44.6902 51.8801 44.8141 51.8801L47.0455 51.6942L62.8513 24.3595L61.9216 22.314C61.9216 22.1901 61.9216 22.1281 61.9216 22.1281L71.405 5.57851C71.529 5.45455 71.5909 5.39255 71.5909 5.39255L73.8224 5.20662L75.682 1.8595L76.4256 0.74379L76.7976 0.185962C76.7976 0.0619948 76.7976 0 76.7976 0C76.9216 0 76.9835 0 76.9835 0C77.1075 0 77.2314 0.0619948 77.3553 0.185962L83.4918 10.9711C83.6157 10.9711 83.6157 11.0331 83.4918 11.157L82.7479 13.2025L91.1157 27.7066L99.6694 42.5826L101.901 46.3016L104.132 46.6736C104.132 46.6736 104.194 46.7355 104.318 46.8595L121.798 77.3554C121.921 77.3554 121.921 77.4173 121.798 77.5413L121.054 79.5868L136.859 106.921L138.905 107.107C139.029 107.107 139.153 107.169 139.277 107.293L148.76 123.843C148.76 123.843 148.76 123.905 148.76 124.029L147.831 126.074L149.69 129.236L150.248 129.979L150.806 131.095C150.806 131.219 150.806 131.281 150.806 131.281ZM136.674 129.05H146.901L130.351 100.785C130.351 100.661 130.351 100.599 130.351 100.599L130.909 97.9959L112.5 66.0124L110.269 62.2934L105.062 52.9959L104.132 51.3223L102.645 51.1364L124.587 89.2562L122.17 97.9959L115.847 87.0248C115.723 86.9008 115.723 86.8388 115.847 86.8388L116.591 84.6074L105.992 66.3843L104.504 63.595L103.76 62.2934L102.087 59.5041L100.971 57.6446L99.4835 55.0413L98.3678 53.3678L92.0455 42.0248C91.9215 41.9008 91.8596 41.8388 91.8596 41.8388L92.7893 39.2355L87.3967 29.5661L78.2851 13.9463L74.3802 20.8264C74.2562 20.9504 74.1323 21.0124 74.0084 21.0124L71.7768 21.5703L67.5001 28.8223L68.4298 31.0537C68.4298 31.1777 68.3679 31.2397 68.2439 31.2397L62.8513 40.7231L54.1116 43.1405L57.8306 36.4463C57.8306 36.4463 57.8926 36.4463 58.0166 36.4463L63.409 34.9587L71.5909 20.8264L76.9835 11.343C76.9835 11.219 77.0455 11.157 77.1694 11.157C77.2934 11.157 77.4175 11.219 77.5415 11.343L78.4712 13.2025L87.7687 29.3802L93.3472 39.0496C93.4712 39.0496 93.5331 39.1116 93.5331 39.2355L92.6034 41.8388L99.2976 53.3678L103.575 54.2975L101.715 50.9504L89.6282 30.124C89.6282 30 89.6282 29.938 89.6282 29.938L90.558 27.8926L82.1902 13.3884L76.9835 4.64876L60.6198 32.9132C60.6198 33.0372 60.5578 33.0992 60.4339 33.0992L58.0166 33.843L47.4174 52.0661L31.7976 79.2149L31.0537 80.3306L31.6116 81.8182L53.7397 43.8843L62.4793 41.4669L56.157 52.438C56.0331 52.562 55.9091 52.624 55.7851 52.624L53.5538 52.9959L41.467 74.0083L40.3513 76.0537L39.0496 78.2851L37.9339 80.1446L36.6323 82.376L36.0744 83.4917L29.0083 95.5785C29.0083 95.7025 28.9463 95.7645 28.8223 95.7645L26.2191 96.3223L20.6406 105.806L20.0827 105.62L25.6612 95.9504C25.6612 95.8264 25.7232 95.7645 25.8472 95.7645L28.6364 95.2066L35.3306 83.4917L33.843 79.4008L31.9835 82.7479L19.8967 103.574C19.7727 103.698 19.7108 103.76 19.7108 103.76L17.4794 103.946L9.11162 118.45L4.09093 127.19H36.8183C36.9422 127.19 37.0042 127.252 37.0042 127.376L38.8637 129.05H92.7893L93.7191 127.934H49.8348L43.3265 121.426H55.9711C56.0951 121.426 56.2191 121.488 56.3431 121.612L57.8306 123.285H106.921C107.045 123.285 107.107 123.347 107.107 123.471L108.967 125.517H119.938H137.975L134.07 118.636C133.946 118.512 133.946 118.388 134.07 118.264L134.814 116.219L130.537 108.781L128.306 108.409C128.182 108.409 128.12 108.347 128.12 108.223L122.541 98.7397L124.959 90L128.678 96.5082C128.802 96.6322 128.802 96.6942 128.678 96.6942L127.376 102.087L130.909 108.409L135.558 116.219L140.951 125.702C140.951 125.702 140.951 125.764 140.951 125.888C140.827 126.012 140.765 126.074 140.765 126.074H119.938H108.781C108.657 126.074 108.595 126.074 108.595 126.074L106.736 123.843H93.3472L90.3719 127.19H118.451C118.451 127.19 118.512 127.252 118.636 127.376L119.938 129.05H136.674ZM75.8679 127.19H78.4712L81.4464 123.843H78.843L75.8679 127.19ZM80.7025 127.19H83.3059L86.281 123.843H83.6777L80.7025 127.19ZM85.5372 127.19H88.1405L90.9298 123.843H88.5124L85.5372 127.19ZM39.6075 68.9876L41.0951 73.2644L42.3968 71.033L40.9091 66.7562L39.6075 68.9876ZM37.1901 73.2644L38.6778 77.5413L39.9793 75.3099L38.4918 71.033L37.1901 73.2644ZM34.7728 77.5413L36.2603 81.6322L37.3761 79.4008L36.0744 75.3099L34.7728 77.5413ZM110.64 66.9421L109.339 64.7107L105.062 63.781L106.178 66.0124L110.64 66.9421ZM108.223 62.8512L107.107 60.6198L102.645 59.6901L103.946 61.9215L108.223 62.8512ZM105.806 58.7603L104.504 56.5289L100.227 55.5992L101.529 57.8306L105.806 58.7603Z" fill="#08595E"/>
</svg>
