<svg width="1200" height="28" viewBox="0 0 1200 28" fill="none" xmlns="http://www.w3.org/2000/svg">
  <!-- Horizontal line: left segment; extends 1px into trapezoid for seamless join -->
  <rect x="0" y="26.5" width="550" height="1.5" fill="white"/>
  <!-- Horizontal line: right segment; extends 1px into trapezoid for seamless join -->
  <rect x="650" y="26.5" width="550" height="1.5" fill="white"/>
  <!-- Trapezoid indicator (offset +549 in x); base aligns with line at y=27 -->
  <path d="M550.152 26.821L568.332 2.413L633.348 2.557L649.8 26.929L650.016 27.253L650.304 27.037L650.7 26.785L650.988 26.569L650.808 26.281L634.14 1.621L634.068 1.513L633.96 1.369H633.78H633.672L567.044 1.225H566.936H566.756L566.648 1.369L566.576 1.477L548.216 26.137L548 26.425L548.288 26.641L548.648 26.893L548.936 27.109L550.152 26.821Z" fill="white"/>
  <path d="M576.72 0H584.28L586.728 1.62H574.344L576.72 0Z" fill="white"/>
  <path d="M619.597 3.744H627.193L629.605 2.124H617.221L619.597 3.744Z" fill="white"/>
  <path d="M554.184 17.388L549.648 23.436L549.504 26.352L556.884 16.452L554.184 17.388Z" fill="white"/>
</svg>
