<svg width="82" height="94" viewBox="0 0 82 94" fill="none" xmlns="http://www.w3.org/2000/svg">
<path fill-rule="evenodd" clip-rule="evenodd" d="M58.3887 77.5415L64.7111 79.401L40.7234 93.1613L1.67383 70.6613L7.99619 68.8018H8.18209L15.2482 72.8927L15.992 75.8679C15.992 75.8679 15.992 75.9299 15.992 76.0539L20.4548 78.6572C20.5787 78.6572 20.6408 78.6572 20.6408 78.6572C20.7648 78.6572 20.8267 78.6572 20.8267 78.6572L23.616 77.7274L31.7978 82.3762L34.4011 81.6324C34.4011 81.6324 34.4631 81.6324 34.5871 81.6324L40.7234 85.3514L43.5127 83.6778L48.7193 80.7026C48.8432 80.7026 48.9053 80.7026 48.9053 80.7026L51.5085 81.4464L58.3887 77.5415ZM32.5416 82.934L40.7234 87.7687L50.7648 82.0042L48.9053 81.4464L41.0953 85.9092C40.9714 86.0332 40.9093 86.0952 40.9093 86.0952C40.9093 86.0952 40.8474 86.0952 40.7234 86.0952V85.9092C40.5994 85.9092 40.5375 85.9092 40.5375 85.9092L34.4011 82.3762L32.5416 82.934Z" fill="#08595E"/>
<path d="M16.55 75.496L20.8269 77.9134L22.8724 77.3555L15.9922 73.2646L16.55 75.496Z" fill="#08595E"/>
<path d="M61.1777 75.8671L67.5001 77.7266L69.7314 76.4249L63.5951 74.5654L61.1777 75.8671Z" fill="#08595E"/>
<path d="M66.3828 72.8925L72.5192 74.752L74.9366 73.4503L68.6142 71.5908L66.3828 72.8925Z" fill="#08595E"/>
<path d="M71.4043 70.1034L77.7267 71.9629L79.958 70.6613L73.6357 68.8018L71.4043 70.1034Z" fill="#08595E"/>
<path fill-rule="evenodd" clip-rule="evenodd" d="M4.83478 45.5578L0 50.2066V22.5H0.186019L39.0496 0L37.562 6.3223L30.31 10.4132L27.5208 9.66942C27.3968 9.66942 27.3347 9.66942 27.3347 9.66942L22.686 12.2727C22.686 12.2727 22.686 12.3347 22.686 12.4587L21.9422 15.2479L13.9463 19.8967L13.2025 22.6859C13.2025 22.6859 13.1405 22.7479 13.0165 22.8719L6.88019 26.405V35.5165C6.88019 35.6405 6.81825 35.7645 6.69428 35.8884L4.83478 37.7479V45.5578ZM13.2025 20.2686L4.83478 25.1033V36.6322L6.13645 35.3306V26.219C6.13645 26.095 6.19839 26.0331 6.32236 26.0331V25.8471C6.32236 25.8471 6.3843 25.8471 6.50826 25.8471L12.6447 22.3141L13.2025 20.2686Z" fill="#08595E"/>
<path d="M27.5203 10.2275L23.2434 12.6449L22.6855 14.8763L29.5657 10.9713L27.5203 10.2275Z" fill="#08595E"/>
<path d="M4.83478 48.9043L0 53.3671V55.9704L4.83478 51.5076V48.9043Z" fill="#08595E"/>
<path d="M4.83478 54.6689L0 59.1317V61.735L4.83478 57.2722V54.6689Z" fill="#08595E"/>
<path d="M4.83478 60.6191L0 65.0819V67.6853L4.83478 63.2224V60.6191Z" fill="#08595E"/>
<path fill-rule="evenodd" clip-rule="evenodd" d="M81.6322 22.4996V67.6856L76.7975 63.2227V54.8549L79.0288 52.8095C79.1528 52.6856 79.2148 52.5616 79.2148 52.4376V47.4169C79.2148 47.293 79.1528 47.169 79.0288 47.0451L76.7975 44.9996V35.7021L74.938 33.8426C74.814 33.8426 74.752 33.7806 74.752 33.6566V26.4045L66.9421 21.9417C66.8181 21.8178 66.7561 21.7558 66.7561 21.7558L66.0123 18.9665L59.1322 15.0616L57.6445 8.73926L81.6322 22.4996ZM76.9834 34.7723V25.2888L66.9421 19.3384L67.314 21.3839L75.3098 25.8467C75.4338 25.9707 75.4958 26.0327 75.4958 26.0327V26.2186C75.4958 26.2186 75.4958 26.2806 75.4958 26.4045V33.4706L76.9834 34.7723Z" fill="#08595E"/>
<path d="M78.4704 52.438V47.4173L76.7969 45.9297V53.9255L78.4704 52.438Z" fill="#08595E"/>
<path d="M56.3421 13.3886L54.8544 7.06632L52.623 5.76465L54.1106 12.087L56.3421 13.3886Z" fill="#08595E"/>
<path d="M51.3225 10.599L49.8349 4.09071L47.6035 2.78906L49.0911 9.29733L51.3225 10.599Z" fill="#08595E"/>
<path d="M46.301 7.62395L44.8135 1.30165L42.582 0L44.0696 6.3223L46.301 7.62395Z" fill="#08595E"/>
</svg>
