<svg width="135" height="43" viewBox="0 0 135 43" fill="none" xmlns="http://www.w3.org/2000/svg">
<path d="M96.6926 42.3963C96.5686 42.3963 96.5067 42.3963 96.5067 42.3963C96.3207 42.2103 96.3207 42.0244 96.5067 42.0244L98.1802 39.9789C98.1802 39.855 98.2422 39.793 98.3662 39.793H131.651C131.837 39.793 132.023 39.9789 132.023 40.1649C132.023 40.3508 131.837 40.3509 131.651 40.3509H98.5521L96.8786 42.3963C96.8786 42.3963 96.8165 42.3963 96.6926 42.3963Z" fill="#08595E"/>
<path d="M72.3337 42.3963C72.2097 42.3963 72.1478 42.3963 72.1478 42.3963L70.4742 40.3509H60.061C60.061 40.3509 59.875 40.3508 59.875 40.1649C59.875 39.9789 60.061 39.793 60.061 39.793H70.6601C70.7841 39.793 70.8461 39.855 70.8461 39.9789L72.5196 42.0244C72.7056 42.0244 72.7056 42.2103 72.5196 42.3963C72.3956 42.3963 72.3337 42.3963 72.3337 42.3963Z" fill="#08595E"/>
<path d="M119.938 40.3514L118.822 38.3059H90.7439L89.6281 40.3514L89.0703 39.9795L90.372 37.934C90.372 37.81 90.4339 37.748 90.5579 37.748H119.008C119.132 37.748 119.194 37.81 119.194 37.934L120.496 39.9795L119.938 40.3514Z" fill="#08595E"/>
<path d="M73.0781 40.165H96.3219L94.4624 42.2105H74.9376L73.0781 40.165Z" fill="#08595E"/>
<path fill-rule="evenodd" clip-rule="evenodd" d="M94.4629 42.5822H74.9381C74.8141 42.5822 74.6901 42.5202 74.5662 42.3963L72.8926 40.3509C72.8926 40.2269 72.8926 40.1029 72.8926 39.9789C72.8926 39.855 72.9546 39.793 73.0786 39.793H96.3224C96.4464 39.793 96.5083 39.855 96.5083 39.9789C96.6323 40.1029 96.6323 40.2269 96.5083 40.3509L94.8347 42.3963C94.7107 42.5202 94.5869 42.5822 94.4629 42.5822ZM74.9381 41.8384H94.4629L95.5786 40.3509H73.8223L74.9381 41.8384Z" fill="#08595E"/>
<path d="M56.7143 40.3509H2.41685C2.23089 40.3509 2.04492 40.3508 2.04492 40.1649C2.04492 39.9789 2.23089 39.793 2.41685 39.793H56.7143C56.9002 39.793 56.9003 39.9789 56.9003 40.1649C56.9003 40.3508 56.9002 40.3509 56.7143 40.3509Z" fill="#08595E"/>
<path d="M56.5282 38.8633C57.272 38.8633 57.8299 39.4212 57.8299 40.165C57.8299 40.9088 57.272 41.4666 56.5282 41.4666C55.7844 41.4666 55.2266 40.9088 55.2266 40.165C55.2266 39.4212 55.7844 38.8633 56.5282 38.8633Z" fill="#08595E"/>
<path d="M38.4912 42.5828H4.46225C4.33829 42.5828 4.27635 42.5208 4.27635 42.3968L2.04492 40.3514L2.60275 39.9795L4.46225 41.839H38.3053L40.3507 39.9795L40.7226 40.3514L38.6772 42.3968C38.6772 42.5208 38.6151 42.5828 38.4912 42.5828Z" fill="#08595E"/>
<path d="M47.2301 40.1656H23.9863L26.0317 38.1201H45.1847L47.2301 40.1656Z" fill="#08595E"/>
<path fill-rule="evenodd" clip-rule="evenodd" d="M47.2317 40.3514H23.9879C23.8639 40.3514 23.802 40.2894 23.802 40.1654C23.678 40.0415 23.678 39.9795 23.802 39.9795L25.8474 37.934C25.9713 37.81 26.0333 37.748 26.0333 37.748H45.1863C45.3102 37.748 45.3722 37.81 45.3722 37.934L47.4176 39.9795C47.5415 39.9795 47.6036 40.0415 47.6036 40.1654C47.4796 40.2894 47.3556 40.3514 47.2317 40.3514ZM24.7317 39.7935H46.4878L45.0002 38.3059H26.2193L24.7317 39.7935Z" fill="#08595E"/>
<path d="M2.41777 40.3514C2.23182 40.3514 2.04584 40.3514 2.04584 40.1655V33.8432L0.186338 31.9837C0.0003874 31.7977 0.0003874 31.6117 0.186338 31.4258C0.186338 31.4258 0.372311 31.4258 0.558261 31.4258L2.60367 33.4712C2.60367 33.5952 2.60367 33.6572 2.60367 33.6572V40.1655C2.60367 40.3514 2.60372 40.3514 2.41777 40.3514Z" fill="#08595E"/>
<path d="M2.41662 2.23145V30.3099L0.371094 28.2645V4.27685L2.41662 2.23145Z" fill="#08595E"/>
<path fill-rule="evenodd" clip-rule="evenodd" d="M2.41745 30.6817C2.29348 30.6817 2.16949 30.6817 2.04552 30.6817L0 28.4503C0 28.4503 0 28.3883 0 28.2644V4.27671C0 4.15274 0 4.0908 0 4.0908L2.04552 1.85938C2.16949 1.85938 2.29348 1.85938 2.41745 1.85938C2.54141 1.98334 2.60335 2.10733 2.60335 2.2313V30.3098C2.60335 30.4337 2.54141 30.5577 2.41745 30.6817ZM0.557942 28.2644L2.04552 29.566V2.97509L0.557942 4.27671V28.2644Z" fill="#08595E"/>
<path d="M15.8052 2.60269L2.41685 2.41673C2.23089 2.41673 2.04492 2.41678 2.04492 2.23083C2.04492 2.04488 2.23089 1.8589 2.41685 1.8589L15.6193 2.04487L17.1069 0.185361C17.2928 -0.000589162 17.4787 -0.000589162 17.6647 0.185361C17.6647 0.185361 17.8506 0.371278 17.6647 0.557228L15.9912 2.60269C15.8672 2.60269 15.8052 2.60269 15.8052 2.60269Z" fill="#08595E"/>
<path d="M86.0939 2.60269H57.4575C57.3336 2.60269 57.2096 2.60269 57.0856 2.60269L55.4121 0.557228C55.4121 0.371278 55.4121 0.185361 55.598 0.185361C55.598 -0.000589162 55.784 -0.000589162 55.9699 0.185361L57.6434 2.04487H86.0939C86.2799 2.04487 86.4657 2.23078 86.4657 2.41673C86.4657 2.60268 86.2799 2.60269 86.0939 2.60269Z" fill="#08595E"/>
<path d="M54.8556 2.41748H17.8516L19.525 0.37207H53.1821L54.8556 2.41748Z" fill="#08595E"/>
<path fill-rule="evenodd" clip-rule="evenodd" d="M54.8545 2.60329H17.8504C17.7265 2.60329 17.6025 2.60329 17.4785 2.60329C17.4785 2.47933 17.5405 2.35539 17.6644 2.23143L19.338 0.185962C19.338 0.0619948 19.4 0 19.5239 0H53.181C53.305 0 53.3669 0.0619948 53.3669 0.185962L55.0405 2.23143C55.1645 2.35539 55.2264 2.47933 55.2264 2.60329C55.1025 2.60329 54.9785 2.60329 54.8545 2.60329ZM18.4083 2.04547H54.2967L52.995 0.557829H19.7099L18.4083 2.04547Z" fill="#08595E"/>
<path d="M131.653 2.60275H89.6278C89.4418 2.60275 89.2559 2.60274 89.2559 2.41679C89.2559 2.23084 89.4418 2.04492 89.6278 2.04492H131.653C131.839 2.04492 132.024 2.23084 132.024 2.41679C132.024 2.60274 131.839 2.60275 131.653 2.60275Z" fill="#08595E"/>
<path d="M89.6274 3.71853C89.0695 3.71853 88.5117 3.16065 88.5117 2.41685C88.5117 1.67305 89.0695 1.11523 89.6274 1.11523C90.3712 1.11523 90.9291 1.67305 90.9291 2.41685C90.9291 3.16065 90.3712 3.71853 89.6274 3.71853Z" fill="#08595E"/>
<path d="M118.822 2.60329L116.777 0.557829H103.202L101.343 2.60329L100.785 2.23143L103.017 0.185962C103.017 0.0619948 103.079 0 103.202 0H116.963C116.963 0 117.025 0.0619948 117.149 0.185962L119.194 2.23143L118.822 2.60329Z" fill="#08595E"/>
<path d="M59.1314 5.02034H26.0321C26.0321 5.02034 25.9702 4.95835 25.8462 4.83438L23.8008 2.78892L24.1726 2.41699L26.2181 4.46246H59.1314L60.9909 2.41699L61.5487 2.78892L59.5032 4.83438C59.3792 4.95835 59.2553 5.02034 59.1314 5.02034Z" fill="#08595E"/>
<path d="M133.699 20.8259C133.575 20.8259 133.513 20.8259 133.513 20.8259L131.467 18.7805C131.343 18.6565 131.281 18.5945 131.281 18.5945V2.41679C131.281 2.23084 131.467 2.04492 131.653 2.04492C131.839 2.04492 132.025 2.23084 132.025 2.41679V18.4085L133.884 20.268C134.07 20.454 134.07 20.64 133.884 20.8259C133.884 20.8259 133.823 20.8259 133.699 20.8259Z" fill="#08595E"/>
<path d="M131.652 15.0618C131.652 15.0618 131.59 14.9998 131.466 14.8759C131.28 14.8759 131.28 14.6899 131.466 14.5039L133.325 12.6444V4.46263L131.466 2.60313C131.28 2.41718 131.28 2.23126 131.466 2.23126C131.652 2.04531 131.838 2.04531 131.838 2.23126L133.883 4.27667C134.007 4.27667 134.069 4.33866 134.069 4.46263V12.6444C134.069 12.7684 134.007 12.8304 133.883 12.8304L131.838 14.8759C131.838 14.9998 131.776 15.0618 131.652 15.0618Z" fill="#08595E"/>
<path d="M131.652 40.1656V21.9424L133.698 23.9878V37.7482L131.652 40.1656Z" fill="#08595E"/>
<path fill-rule="evenodd" clip-rule="evenodd" d="M131.653 40.3513C131.653 40.3513 131.591 40.3513 131.467 40.3513C131.343 40.3513 131.281 40.2893 131.281 40.1654V21.9422C131.281 21.8182 131.343 21.6943 131.467 21.5703C131.591 21.5703 131.715 21.6323 131.839 21.7563L133.884 23.8017C134.008 23.8017 134.071 23.8637 134.071 23.9876V37.748C134.071 37.8719 134.008 37.9339 133.884 37.9339L131.839 40.3513C131.839 40.3513 131.777 40.3513 131.653 40.3513ZM132.025 22.686V39.2356L133.327 37.748V24.1736L132.025 22.686Z" fill="#08595E"/>
</svg>
