<svg width="102" height="28" viewBox="0 0 102 28" fill="none" xmlns="http://www.w3.org/2000/svg">
<path d="M1.15207 26.8206L19.3321 2.41261L84.3481 2.55661L100.8 26.9286L101.016 27.2526L101.304 27.0366L101.7 26.7846L101.988 26.5686L101.808 26.2806L85.14 1.6206L85.0681 1.5126L84.96 1.36862H84.78H84.6721L19.044 1.22461H18.936H18.756L18.6481 1.36862L18.576 1.47661L0.216035 26.1366L0 26.4246L0.288105 26.6406L0.648105 26.8926L0.936035 27.1086L1.15207 26.8206Z" fill="#08595E"/>
<path d="M27.7198 0H35.2798L37.7279 1.62H25.3438L27.7198 0Z" fill="#08595E"/>
<path d="M70.5967 3.74402H78.1928L80.6047 2.12402H68.2207L70.5967 3.74402Z" fill="#08595E"/>
<path d="M5.18391 17.3882L0.648047 23.4362L0.503906 26.3521L7.88391 16.4521L5.18391 17.3882Z" fill="#08595E"/>
</svg>
