<svg width="251" height="108" viewBox="0 0 251 108" fill="none" xmlns="http://www.w3.org/2000/svg">
<g opacity="0.5">
<path d="M30.2863 51.9748H29.5663V45.2698H22.8613V44.5498H30.2863V51.9748Z" fill="#F8F8F8"/>
<path d="M3.46614 51.9748H2.74609V44.5498H10.1711V45.2698H3.46614V51.9748Z" fill="#F8F8F8"/>
<path d="M30.2863 71.9094H22.8613V71.1894H29.5663V64.4844H30.2863V71.9094Z" fill="#F8F8F8"/>
<path d="M10.1711 71.9094H2.74609V64.4844H3.46614V71.1894H10.1711V71.9094Z" fill="#F8F8F8"/>
</g>
<g opacity="0.5">
<path d="M23.0402 58.5891H9.99023V57.8691H23.0402V58.5891Z" fill="#F8F8F8"/>
</g>
<g opacity="0.5">
<path d="M16.8762 64.7551H16.1562V51.7051H16.8762V64.7551Z" fill="#F8F8F8"/>
</g>
<path d="M16.8762 48.1048H16.1562V41.7148H16.8762V48.1048Z" fill="#F8F8F8"/>
<path d="M16.8762 74.7445H16.1562V68.3545H16.8762V74.7445Z" fill="#F8F8F8"/>
<path d="M33.0306 58.5891H26.6406V57.8691H33.0306V58.5891Z" fill="#F8F8F8"/>
<path d="M6.39003 58.5891H0V57.8691H6.39003V58.5891Z" fill="#F8F8F8"/>
<path d="M19.1262 60.8391H13.9062V55.6191H19.1262V60.8391Z" fill="#F8F8F8"/>
<g opacity="0.7">
<path d="M68.4465 20.925H67.7715V2.25H86.4465V2.97H68.4465V20.925Z" fill="#F8F8F8"/>
</g>
<g opacity="0.7">
<path d="M86.4465 105.57H67.7715V86.8496H68.4465V104.85H86.4465V105.57Z" fill="#F8F8F8"/>
</g>
<path d="M70.6965 5.22H65.5215V0H70.6965V5.22Z" fill="#F8F8F8"/>
<path d="M70.6965 107.82H65.5215V102.6H70.6965V107.82Z" fill="#F8F8F8"/>
<g opacity="0.7">
<path d="M248.357 20.925H247.637V2.97H229.682V2.25H248.357V20.925Z" fill="#F8F8F8"/>
</g>
<g opacity="0.7">
<path d="M248.357 105.57H229.682V104.85H247.637V86.8496H248.357V105.57Z" fill="#F8F8F8"/>
</g>
<path d="M245.387 5.22H250.607V0H245.387V5.22Z" fill="#F8F8F8"/>
<path d="M245.387 107.82H250.607V102.6H245.387V107.82Z" fill="#F8F8F8"/>
<g opacity="0.7">
<path d="M30.1962 45.1349L29.6562 44.6849L69.1212 1.16992L69.6163 1.61992L30.1962 45.1349Z" fill="#F8F8F8"/>
</g>
<g opacity="0.3">
<path fill-rule="evenodd" clip-rule="evenodd" d="M244.756 100.799H71.3262V6.07422H244.756V100.799ZM72.0462 100.079H244.081V6.74922H72.0462V100.079Z" fill="#F8F8F8"/>
</g>
</svg>
