<svg width="197" height="13" viewBox="0 0 197 13" fill="none" preserveAspectRatio="none" xmlns="http://www.w3.org/2000/svg">
<path d="M113.059 12.0874H96.5093C96.3853 12.0874 96.3232 12.0254 96.3232 11.9015L87.2117 2.97583H70.6621V2.41797H87.3976C87.5216 2.41797 87.5837 2.41797 87.5837 2.41797L96.5093 11.5295H112.873L121.798 2.41797C121.922 2.41797 122.046 2.41797 122.17 2.41797H189.67V2.97583H122.17L113.245 11.9015C113.245 12.0254 113.183 12.0874 113.059 12.0874Z" fill="#08595E"/>
<path d="M39.7949 5.20703H68.0594L65.642 7.62439H42.2123L39.7949 5.20703Z" fill="#08595E"/>
<path fill-rule="evenodd" clip-rule="evenodd" d="M65.6408 7.99669H42.2111C42.0872 7.99669 42.0252 7.99669 42.0252 7.99669L39.6078 5.57934C39.4838 5.45537 39.4219 5.3314 39.4219 5.20743C39.5458 5.08347 39.6698 5.02148 39.7938 5.02148H68.0583C68.1823 5.02148 68.3061 5.08347 68.4301 5.20743C68.4301 5.3314 68.3682 5.45537 68.2442 5.57934L66.0128 7.99669C65.8888 7.99669 65.7648 7.99669 65.6408 7.99669ZM42.2111 7.43885H65.6408L67.3144 5.57934H40.5375L42.2111 7.43885Z" fill="#08595E"/>
<path d="M122.169 2.79004H160.289L157.872 5.20739H119.752L122.169 2.79004Z" fill="#08595E"/>
<path fill-rule="evenodd" clip-rule="evenodd" d="M157.873 5.39319H119.753C119.629 5.39319 119.505 5.33119 119.381 5.20723C119.381 5.08326 119.443 4.9593 119.567 4.83533L121.984 2.41797C121.984 2.41797 122.046 2.41797 122.17 2.41797H160.29C160.414 2.41797 160.476 2.47996 160.476 2.60393C160.476 2.7279 160.476 2.85186 160.476 2.97583L158.059 5.39319C157.935 5.39319 157.873 5.39319 157.873 5.39319ZM120.497 4.83533H157.687L159.546 2.97583H122.356L120.497 4.83533Z" fill="#08595E"/>
<path d="M169.402 2.9752L166.985 0.557843H142.44L140.022 2.9752L139.65 2.41735L142.068 0.185948C142.068 0.0619806 142.13 0 142.254 0H167.171C167.295 0 167.357 0.0619806 167.357 0.185948L169.774 2.41735L169.402 2.9752Z" fill="#08595E"/>
<path d="M28.079 3.16173L27.707 2.60388L30.1244 0.186523C30.2483 0.186523 30.3103 0.186523 30.3103 0.186523H68.4301C68.5541 0.186523 68.6161 0.186523 68.6161 0.186523L70.8475 2.41792L70.4756 2.97578L68.2442 0.74438H30.4963L28.079 3.16173Z" fill="#08595E"/>
<path d="M68.2449 5.57913H30.311L27.8936 3.16177H1.48864C1.30269 3.16177 1.30273 2.97583 1.30273 2.78988C1.30273 2.78988 1.30269 2.60393 1.48864 2.60393H28.0796L30.497 5.02128H68.059L70.4763 2.41797C70.6623 2.41797 70.8482 2.41797 70.8482 2.41797C71.0342 2.60392 71.0342 2.78988 70.8482 2.97583L68.2449 5.57913Z" fill="#08595E"/>
<path d="M94.2773 2.79004H115.29L111.013 6.88094H98.3683L94.2773 2.79004Z" fill="#08595E"/>
<path fill-rule="evenodd" clip-rule="evenodd" d="M111.014 7.25269H98.3691C98.3691 7.25269 98.3071 7.25269 98.1831 7.25269L94.0923 2.97583C93.9683 2.85186 93.9062 2.7279 93.9062 2.60393C94.0302 2.47996 94.1542 2.41797 94.2782 2.41797H115.291C115.415 2.41797 115.539 2.47996 115.662 2.60393C115.662 2.7279 115.601 2.85186 115.477 2.97583L111.2 7.25269C111.2 7.25269 111.138 7.25269 111.014 7.25269ZM98.555 6.69483H111.014L114.547 2.97583H95.022L98.555 6.69483Z" fill="#08595E"/>
<path d="M196.736 4.09101H195.992V1.30176H196.736V4.09101Z" fill="#08595E"/>
<path d="M194.505 4.09101H193.947V1.30176H194.505V4.09101Z" fill="#08595E"/>
<path d="M192.273 4.09101H191.715V1.30176H192.273V4.09101Z" fill="#08595E"/>
<path d="M190.042 4.09101H189.484V1.30176H190.042V4.09101Z" fill="#08595E"/>
<path d="M66.3844 3.16136H32.3555V2.60352H66.3844V3.16136Z" fill="#08595E"/>
<path d="M2.97527 2.78994C2.97527 3.71969 2.23138 4.27754 1.48758 4.27754C0.743779 4.27754 0 3.71969 0 2.78994C0 2.04614 0.743779 1.48828 1.48758 1.48828C2.23138 1.48828 2.97527 2.04614 2.97527 2.78994Z" fill="#08595E"/>
</svg>
