<svg width="302" height="122" viewBox="0 0 302 122" fill="none" xmlns="http://www.w3.org/2000/svg">
<mask id="path-1-inside-1_2080_10" fill="white">
<path d="M150.513 121.464C162.593 121.464 178.133 116.631 196.638 107.077C219.042 95.5454 245.07 89.4501 271.867 89.4501H301.025V88.7363H271.867C258.524 88.7363 245.235 90.2738 232.386 93.239C219.591 96.2592 207.456 100.707 196.309 106.473C177.913 115.917 162.483 120.75 150.513 120.75C138.542 120.75 123.112 115.917 104.716 106.473C93.5694 100.707 81.4338 96.2592 68.6394 93.239C55.7901 90.2738 42.5015 88.7363 29.1031 88.7363H0V89.4501H29.1031C55.9548 89.4501 81.983 95.5454 104.387 107.077C122.892 116.631 138.432 121.464 150.513 121.464Z"/>
</mask>
<path d="M150.513 121.464C162.593 121.464 178.133 116.631 196.638 107.077C219.042 95.5454 245.07 89.4501 271.867 89.4501H301.025V88.7363H271.867C258.524 88.7363 245.235 90.2738 232.386 93.239C219.591 96.2592 207.456 100.707 196.309 106.473C177.913 115.917 162.483 120.75 150.513 120.75C138.542 120.75 123.112 115.917 104.716 106.473C93.5694 100.707 81.4338 96.2592 68.6394 93.239C55.7901 90.2738 42.5015 88.7363 29.1031 88.7363H0V89.4501H29.1031C55.9548 89.4501 81.983 95.5454 104.387 107.077C122.892 116.631 138.432 121.464 150.513 121.464Z" fill="url(#paint0_linear_2080_10)"/>
<path d="M196.638 107.077L196.181 106.188L196.179 106.188L196.638 107.077ZM301.025 89.4501V90.4501H302.025V89.4501H301.025ZM301.025 88.7363H302.025V87.7363H301.025V88.7363ZM232.386 93.239L232.161 92.2646L232.156 92.2658L232.386 93.239ZM196.309 106.473L196.765 107.362L196.768 107.361L196.309 106.473ZM104.716 106.473L104.257 107.361L104.26 107.362L104.716 106.473ZM68.6394 93.239L68.8692 92.2658L68.8643 92.2647L68.6394 93.239ZM0 88.7363V87.7363H-1V88.7363H0ZM0 89.4501H-1V90.4501H0V89.4501ZM104.387 107.077L104.846 106.188L104.845 106.188L104.387 107.077ZM150.513 121.464V122.464C162.829 122.464 178.538 117.548 197.097 107.965L196.638 107.077L196.179 106.188C177.728 115.715 162.357 120.464 150.513 120.464V121.464ZM196.638 107.077L197.096 107.966C219.349 96.512 245.219 90.4501 271.867 90.4501V89.4501V88.4501C244.922 88.4501 218.735 94.5787 196.181 106.188L196.638 107.077ZM271.867 89.4501V90.4501H301.025V89.4501V88.4501H271.867V89.4501ZM301.025 89.4501H302.025V88.7363H301.025H300.025V89.4501H301.025ZM301.025 88.7363V87.7363H271.867V88.7363V89.7363H301.025V88.7363ZM271.867 88.7363V87.7363C258.447 87.7363 245.083 89.2826 232.161 92.2647L232.386 93.239L232.611 94.2134C245.387 91.2651 258.6 89.7363 271.867 89.7363V88.7363ZM232.386 93.239L232.156 92.2658C219.286 95.3038 207.073 99.7793 195.849 105.584L196.309 106.473L196.768 107.361C207.839 101.635 219.897 97.2146 232.615 94.2123L232.386 93.239ZM196.309 106.473L195.852 105.583C177.507 115.002 162.247 119.75 150.513 119.75V120.75V121.75C162.72 121.75 178.319 116.833 196.765 107.362L196.309 106.473ZM150.513 120.75V119.75C138.778 119.75 123.518 115.002 105.173 105.583L104.716 106.473L104.26 107.362C122.706 116.833 138.306 121.75 150.513 121.75V120.75ZM104.716 106.473L105.176 105.584C93.9524 99.7793 81.7392 95.3038 68.8691 92.2658L68.6394 93.239L68.4097 94.2123C81.1284 97.2146 93.1863 101.635 104.257 107.361L104.716 106.473ZM68.6394 93.239L68.8643 92.2647C55.9418 89.2826 42.5778 87.7363 29.1031 87.7363V88.7363V89.7363C42.4252 89.7363 55.6384 91.2651 68.4146 94.2134L68.6394 93.239ZM29.1031 88.7363V87.7363H0V88.7363V89.7363H29.1031V88.7363ZM0 88.7363H-1V89.4501H0H1V88.7363H0ZM0 89.4501V90.4501H29.1031V89.4501V88.4501H0V89.4501ZM29.1031 89.4501V90.4501C55.8063 90.4501 81.6761 96.5121 103.929 107.966L104.387 107.077L104.845 106.188C82.2899 94.5786 56.1034 88.4501 29.1031 88.4501V89.4501ZM104.387 107.077L103.928 107.965C122.487 117.548 138.196 122.464 150.513 122.464V121.464V120.464C138.668 120.464 123.297 115.715 104.846 106.188L104.387 107.077Z" fill="#08595E" mask="url(#path-1-inside-1_2080_10)"/>
<mask id="path-3-inside-2_2080_10" fill="white">
<path d="M150.512 109.987C162.209 109.987 177.199 105.375 195.155 96.3144C216.846 85.3321 242.05 79.5115 268.023 79.5115H296.193V78.8525H268.023C255.064 78.8525 242.215 80.3352 229.805 83.1906C217.395 86.046 205.644 90.2741 194.881 95.7653C177.035 104.771 162.099 109.328 150.512 109.328C138.926 109.328 123.99 104.771 106.144 95.7653C95.3811 90.2741 83.6302 86.046 71.2202 83.1906C58.8101 80.3352 45.9608 78.8525 33.0017 78.8525H4.83203V79.5115H33.0017C58.9748 79.5115 84.1792 85.3321 105.869 96.3144C123.77 105.375 138.816 109.987 150.512 109.987Z"/>
</mask>
<path d="M150.512 109.987C162.209 109.987 177.199 105.375 195.155 96.3144C216.846 85.3321 242.05 79.5115 268.023 79.5115H296.193V78.8525H268.023C255.064 78.8525 242.215 80.3352 229.805 83.1906C217.395 86.046 205.644 90.2741 194.881 95.7653C177.035 104.771 162.099 109.328 150.512 109.328C138.926 109.328 123.99 104.771 106.144 95.7653C95.3811 90.2741 83.6302 86.046 71.2202 83.1906C58.8101 80.3352 45.9608 78.8525 33.0017 78.8525H4.83203V79.5115H33.0017C58.9748 79.5115 84.1792 85.3321 105.869 96.3144C123.77 105.375 138.816 109.987 150.512 109.987Z" fill="url(#paint1_linear_2080_10)"/>
<path d="M195.155 96.3144L195.606 97.2071L195.607 97.2065L195.155 96.3144ZM296.193 79.5115V80.5115H297.193V79.5115H296.193ZM296.193 78.8525H297.193V77.8525H296.193V78.8525ZM194.881 95.7652L195.331 96.658L195.335 96.656L194.881 95.7652ZM106.144 95.7652L105.689 96.656L105.693 96.658L106.144 95.7652ZM4.83203 78.8525V77.8525H3.83203V78.8525H4.83203ZM4.83203 79.5115H3.83203V80.5115H4.83203V79.5115ZM105.869 96.3144L105.418 97.2065L105.418 97.2066L105.869 96.3144ZM150.512 109.987V110.987C162.441 110.987 177.599 106.293 195.606 97.2071L195.155 96.3144L194.705 95.4216C176.8 104.456 161.976 108.987 150.512 108.987V109.987ZM195.155 96.3144L195.607 97.2065C217.148 86.2998 242.196 80.5115 268.023 80.5115V79.5115V78.5115C241.904 78.5115 216.543 84.3644 194.704 95.4222L195.155 96.3144ZM268.023 79.5115V80.5115H296.193V79.5115V78.5115H268.023V79.5115ZM296.193 79.5115H297.193V78.8525H296.193H295.193V79.5115H296.193ZM296.193 78.8525V77.8525H268.023V78.8525V79.8525H296.193V78.8525ZM268.023 78.8525V77.8525C254.988 77.8525 242.063 79.3438 229.58 82.216L229.805 83.1906L230.029 84.1651C242.366 81.3265 255.14 79.8525 268.023 79.8525V78.8525ZM229.805 83.1906L229.58 82.216C217.095 85.0888 205.266 89.344 194.426 94.8745L194.881 95.7652L195.335 96.656C206.021 91.2042 217.694 87.0032 230.029 84.1651L229.805 83.1906ZM194.881 95.7652L194.43 94.8725C176.637 103.851 161.867 108.328 150.512 108.328V109.328V110.328C162.33 110.328 177.432 105.69 195.331 96.658L194.881 95.7652ZM150.512 109.328V108.328C139.157 108.328 124.388 103.851 106.594 94.8725L106.144 95.7652L105.693 96.658C123.592 105.69 138.695 110.328 150.512 110.328V109.328ZM106.144 95.7652L106.598 94.8745C95.7586 89.344 83.9297 85.0888 71.4444 82.216L71.2202 83.1906L70.9959 84.1651C83.3306 87.0032 95.0037 91.2042 105.689 96.656L106.144 95.7652ZM71.2202 83.1906L71.4444 82.216C58.9614 79.3438 46.0368 77.8525 33.0017 77.8525V78.8525V79.8525C45.8848 79.8525 58.6589 81.3265 70.9959 84.1651L71.2202 83.1906ZM33.0017 78.8525V77.8525H4.83203V78.8525V79.8525H33.0017V78.8525ZM4.83203 78.8525H3.83203V79.5115H4.83203H5.83203V78.8525H4.83203ZM4.83203 79.5115V80.5115H33.0017V79.5115V78.5115H4.83203V79.5115ZM33.0017 79.5115V80.5115C58.8285 80.5115 83.8767 86.2998 105.418 97.2065L105.869 96.3144L106.321 95.4222C84.4817 84.3644 59.1211 78.5115 33.0017 78.5115V79.5115ZM105.869 96.3144L105.418 97.2066C123.372 106.294 138.584 110.987 150.512 110.987V109.987V108.987C139.048 108.987 124.169 104.456 106.321 95.4221L105.869 96.3144Z" fill="#08595E" mask="url(#path-3-inside-2_2080_10)"/>
<mask id="path-5-inside-3_2080_10" fill="white">
<path d="M150.512 98.5109C161.824 98.5109 176.321 94.1729 193.673 85.5518C214.649 75.1186 239.029 69.5726 264.124 69.5726H291.36V69.0234H264.124C238.92 69.0234 214.484 74.5695 193.398 85.0576C176.156 93.6238 161.714 97.9618 150.512 97.9618C139.31 97.9618 124.868 93.6238 107.626 85.0576C86.5402 74.5695 62.1046 69.0234 36.9002 69.0234H9.66406V69.5726H36.9002C61.9948 69.5726 86.3754 75.1186 107.352 85.5518C124.704 94.1729 139.2 98.5109 150.512 98.5109Z"/>
</mask>
<path d="M150.512 98.5109C161.824 98.5109 176.321 94.1729 193.673 85.5518C214.649 75.1186 239.029 69.5726 264.124 69.5726H291.36V69.0234H264.124C238.92 69.0234 214.484 74.5695 193.398 85.0576C176.156 93.6238 161.714 97.9618 150.512 97.9618C139.31 97.9618 124.868 93.6238 107.626 85.0576C86.5402 74.5695 62.1046 69.0234 36.9002 69.0234H9.66406V69.5726H36.9002C61.9948 69.5726 86.3754 75.1186 107.352 85.5518C124.704 94.1729 139.2 98.5109 150.512 98.5109Z" fill="url(#paint2_linear_2080_10)"/>
<path d="M193.673 85.5518L194.118 86.4474L194.118 86.4472L193.673 85.5518ZM291.36 69.5726V70.5726H292.36V69.5726H291.36ZM291.36 69.0234H292.36V68.0234H291.36V69.0234ZM193.398 85.0576L193.843 85.9531L193.843 85.9529L193.398 85.0576ZM107.626 85.0576L107.181 85.9529L107.181 85.9531L107.626 85.0576ZM9.66406 69.0234V68.0234H8.66406V69.0234H9.66406ZM9.66406 69.5726H8.66406V70.5726H9.66406V69.5726ZM107.352 85.5518L106.906 86.4472L106.907 86.4474L107.352 85.5518ZM150.512 98.5109V99.5109C162.051 99.5109 176.712 95.0953 194.118 86.4474L193.673 85.5518L193.228 84.6562C175.93 93.2506 161.597 97.5109 150.512 97.5109V98.5109ZM193.673 85.5518L194.118 86.4472C214.947 76.0873 239.173 70.5726 264.124 70.5726V69.5726V68.5726C238.885 68.5726 214.351 74.1499 193.227 84.6564L193.673 85.5518ZM264.124 69.5726V70.5726H291.36V69.5726V68.5726H264.124V69.5726ZM291.36 69.5726H292.36V69.0234H291.36H290.36V69.5726H291.36ZM291.36 69.0234V68.0234H264.124V69.0234V70.0234H291.36V69.0234ZM264.124 69.0234V68.0234C238.776 68.0234 214.187 73.6006 192.953 84.1622L193.398 85.0576L193.843 85.9529C214.782 75.5383 239.063 70.0234 264.124 70.0234V69.0234ZM193.398 85.0576L192.953 84.162C175.764 92.702 161.486 96.9618 150.512 96.9618V97.9618V98.9618C161.942 98.9618 176.548 94.5456 193.843 85.9531L193.398 85.0576ZM150.512 97.9618V96.9618C139.538 96.9618 125.261 92.702 108.071 84.162L107.626 85.0576L107.181 85.9531C124.476 94.5456 139.083 98.9618 150.512 98.9618V97.9618ZM107.626 85.0576L108.072 84.1622C86.8378 73.6006 62.2483 68.0234 36.9002 68.0234V69.0234V70.0234C61.9609 70.0234 86.2426 75.5383 107.181 85.9529L107.626 85.0576ZM36.9002 69.0234V68.0234H9.66406V69.0234V70.0234H36.9002V69.0234ZM9.66406 69.0234H8.66406V69.5726H9.66406H10.6641V69.0234H9.66406ZM9.66406 69.5726V70.5726H36.9002V69.5726V68.5726H9.66406V69.5726ZM36.9002 69.5726V70.5726C61.8508 70.5726 86.0776 76.0873 106.906 86.4472L107.352 85.5518L107.797 84.6564C86.6733 74.1499 62.1388 68.5726 36.9002 68.5726V69.5726ZM107.352 85.5518L106.907 86.4474C124.313 95.0953 138.973 99.5109 150.512 99.5109V98.5109V97.5109C139.427 97.5109 125.095 93.2506 107.797 84.6562L107.352 85.5518Z" fill="#08595E" mask="url(#path-5-inside-3_2080_10)"/>
<mask id="path-7-inside-4_2080_10" fill="white">
<path d="M150.512 87.0896C161.439 87.0896 175.442 82.9163 192.135 74.7894C212.452 64.8504 235.954 59.6339 260.225 59.6339H286.528V59.1396H260.225C235.899 59.1396 212.287 64.4111 191.915 74.3501C175.277 82.477 161.329 86.5954 150.512 86.5954C139.694 86.5954 125.747 82.477 109.054 74.3501C88.7365 64.4111 65.1245 59.1396 40.7987 59.1396H14.4961V59.6339H40.7987C65.0696 59.6339 88.5718 64.8504 108.834 74.7894C125.582 82.9163 139.585 87.0896 150.512 87.0896Z"/>
</mask>
<path d="M150.512 87.0896C161.439 87.0896 175.442 82.9163 192.135 74.7894C212.452 64.8504 235.954 59.6339 260.225 59.6339H286.528V59.1396H260.225C235.899 59.1396 212.287 64.4111 191.915 74.3501C175.277 82.477 161.329 86.5954 150.512 86.5954C139.694 86.5954 125.747 82.477 109.054 74.3501C88.7365 64.4111 65.1245 59.1396 40.7987 59.1396H14.4961V59.6339H40.7987C65.0696 59.6339 88.5718 64.8504 108.834 74.7894C125.582 82.9163 139.585 87.0896 150.512 87.0896Z" fill="url(#paint3_linear_2080_10)"/>
<path d="M192.135 74.7894L192.573 75.6885L192.574 75.6877L192.135 74.7894ZM286.528 59.6339V60.6339H287.528V59.6339H286.528ZM286.528 59.1396H287.528V58.1396H286.528V59.1396ZM191.915 74.3501L191.477 73.4514L191.476 73.4516L191.915 74.3501ZM109.054 74.3501L108.614 75.2484L108.616 75.2492L109.054 74.3501ZM14.4961 59.1396V58.1396H13.4961V59.1396H14.4961ZM14.4961 59.6339H13.4961V60.6339H14.4961V59.6339ZM108.834 74.7894L108.394 75.6873L108.398 75.6891L108.834 74.7894ZM150.512 87.0896V88.0896C161.664 88.0896 175.829 83.8402 192.573 75.6885L192.135 74.7894L191.697 73.8903C175.055 81.9925 161.215 86.0896 150.512 86.0896V87.0896ZM192.135 74.7894L192.574 75.6877C212.744 65.8207 236.095 60.6339 260.225 60.6339V59.6339V58.6339C235.814 58.6339 212.16 63.8802 191.695 73.8912L192.135 74.7894ZM260.225 59.6339V60.6339H286.528V59.6339V58.6339H260.225V59.6339ZM286.528 59.6339H287.528V59.1396H286.528H285.528V59.6339H286.528ZM286.528 59.1396V58.1396H260.225V59.1396V60.1396H286.528V59.1396ZM260.225 59.1396V58.1396C235.758 58.1396 211.995 63.4412 191.477 73.4514L191.915 74.3501L192.354 75.2489C212.58 65.381 236.041 60.1396 260.225 60.1396V59.1396ZM191.915 74.3501L191.476 73.4516C174.891 81.5526 161.106 85.5954 150.512 85.5954V86.5954V87.5954C161.553 87.5954 175.663 83.4014 192.354 75.2487L191.915 74.3501ZM150.512 86.5954V85.5954C139.918 85.5954 126.133 81.5526 109.491 73.451L109.054 74.3501L108.616 75.2492C125.361 83.4014 139.471 87.5954 150.512 87.5954V86.5954ZM109.054 74.3501L109.493 73.4518C89.0293 63.4411 65.2655 58.1396 40.7987 58.1396V59.1396V60.1396C64.9835 60.1396 88.4436 65.3811 108.614 75.2484L109.054 74.3501ZM40.7987 59.1396V58.1396H14.4961V59.1396V60.1396H40.7987V59.1396ZM14.4961 59.1396H13.4961V59.6339H14.4961H15.4961V59.1396H14.4961ZM14.4961 59.6339V60.6339H40.7987V59.6339V58.6339H14.4961V59.6339ZM40.7987 59.6339V60.6339C64.9295 60.6339 88.2793 65.8208 108.394 75.6872L108.834 74.7894L109.275 73.8916C88.8642 63.8801 65.2096 58.6339 40.7987 58.6339V59.6339ZM108.834 74.7894L108.398 75.6891C125.195 83.8402 139.36 88.0896 150.512 88.0896V87.0896V86.0896C139.809 86.0896 125.969 81.9925 109.271 73.8898L108.834 74.7894Z" fill="#08595E" mask="url(#path-7-inside-4_2080_10)"/>
<mask id="path-9-inside-5_2080_10" fill="white">
<path d="M150.512 75.6132C161.055 75.6132 174.563 71.7145 190.652 64.0269C210.201 54.637 232.934 49.695 256.326 49.695H281.695V49.3105H256.326C232.879 49.3105 210.091 54.2526 190.487 63.6424C174.398 71.2751 160.945 75.1739 150.512 75.1739C140.079 75.1739 126.625 71.2751 110.536 63.6424C90.9327 54.2526 68.1444 49.3105 44.6972 49.3105H19.3281V49.695H44.6972C68.0895 49.695 90.7679 54.637 110.371 64.0269C126.46 71.7145 139.969 75.6132 150.512 75.6132Z"/>
</mask>
<path d="M150.512 75.6132C161.055 75.6132 174.563 71.7145 190.652 64.0269C210.201 54.637 232.934 49.695 256.326 49.695H281.695V49.3105H256.326C232.879 49.3105 210.091 54.2526 190.487 63.6424C174.398 71.2751 160.945 75.1739 150.512 75.1739C140.079 75.1739 126.625 71.2751 110.536 63.6424C90.9327 54.2526 68.1444 49.3105 44.6972 49.3105H19.3281V49.695H44.6972C68.0895 49.695 90.7679 54.637 110.371 64.0269C126.46 71.7145 139.969 75.6132 150.512 75.6132Z" fill="url(#paint4_linear_2080_10)"/>
<path d="M190.652 64.0269L191.083 64.9292L191.085 64.9283L190.652 64.0269ZM281.695 49.695V50.695H282.695V49.695H281.695ZM281.695 49.3105H282.695V48.3105H281.695V49.3105ZM190.487 63.6424L190.916 64.5459L190.919 64.5443L190.487 63.6424ZM110.536 63.6424L110.104 64.5443L110.107 64.5459L110.536 63.6424ZM19.3281 49.3105V48.3105H18.3281V49.3105H19.3281ZM19.3281 49.695H18.3281V50.695H19.3281V49.695ZM110.371 64.0269L109.939 64.9287L109.94 64.9292L110.371 64.0269ZM150.512 75.6132V76.6132C161.273 76.6132 174.94 72.6425 191.083 64.9292L190.652 64.0269L190.221 63.1246C174.186 70.7865 160.836 74.6132 150.512 74.6132V75.6132ZM190.652 64.0269L191.085 64.9283C210.487 55.6087 233.071 50.695 256.326 50.695V49.695V48.695C232.797 48.695 209.914 53.6653 190.219 63.1255L190.652 64.0269ZM256.326 49.695V50.695H281.695V49.695V48.695H256.326V49.695ZM281.695 49.695H282.695V49.3105H281.695H280.695V49.695H281.695ZM281.695 49.3105V48.3105H256.326V49.3105V50.3105H281.695V49.3105ZM256.326 49.3105V48.3105C232.742 48.3105 209.805 53.2808 190.055 62.7406L190.487 63.6424L190.919 64.5443C210.377 55.2244 233.016 50.3105 256.326 50.3105V49.3105ZM190.487 63.6424L190.059 62.739C174.02 70.3477 160.726 74.1739 150.512 74.1739V75.1739V76.1739C161.164 76.1739 174.776 72.2026 190.916 64.5459L190.487 63.6424ZM150.512 75.1739V74.1739C140.297 74.1739 127.003 70.3477 110.965 62.739L110.536 63.6424L110.107 64.5459C126.247 72.2026 139.86 76.1739 150.512 76.1739V75.1739ZM110.536 63.6424L110.968 62.7406C91.2187 53.2808 68.2811 48.3105 44.6972 48.3105V49.3105V50.3105C68.0078 50.3105 90.6467 55.2244 110.104 64.5443L110.536 63.6424ZM44.6972 49.3105V48.3105H19.3281V49.3105V50.3105H44.6972V49.3105ZM19.3281 49.3105H18.3281V49.695H19.3281H20.3281V49.3105H19.3281ZM19.3281 49.695V50.695H44.6972V49.695V48.695H19.3281V49.695ZM44.6972 49.695V50.695C67.9519 50.695 90.4811 55.6084 109.939 64.9287L110.371 64.0269L110.803 63.125C91.0547 53.6656 68.2271 48.695 44.6972 48.695V49.695ZM110.371 64.0269L109.94 64.9292C126.083 72.6425 139.75 76.6132 150.512 76.6132V75.6132V74.6132C140.187 74.6132 126.838 70.7865 110.802 63.1246L110.371 64.0269Z" fill="#08595E" mask="url(#path-9-inside-5_2080_10)"/>
<mask id="path-11-inside-6_2080_10" fill="white">
<path d="M150.512 64.136C160.615 64.136 173.629 60.4569 189.169 53.2086C208.004 44.4227 229.914 39.8102 252.427 39.8102H276.863V39.4258H252.427C229.859 39.4258 207.894 44.0932 189.005 52.934C173.52 60.1274 160.56 63.8065 150.512 63.8065C140.408 63.8065 127.449 60.1274 112.019 52.934C93.129 44.0932 71.1644 39.4258 48.5958 39.4258H24.1602V39.8102H48.5958C71.1095 39.8102 93.0193 44.4227 111.854 53.2086C127.394 60.4569 140.353 64.136 150.512 64.136Z"/>
</mask>
<path d="M150.512 64.136C160.615 64.136 173.629 60.4569 189.169 53.2086C208.004 44.4227 229.914 39.8102 252.427 39.8102H276.863V39.4258H252.427C229.859 39.4258 207.894 44.0932 189.005 52.934C173.52 60.1274 160.56 63.8065 150.512 63.8065C140.408 63.8065 127.449 60.1274 112.019 52.934C93.129 44.0932 71.1644 39.4258 48.5958 39.4258H24.1602V39.8102H48.5958C71.1095 39.8102 93.0193 44.4227 111.854 53.2086C127.394 60.4569 140.353 64.136 150.512 64.136Z" fill="url(#paint5_linear_2080_10)"/>
<path d="M189.169 53.2086L189.592 54.1148L189.592 54.1148L189.169 53.2086ZM276.863 39.8102V40.8102H277.863V39.8102H276.863ZM276.863 39.4258H277.863V38.4258H276.863V39.4258ZM189.005 52.934L189.426 53.8409L189.429 53.8397L189.005 52.934ZM112.019 52.934L111.595 53.8397L111.596 53.8404L112.019 52.934ZM24.1602 39.4258V38.4258H23.1602V39.4258H24.1602ZM24.1602 39.8102H23.1602V40.8102H24.1602V39.8102ZM111.854 53.2086L111.431 54.1148L111.431 54.1148L111.854 53.2086ZM150.512 64.136V65.136C160.829 65.136 174 61.3876 189.592 54.1148L189.169 53.2086L188.747 52.3023C173.259 59.5262 160.401 63.136 150.512 63.136V64.136ZM189.169 53.2086L189.592 54.1148C208.282 45.3963 230.046 40.8102 252.427 40.8102V39.8102V38.8102C229.781 38.8102 207.725 43.4492 188.747 52.3023L189.169 53.2086ZM252.427 39.8102V40.8102H276.863V39.8102V38.8102H252.427V39.8102ZM276.863 39.8102H277.863V39.4258H276.863H275.863V39.8102H276.863ZM276.863 39.4258V38.4258H252.427V39.4258V40.4258H276.863V39.4258ZM252.427 39.4258V38.4258C229.725 38.4258 207.614 43.1203 188.581 52.0283L189.005 52.934L189.429 53.8397C208.174 45.0662 229.993 40.4258 252.427 40.4258V39.4258ZM189.005 52.934L188.583 52.0271C173.149 59.197 160.346 62.8065 150.512 62.8065V63.8065V64.8065C160.775 64.8065 173.89 61.0578 189.426 53.8409L189.005 52.934ZM150.512 63.8065V62.8065C140.622 62.8065 127.819 59.1968 112.441 52.0277L112.019 52.934L111.596 53.8404C127.078 61.058 140.194 64.8065 150.512 64.8065V63.8065ZM112.019 52.934L112.442 52.0283C93.4092 43.1203 71.2982 38.4258 48.5958 38.4258V39.4258V40.4258C71.0307 40.4258 92.8489 45.0662 111.595 53.8397L112.019 52.934ZM48.5958 39.4258V38.4258H24.1602V39.4258V40.4258H48.5958V39.4258ZM24.1602 39.4258H23.1602V39.8102H24.1602H25.1602V39.4258H24.1602ZM24.1602 39.8102V40.8102H48.5958V39.8102V38.8102H24.1602V39.8102ZM48.5958 39.8102V40.8102C70.9772 40.8102 92.7409 45.3963 111.431 54.1148L111.854 53.2086L112.277 52.3023C93.2978 43.4492 71.2419 38.8102 48.5958 38.8102V39.8102ZM111.854 53.2086L111.431 54.1148C127.023 61.3874 140.139 65.136 150.512 65.136V64.136V63.136C140.567 63.136 127.765 59.5264 112.277 52.3023L111.854 53.2086Z" fill="#08595E" mask="url(#path-11-inside-6_2080_10)"/>
<mask id="path-13-inside-7_2080_10" fill="white">
<path d="M150.511 52.7145C160.231 52.7145 172.751 49.255 187.687 42.446C205.807 34.2093 226.838 29.8712 248.529 29.8712H272.031V29.5967H248.529C226.784 29.5967 205.752 33.9347 187.577 42.2263C172.696 48.9805 160.231 52.385 150.511 52.385C140.792 52.385 128.327 48.9805 113.446 42.2263C95.2704 33.9347 74.1844 29.5967 52.4943 29.5967H28.9922V29.8712H52.4943C74.1844 29.8712 95.2155 34.2093 113.336 42.446C128.272 49.255 140.792 52.7145 150.511 52.7145Z"/>
</mask>
<path d="M150.511 52.7145C160.231 52.7145 172.751 49.255 187.687 42.446C205.807 34.2093 226.838 29.8712 248.529 29.8712H272.031V29.5967H248.529C226.784 29.5967 205.752 33.9347 187.577 42.2263C172.696 48.9805 160.231 52.385 150.511 52.385C140.792 52.385 128.327 48.9805 113.446 42.2263C95.2704 33.9347 74.1844 29.5967 52.4943 29.5967H28.9922V29.8712H52.4943C74.1844 29.8712 95.2155 34.2093 113.336 42.446C128.272 49.255 140.792 52.7145 150.511 52.7145Z" fill="url(#paint6_linear_2080_10)"/>
<path d="M187.687 42.446L187.273 41.5356L187.272 41.5361L187.687 42.446ZM272.031 29.8712V30.8712H273.031V29.8712H272.031ZM272.031 29.5967H273.031V28.5967H272.031V29.5967ZM187.577 42.2263L187.99 43.1369L187.992 43.1361L187.577 42.2263ZM113.446 42.2263L113.031 43.1361L113.033 43.1369L113.446 42.2263ZM28.9922 29.5967V28.5967H27.9922V29.5967H28.9922ZM28.9922 29.8712H27.9922V30.8712H28.9922V29.8712ZM113.336 42.446L113.751 41.5361L113.75 41.5356L113.336 42.446ZM150.511 52.7145V53.7145C160.44 53.7145 173.113 50.1888 188.101 43.3559L187.687 42.446L187.272 41.5361C172.388 48.3213 160.021 51.7145 150.511 51.7145V52.7145ZM187.687 42.446L188.1 43.3564C206.079 35.184 226.968 30.8712 248.529 30.8712V29.8712V28.8712C226.709 28.8712 205.535 33.2345 187.273 41.5356L187.687 42.446ZM248.529 29.8712V30.8712H272.031V29.8712V28.8712H248.529V29.8712ZM272.031 29.8712H273.031V29.5967H272.031H271.031V29.8712H272.031ZM272.031 29.5967V28.5967H248.529V29.5967V30.5967H272.031V29.5967ZM248.529 29.5967V28.5967C226.654 28.5967 205.48 32.96 187.162 41.3165L187.577 42.2263L187.992 43.1361C206.025 34.9094 226.913 30.5967 248.529 30.5967V29.5967ZM187.577 42.2263L187.163 41.3157C172.336 48.0453 160.024 51.385 150.511 51.385V52.385V53.385C160.438 53.385 173.055 49.9156 187.99 43.1369L187.577 42.2263ZM150.511 52.385V51.385C140.999 51.385 128.686 48.0453 113.859 41.3157L113.446 42.2263L113.033 43.1369C127.968 49.9156 140.585 53.385 150.511 53.385V52.385ZM113.446 42.2263L113.861 41.3165C95.543 32.9599 74.3136 28.5967 52.4943 28.5967V29.5967V30.5967C74.0552 30.5967 94.9979 34.9095 113.031 43.1361L113.446 42.2263ZM52.4943 29.5967V28.5967H28.9922V29.5967V30.5967H52.4943V29.5967ZM28.9922 29.5967H27.9922V29.8712H28.9922H29.9922V29.5967H28.9922ZM28.9922 29.8712V30.8712H52.4943V29.8712V28.8712H28.9922V29.8712ZM52.4943 29.8712V30.8712C74.055 30.8712 94.9434 35.184 112.923 43.3564L113.336 42.446L113.75 41.5356C95.4877 33.2345 74.3138 28.8712 52.4943 28.8712V29.8712ZM113.336 42.446L112.922 43.3559C127.91 50.1888 140.583 53.7145 150.511 53.7145V52.7145V51.7145C141.001 51.7145 128.635 48.3213 113.751 41.5361L113.336 42.446Z" fill="#08595E" mask="url(#path-13-inside-7_2080_10)"/>
<mask id="path-15-inside-8_2080_10" fill="white">
<path d="M150.511 41.2383C159.846 41.2383 171.872 38.0534 186.204 31.6836C203.611 23.996 223.818 19.9326 244.63 19.9326H267.198V19.7129H244.63C223.763 19.7129 203.556 23.7763 186.094 31.5189C171.817 37.8337 159.846 41.0186 150.511 41.0186C141.176 41.0186 129.206 37.8337 114.929 31.5189C97.4667 23.7763 77.2593 19.7129 56.3929 19.7129H33.8242V19.9326H56.3929C77.2044 19.9326 97.4118 23.996 114.819 31.6836C129.151 38.0534 141.176 41.2383 150.511 41.2383Z"/>
</mask>
<path d="M150.511 41.2383C159.846 41.2383 171.872 38.0534 186.204 31.6836C203.611 23.996 223.818 19.9326 244.63 19.9326H267.198V19.7129H244.63C223.763 19.7129 203.556 23.7763 186.094 31.5189C171.817 37.8337 159.846 41.0186 150.511 41.0186C141.176 41.0186 129.206 37.8337 114.929 31.5189C97.4667 23.7763 77.2593 19.7129 56.3929 19.7129H33.8242V19.9326H56.3929C77.2044 19.9326 97.4118 23.996 114.819 31.6836C129.151 38.0534 141.176 41.2383 150.511 41.2383Z" fill="url(#paint7_linear_2080_10)"/>
<path d="M186.204 31.6836L185.8 30.7689L185.798 30.7698L186.204 31.6836ZM267.198 19.9326V20.9326H268.198V19.9326H267.198ZM267.198 19.7129H268.198V18.7129H267.198V19.7129ZM186.094 31.5189L186.498 32.4334L186.499 32.433L186.094 31.5189ZM114.929 31.5189L114.523 32.433L114.524 32.4334L114.929 31.5189ZM33.8242 19.7129V18.7129H32.8242V19.7129H33.8242ZM33.8242 19.9326H32.8242V20.9326H33.8242V19.9326ZM114.819 31.6836L115.225 30.7698L115.223 30.7689L114.819 31.6836ZM150.511 41.2383V42.2383C160.048 42.2383 172.222 38.9919 186.61 32.5974L186.204 31.6836L185.798 30.7698C171.521 37.1149 159.644 40.2383 150.511 40.2383V41.2383ZM186.204 31.6836L186.608 32.5984C203.876 24.9721 223.944 20.9326 244.63 20.9326V19.9326V18.9326C223.692 18.9326 203.345 23.02 185.8 30.7689L186.204 31.6836ZM244.63 19.9326V20.9326H267.198V19.9326V18.9326H244.63V19.9326ZM267.198 19.9326H268.198V19.7129H267.198H266.198V19.9326H267.198ZM267.198 19.7129V18.7129H244.63V19.7129V20.7129H267.198V19.7129ZM244.63 19.7129V18.7129C223.637 18.7129 203.29 22.8003 185.689 30.6047L186.094 31.5189L186.499 32.433C203.822 24.7524 223.889 20.7129 244.63 20.7129V19.7129ZM186.094 31.5189L185.689 30.6043C171.466 36.8953 159.644 40.0186 150.511 40.0186V41.0186V42.0186C160.048 42.0186 172.167 38.7721 186.498 32.4334L186.094 31.5189ZM150.511 41.0186V40.0186C141.378 40.0186 129.556 36.8953 115.333 30.6043L114.929 31.5189L114.524 32.4334C128.855 38.7721 140.974 42.0186 150.511 42.0186V41.0186ZM114.929 31.5189L115.334 30.6047C97.7324 22.8003 77.3852 18.7129 56.3929 18.7129V19.7129V20.7129C77.1333 20.7129 97.2009 24.7524 114.523 32.433L114.929 31.5189ZM56.3929 19.7129V18.7129H33.8242V19.7129V20.7129H56.3929V19.7129ZM33.8242 19.7129H32.8242V19.9326H33.8242H34.8242V19.7129H33.8242ZM33.8242 19.9326V20.9326H56.3929V19.9326V18.9326H33.8242V19.9326ZM56.3929 19.9326V20.9326C77.0784 20.9326 97.1466 24.9721 114.415 32.5984L114.819 31.6836L115.223 30.7689C97.677 23.02 77.3303 18.9326 56.3929 18.9326V19.9326ZM114.819 31.6836L114.413 32.5974C128.8 38.9919 140.974 42.2383 150.511 42.2383V41.2383V40.2383C141.378 40.2383 129.501 37.1149 115.225 30.7698L114.819 31.6836Z" fill="#08595E" mask="url(#path-15-inside-8_2080_10)"/>
<mask id="path-17-inside-9_2080_10" fill="white">
<path d="M150.511 29.7617C159.462 29.7617 170.993 26.7965 184.721 20.921C201.414 13.7825 220.798 9.99359 240.731 9.99359H262.366V9.88379H240.731C220.743 9.88379 201.359 13.6177 184.666 20.8111C170.938 26.6867 159.462 29.6519 150.511 29.6519C141.56 29.6519 130.084 26.6867 116.356 20.8111C99.663 13.6177 80.2791 9.88379 60.2913 9.88379H38.6562V9.99359H60.2913C80.2242 9.99359 99.608 13.7825 116.301 20.921C130.029 26.7965 141.56 29.7617 150.511 29.7617Z"/>
</mask>
<path d="M150.511 29.7617C159.462 29.7617 170.993 26.7965 184.721 20.921C201.414 13.7825 220.798 9.99359 240.731 9.99359H262.366V9.88379H240.731C220.743 9.88379 201.359 13.6177 184.666 20.8111C170.938 26.6867 159.462 29.6519 150.511 29.6519C141.56 29.6519 130.084 26.6867 116.356 20.8111C99.663 13.6177 80.2791 9.88379 60.2913 9.88379H38.6562V9.99359H60.2913C80.2242 9.99359 99.608 13.7825 116.301 20.921C130.029 26.7965 141.56 29.7617 150.511 29.7617Z" fill="url(#paint8_linear_2080_10)"/>
<path d="M184.721 20.921L184.328 20.0015L184.327 20.0017L184.721 20.921ZM262.366 9.99359V10.9936H263.366V9.99359H262.366ZM262.366 9.88379H263.366V8.88379H262.366V9.88379ZM184.666 20.8111L185.059 21.7305L185.062 21.7295L184.666 20.8111ZM116.356 20.8111L115.96 21.7295L115.963 21.7305L116.356 20.8111ZM38.6562 9.88379V8.88379H37.6562V9.88379H38.6562ZM38.6562 9.99359H37.6562V10.9936H38.6562V9.99359ZM116.301 20.921L116.695 20.0017L116.694 20.0015L116.301 20.921ZM150.511 29.7617V30.7617C159.657 30.7617 171.333 27.7388 185.114 21.8403L184.721 20.921L184.327 20.0017C170.653 25.8543 159.266 28.7617 150.511 28.7617V29.7617ZM184.721 20.921L185.114 21.8405C201.672 14.7599 220.92 10.9936 240.731 10.9936V9.99359V8.99359C220.676 8.99359 201.156 12.805 184.328 20.0015L184.721 20.921ZM240.731 9.99359V10.9936H262.366V9.99359V8.99359H240.731V9.99359ZM262.366 9.99359H263.366V9.88379H262.366H261.366V9.99359H262.366ZM262.366 9.88379V8.88379H240.731V9.88379V10.8838H262.366V9.88379ZM240.731 9.88379V8.88379C220.623 8.88379 201.102 12.6395 184.27 19.8928L184.666 20.8111L185.062 21.7295C201.616 14.596 220.863 10.8838 240.731 10.8838V9.88379ZM184.666 20.8111L184.272 19.8918C170.597 25.7448 159.266 28.6519 150.511 28.6519V29.6519V30.6519C159.658 30.6519 171.279 27.6285 185.059 21.7305L184.666 20.8111ZM150.511 29.6519V28.6519C141.756 28.6519 130.425 25.7448 116.75 19.8918L116.356 20.8111L115.963 21.7305C129.743 27.6285 141.364 30.6519 150.511 30.6519V29.6519ZM116.356 20.8111L116.752 19.8928C99.9197 12.6395 80.3991 8.88379 60.2913 8.88379V9.88379V10.8838C80.1591 10.8838 99.4062 14.596 115.96 21.7295L116.356 20.8111ZM60.2913 9.88379V8.88379H38.6562V9.88379V10.8838H60.2913V9.88379ZM38.6562 9.88379H37.6562V9.99359H38.6562H39.6562V9.88379H38.6562ZM38.6562 9.99359V10.9936H60.2913V9.99359V8.99359H38.6562V9.99359ZM60.2913 9.99359V10.9936C80.102 10.9936 99.3504 14.7599 115.908 21.8405L116.301 20.921L116.694 20.0015C99.8656 12.805 80.3465 8.99359 60.2913 8.99359V9.99359ZM116.301 20.921L115.908 21.8403C129.689 27.7388 141.365 30.7617 150.511 30.7617V29.7617V28.7617C141.756 28.7617 130.369 25.8543 116.695 20.0017L116.301 20.921Z" fill="#08595E" mask="url(#path-17-inside-9_2080_10)"/>
<mask id="path-19-inside-10_2080_10" fill="white">
<path d="M150.511 18.3404C159.077 18.3404 170.059 15.5949 183.238 10.1586C199.217 3.56925 217.722 0.0548981 236.832 0.0548981H257.533V0H236.832C217.722 0 199.162 3.45937 183.183 10.1037C170.059 15.485 159.077 18.2306 150.511 18.2306C141.945 18.2306 130.962 15.485 117.838 10.1037C101.859 3.45937 83.2991 0 64.1899 0H43.4883V0.0548981H64.1899C83.2991 0.0548981 101.804 3.56925 117.783 10.1586C130.962 15.5949 141.945 18.3404 150.511 18.3404Z"/>
</mask>
<path d="M150.511 18.3404C159.077 18.3404 170.059 15.5949 183.238 10.1586C199.217 3.56925 217.722 0.0548981 236.832 0.0548981H257.533V0H236.832C217.722 0 199.162 3.45937 183.183 10.1037C170.059 15.485 159.077 18.2306 150.511 18.2306C141.945 18.2306 130.962 15.485 117.838 10.1037C101.859 3.45937 83.2991 0 64.1899 0H43.4883V0.0548981H64.1899C83.2991 0.0548981 101.804 3.56925 117.783 10.1586C130.962 15.5949 141.945 18.3404 150.511 18.3404Z" fill="url(#paint9_linear_2080_10)"/>
<path d="M183.238 10.1586L182.857 9.23415L182.857 9.2342L183.238 10.1586ZM257.533 0.0548981V1.0549H258.533V0.0548981H257.533ZM257.533 0H258.533V-1H257.533V0ZM183.183 10.1037L183.563 11.0289L183.567 11.027L183.183 10.1037ZM117.838 10.1037L117.454 11.027L117.459 11.0289L117.838 10.1037ZM43.4883 0V-1H42.4883V0H43.4883ZM43.4883 0.0548981H42.4883V1.0549H43.4883V0.0548981ZM117.783 10.1586L118.165 9.2342L118.165 9.23415L117.783 10.1586ZM150.511 18.3404V19.3404C159.267 19.3404 170.389 16.5404 183.619 11.0831L183.238 10.1586L182.857 9.2342C169.729 14.6493 158.887 17.3404 150.511 17.3404V18.3404ZM183.238 10.1586L183.619 11.0831C199.467 4.54809 217.841 1.0549 236.832 1.0549V0.0548981V-0.945102C217.604 -0.945102 198.968 2.59041 182.857 9.23415L183.238 10.1586ZM236.832 0.0548981V1.0549H257.533V0.0548981V-0.945102H236.832V0.0548981ZM257.533 0.0548981H258.533V0H257.533H256.533V0.0548981H257.533ZM257.533 0V-1H236.832V0V1H257.533V0ZM236.832 0V-1C217.607 -1 198.914 2.47966 182.799 9.18031L183.183 10.1037L183.567 11.027C199.411 4.43909 217.838 1 236.832 1V0ZM183.183 10.1037L182.804 9.17843C169.73 14.5391 158.888 17.2306 150.511 17.2306V18.2306V19.2306C159.266 19.2306 170.388 16.4309 183.563 11.0289L183.183 10.1037ZM150.511 18.2306V17.2306C142.134 17.2306 131.291 14.5391 118.218 9.17843L117.838 10.1037L117.459 11.0289C130.633 16.4309 141.756 19.2306 150.511 19.2306V18.2306ZM117.838 10.1037L118.222 9.18031C102.108 2.47966 83.415 -1 64.1899 -1V0V1C83.1832 1 101.611 4.43909 117.454 11.027L117.838 10.1037ZM64.1899 0V-1H43.4883V0V1H64.1899V0ZM43.4883 0H42.4883V0.0548981H43.4883H44.4883V0H43.4883ZM43.4883 0.0548981V1.0549H64.1899V0.0548981V-0.945102H43.4883V0.0548981ZM64.1899 0.0548981V1.0549C83.1807 1.0549 101.555 4.54809 117.402 11.0831L117.783 10.1586L118.165 9.23415C102.054 2.59041 83.4176 -0.945102 64.1899 -0.945102V0.0548981ZM117.783 10.1586L117.402 11.0831C130.632 16.5404 141.755 19.3404 150.511 19.3404V18.3404V17.3404C142.134 17.3404 131.292 14.6493 118.165 9.2342L117.783 10.1586Z" fill="#08595E" mask="url(#path-19-inside-10_2080_10)"/>
<mask id="path-21-inside-11_2080_10" fill="white">
<path d="M150.511 18.2852L150.127 121.08H150.841L150.511 18.2852Z"/>
</mask>
<path d="M150.511 18.2852L150.127 121.08H150.841L150.511 18.2852Z" fill="url(#paint10_linear_2080_10)"/>
<path d="M150.511 18.2852L151.511 18.282L149.511 18.2814L150.511 18.2852ZM150.127 121.08L149.127 121.076L149.123 122.08H150.127V121.08ZM150.841 121.08V122.08H151.844L151.841 121.076L150.841 121.08ZM150.511 18.2852L149.511 18.2814L149.127 121.076L150.127 121.08L151.127 121.083L151.511 18.2889L150.511 18.2852ZM150.127 121.08V122.08H150.841V121.08V120.08H150.127V121.08ZM150.841 121.08L151.841 121.076L151.511 18.282L150.511 18.2852L149.511 18.2884L149.841 121.083L150.841 121.08Z" fill="#08595E" mask="url(#path-21-inside-11_2080_10)"/>
<mask id="path-23-inside-12_2080_10" fill="white">
<path d="M156.004 17.9561L157.926 120.476H158.585L156.004 17.9561Z"/>
</mask>
<path d="M156.004 17.9561L157.926 120.476H158.585L156.004 17.9561Z" fill="url(#paint11_linear_2080_10)"/>
<path d="M156.004 17.9561L157.004 17.9309L155.004 17.9748L156.004 17.9561ZM157.926 120.476L156.926 120.495L156.944 121.476H157.926V120.476ZM158.585 120.476V121.476H159.61L159.584 120.451L158.585 120.476ZM156.004 17.9561L155.004 17.9748L156.926 120.495L157.926 120.476L158.926 120.457L157.004 17.9373L156.004 17.9561ZM157.926 120.476V121.476H158.585V120.476V119.476H157.926V120.476ZM158.585 120.476L159.584 120.451L157.004 17.9309L156.004 17.9561L155.004 17.9812L157.585 120.501L158.585 120.476Z" fill="#08595E" mask="url(#path-23-inside-12_2080_10)"/>
<mask id="path-25-inside-13_2080_10" fill="white">
<path d="M161.494 17.0771L165.722 118.938L166.271 118.883L161.494 17.0771Z"/>
</mask>
<path d="M161.494 17.0771L165.722 118.938L166.271 118.883L161.494 17.0771Z" fill="url(#paint12_linear_2080_10)"/>
<path d="M161.494 17.0771L162.493 17.0303L160.495 17.1186L161.494 17.0771ZM165.722 118.938L164.723 118.98L164.767 120.039L165.822 119.933L165.722 118.938ZM166.271 118.883L166.371 119.878L167.315 119.784L167.27 118.836L166.271 118.883ZM161.494 17.0771L160.495 17.1186L164.723 118.98L165.722 118.938L166.721 118.897L162.493 17.0357L161.494 17.0771ZM165.722 118.938L165.822 119.933L166.371 119.878L166.271 118.883L166.172 117.888L165.623 117.943L165.722 118.938ZM166.271 118.883L167.27 118.836L162.493 17.0303L161.494 17.0771L160.495 17.124L165.273 118.93L166.271 118.883Z" fill="#08595E" mask="url(#path-25-inside-13_2080_10)"/>
<mask id="path-27-inside-14_2080_10" fill="white">
<path d="M166.93 15.8145L173.409 116.632H173.904L166.93 15.8145Z"/>
</mask>
<path d="M166.93 15.8145L173.409 116.632H173.904L166.93 15.8145Z" fill="url(#paint13_linear_2080_10)"/>
<path d="M166.93 15.8145L167.927 15.7454L165.932 15.8786L166.93 15.8145ZM173.409 116.632L172.411 116.696L172.471 117.632H173.409V116.632ZM173.904 116.632V117.632H174.975L174.901 116.563L173.904 116.632ZM166.93 15.8145L165.932 15.8786L172.411 116.696L173.409 116.632L174.407 116.568L167.928 15.7503L166.93 15.8145ZM173.409 116.632V117.632H173.904V116.632V115.632H173.409V116.632ZM173.904 116.632L174.901 116.563L167.927 15.7454L166.93 15.8145L165.932 15.8835L172.906 116.701L173.904 116.632Z" fill="#08595E" mask="url(#path-27-inside-14_2080_10)"/>
<mask id="path-29-inside-15_2080_10" fill="white">
<path d="M175.057 13.2881L184.886 112.184L185.325 112.129L175.057 13.2881Z"/>
</mask>
<path d="M175.057 13.2881L184.886 112.184L185.325 112.129L175.057 13.2881Z" fill="url(#paint14_linear_2080_10)"/>
<path d="M175.057 13.2881L176.051 13.1848L174.062 13.387L175.057 13.2881ZM184.886 112.184L183.891 112.283L183.992 113.303L185.01 113.176L184.886 112.184ZM185.325 112.129L185.449 113.121L186.421 113L186.32 112.026L185.325 112.129ZM175.057 13.2881L174.062 13.387L183.891 112.283L184.886 112.184L185.881 112.085L176.052 13.1892L175.057 13.2881ZM184.886 112.184L185.01 113.176L185.449 113.121L185.325 112.129L185.201 111.137L184.762 111.191L184.886 112.184ZM185.325 112.129L186.32 112.026L176.051 13.1848L175.057 13.2881L174.062 13.3914L184.33 112.232L185.325 112.129Z" fill="#08595E" mask="url(#path-29-inside-15_2080_10)"/>
<mask id="path-31-inside-16_2080_10" fill="white">
<path d="M183.184 10.1035L196.307 106.803L196.637 106.748L183.184 10.1035Z"/>
</mask>
<path d="M183.184 10.1035L196.307 106.803L196.637 106.748L183.184 10.1035Z" fill="url(#paint15_linear_2080_10)"/>
<path d="M183.184 10.1035L184.174 9.96564L182.193 10.238L183.184 10.1035ZM196.307 106.803L195.316 106.937L195.455 107.959L196.472 107.789L196.307 106.803ZM196.637 106.748L196.801 107.734L197.762 107.574L197.627 106.61L196.637 106.748ZM183.184 10.1035L182.193 10.238L195.316 106.937L196.307 106.803L197.298 106.668L184.175 9.96903L183.184 10.1035ZM196.307 106.803L196.472 107.789L196.801 107.734L196.637 106.748L196.472 105.761L196.143 105.816L196.307 106.803ZM196.637 106.748L197.627 106.61L184.174 9.96564L183.184 10.1035L182.193 10.2414L195.646 106.886L196.637 106.748Z" fill="#08595E" mask="url(#path-31-inside-16_2080_10)"/>
<mask id="path-33-inside-17_2080_10" fill="white">
<path d="M196.143 5.60059L214.373 98.9502L214.648 98.8953L196.143 5.60059Z"/>
</mask>
<path d="M196.143 5.60059L214.373 98.9502L214.648 98.8953L196.143 5.60059Z" fill="url(#paint16_linear_2080_10)"/>
<path d="M196.143 5.60059L197.123 5.40602L195.161 5.79226L196.143 5.60059ZM214.373 98.9502L213.392 99.1419L213.584 100.128L214.569 99.9308L214.373 98.9502ZM214.648 98.8953L214.844 99.8759L215.823 99.6801L215.629 98.7007L214.648 98.8953ZM196.143 5.60059L195.161 5.79226L213.392 99.1419L214.373 98.9502L215.355 98.7585L197.124 5.40891L196.143 5.60059ZM214.373 98.9502L214.569 99.9308L214.844 99.8759L214.648 98.8953L214.452 97.9147L214.177 97.9696L214.373 98.9502ZM214.648 98.8953L215.629 98.7007L197.123 5.40602L196.143 5.60059L195.162 5.79515L213.667 99.0899L214.648 98.8953Z" fill="#08595E" mask="url(#path-33-inside-17_2080_10)"/>
<mask id="path-35-inside-18_2080_10" fill="white">
<path d="M209.377 2.52539L232.934 93.5138L233.154 93.4589L209.377 2.52539Z"/>
</mask>
<path d="M209.377 2.52539L232.934 93.5138L233.154 93.4589L209.377 2.52539Z" fill="url(#paint17_linear_2080_10)"/>
<path d="M209.377 2.52539L210.344 2.27242L208.409 2.77603L209.377 2.52539ZM232.934 93.5138L231.966 93.7644L232.215 94.7244L233.177 94.4839L232.934 93.5138ZM233.154 93.4589L233.396 94.429L234.377 94.1839L234.121 93.2059L233.154 93.4589ZM209.377 2.52539L208.409 2.77603L231.966 93.7644L232.934 93.5138L233.902 93.2631L210.345 2.27475L209.377 2.52539ZM232.934 93.5138L233.177 94.4839L233.396 94.429L233.154 93.4589L232.911 92.4887L232.692 92.5436L232.934 93.5138ZM233.154 93.4589L234.121 93.2059L210.344 2.27242L209.377 2.52539L208.409 2.77836L232.186 93.7118L233.154 93.4589Z" fill="#08595E" mask="url(#path-35-inside-18_2080_10)"/>
<mask id="path-37-inside-19_2080_10" fill="white">
<path d="M222.885 0.658203L252.043 90.2189L252.153 90.164L222.885 0.658203Z"/>
</mask>
<path d="M222.885 0.658203L252.043 90.2189L252.153 90.164L222.885 0.658203Z" fill="url(#paint18_linear_2080_10)"/>
<path d="M222.885 0.658203L223.835 0.347403L221.934 0.967776L222.885 0.658203ZM252.043 90.2189L251.092 90.5285L251.451 91.6321L252.489 91.1135L252.043 90.2189ZM252.153 90.164L252.599 91.0586L253.371 90.6732L253.103 89.8532L252.153 90.164ZM222.885 0.658203L221.934 0.967776L251.092 90.5285L252.043 90.2189L252.994 89.9093L223.836 0.34863L222.885 0.658203ZM252.043 90.2189L252.489 91.1135L252.599 91.0586L252.153 90.164L251.706 89.2693L251.596 89.3242L252.043 90.2189ZM252.153 90.164L253.103 89.8532L223.835 0.347403L222.885 0.658203L221.934 0.969003L251.202 90.4748L252.153 90.164Z" fill="#08595E" mask="url(#path-37-inside-19_2080_10)"/>
<mask id="path-39-inside-20_2080_10" fill="white">
<path d="M236.832 0.0546875L271.866 89.0663H271.921L236.832 0.0546875Z"/>
</mask>
<path d="M236.832 0.0546875L271.866 89.0663H271.921L236.832 0.0546875Z" fill="url(#paint19_linear_2080_10)"/>
<path d="M236.832 0.0546875L237.762 -0.312049L235.902 0.420926L236.832 0.0546875ZM271.866 89.0663L270.935 89.4325L271.185 90.0663H271.866V89.0663ZM271.921 89.0663V90.0663H273.39L272.851 88.6995L271.921 89.0663ZM236.832 0.0546875L235.902 0.420926L270.935 89.4325L271.866 89.0663L272.796 88.7L237.763 -0.311551L236.832 0.0546875ZM271.866 89.0663V90.0663H271.921V89.0663V88.0663H271.866V89.0663ZM271.921 89.0663L272.851 88.6995L237.762 -0.312049L236.832 0.0546875L235.902 0.421424L270.99 89.433L271.921 89.0663Z" fill="#08595E" mask="url(#path-39-inside-20_2080_10)"/>
<mask id="path-41-inside-21_2080_10" fill="white">
<path d="M301.025 89.0663L257.535 0.0546875L300.97 89.0663H301.025Z"/>
</mask>
<path d="M301.025 89.0663L257.535 0.0546875L300.97 89.0663H301.025Z" fill="url(#paint20_linear_2080_10)"/>
<path d="M301.025 89.0663V90.0663H302.627L301.924 88.6273L301.025 89.0663ZM257.535 0.0546875L258.434 -0.384305L256.636 0.493232L257.535 0.0546875ZM300.97 89.0663L300.072 89.5048L300.345 90.0663H300.97V89.0663ZM301.025 89.0663L301.924 88.6273L258.434 -0.384305L257.535 0.0546875L256.637 0.49368L300.127 89.5053L301.025 89.0663ZM257.535 0.0546875L256.636 0.493232L300.072 89.5048L300.97 89.0663L301.869 88.6277L258.434 -0.383857L257.535 0.0546875ZM300.97 89.0663V90.0663H301.025V89.0663V88.0663H300.97V89.0663Z" fill="#08595E" mask="url(#path-41-inside-21_2080_10)"/>
<mask id="path-43-inside-22_2080_10" fill="white">
<path d="M150.511 18.2852L150.127 121.08H150.841L150.511 18.2852Z"/>
</mask>
<path d="M150.511 18.2852L150.127 121.08H150.841L150.511 18.2852Z" fill="url(#paint21_linear_2080_10)"/>
<path d="M150.511 18.2852L151.511 18.282L149.511 18.2814L150.511 18.2852ZM150.127 121.08L149.127 121.076L149.123 122.08H150.127V121.08ZM150.841 121.08V122.08H151.844L151.841 121.076L150.841 121.08ZM150.511 18.2852L149.511 18.2814L149.127 121.076L150.127 121.08L151.127 121.083L151.511 18.2889L150.511 18.2852ZM150.127 121.08V122.08H150.841V121.08V120.08H150.127V121.08ZM150.841 121.08L151.841 121.076L151.511 18.282L150.511 18.2852L149.511 18.2884L149.841 121.083L150.841 121.08Z" fill="#08595E" mask="url(#path-43-inside-22_2080_10)"/>
<mask id="path-45-inside-23_2080_10" fill="white">
<path d="M145.02 17.9561L142.439 120.476H143.098L145.02 17.9561Z"/>
</mask>
<path d="M145.02 17.9561L142.439 120.476H143.098L145.02 17.9561Z" fill="url(#paint22_linear_2080_10)"/>
<path d="M145.02 17.9561L146.02 17.9748L144.021 17.9309L145.02 17.9561ZM142.439 120.476L141.44 120.451L141.414 121.476H142.439V120.476ZM143.098 120.476V121.476H144.08L144.098 120.495L143.098 120.476ZM145.02 17.9561L144.021 17.9309L141.44 120.451L142.439 120.476L143.439 120.501L146.02 17.9812L145.02 17.9561ZM142.439 120.476V121.476H143.098V120.476V119.476H142.439V120.476ZM143.098 120.476L144.098 120.495L146.02 17.9748L145.02 17.9561L144.02 17.9373L142.099 120.457L143.098 120.476Z" fill="#08595E" mask="url(#path-45-inside-23_2080_10)"/>
<mask id="path-47-inside-24_2080_10" fill="white">
<path d="M139.529 17.0771L134.752 118.883L135.301 118.938L139.529 17.0771Z"/>
</mask>
<path d="M139.529 17.0771L134.752 118.883L135.301 118.938L139.529 17.0771Z" fill="url(#paint23_linear_2080_10)"/>
<path d="M139.529 17.0771L140.528 17.1186L138.53 17.0303L139.529 17.0771ZM134.752 118.883L133.753 118.836L133.709 119.784L134.652 119.878L134.752 118.883ZM135.301 118.938L135.202 119.933L136.256 120.039L136.3 118.98L135.301 118.938ZM139.529 17.0771L138.53 17.0303L133.753 118.836L134.752 118.883L135.751 118.93L140.528 17.124L139.529 17.0771ZM134.752 118.883L134.652 119.878L135.202 119.933L135.301 118.938L135.401 117.943L134.851 117.888L134.752 118.883ZM135.301 118.938L136.3 118.98L140.528 17.1186L139.529 17.0771L138.53 17.0357L134.302 118.897L135.301 118.938Z" fill="#08595E" mask="url(#path-47-inside-24_2080_10)"/>
<mask id="path-49-inside-25_2080_10" fill="white">
<path d="M134.038 15.8145L127.119 116.632H127.613L134.038 15.8145Z"/>
</mask>
<path d="M134.038 15.8145L127.119 116.632H127.613L134.038 15.8145Z" fill="url(#paint24_linear_2080_10)"/>
<path d="M134.038 15.8145L135.036 15.878L133.04 15.746L134.038 15.8145ZM127.119 116.632L126.121 116.564L126.048 117.632H127.119V116.632ZM127.613 116.632V117.632H128.552L128.611 116.696L127.613 116.632ZM134.038 15.8145L133.04 15.746L126.121 116.564L127.119 116.632L128.117 116.7L135.036 15.8829L134.038 15.8145ZM127.119 116.632V117.632H127.613V116.632V115.632H127.119V116.632ZM127.613 116.632L128.611 116.696L135.036 15.878L134.038 15.8145L133.04 15.7509L126.615 116.568L127.613 116.632Z" fill="#08595E" mask="url(#path-49-inside-25_2080_10)"/>
<mask id="path-51-inside-26_2080_10" fill="white">
<path d="M125.911 13.2881L115.697 112.129L116.082 112.184L125.911 13.2881Z"/>
</mask>
<path d="M125.911 13.2881L115.697 112.129L116.082 112.184L125.911 13.2881Z" fill="url(#paint25_linear_2080_10)"/>
<path d="M125.911 13.2881L126.906 13.387L124.916 13.1853L125.911 13.2881ZM115.697 112.129L114.703 112.026L114.604 112.983L115.556 113.119L115.697 112.129ZM116.082 112.184L115.94 113.174L116.973 113.321L117.077 112.283L116.082 112.184ZM125.911 13.2881L124.916 13.1853L114.703 112.026L115.697 112.129L116.692 112.232L126.905 13.3909L125.911 13.2881ZM115.697 112.129L115.556 113.119L115.94 113.174L116.082 112.184L116.223 111.194L115.839 111.139L115.697 112.129ZM116.082 112.184L117.077 112.283L126.906 13.387L125.911 13.2881L124.916 13.1892L115.087 112.085L116.082 112.184Z" fill="#08595E" mask="url(#path-51-inside-26_2080_10)"/>
<mask id="path-53-inside-27_2080_10" fill="white">
<path d="M117.84 10.1035L104.387 106.748L104.716 106.803L117.84 10.1035Z"/>
</mask>
<path d="M117.84 10.1035L104.387 106.748L104.716 106.803L117.84 10.1035Z" fill="url(#paint26_linear_2080_10)"/>
<path d="M117.84 10.1035L118.831 10.238L116.85 9.96564L117.84 10.1035ZM104.387 106.748L103.396 106.61L103.262 107.574L104.222 107.734L104.387 106.748ZM104.716 106.803L104.552 107.789L105.569 107.959L105.707 106.937L104.716 106.803ZM117.84 10.1035L116.85 9.96564L103.396 106.61L104.387 106.748L105.377 106.886L118.83 10.2414L117.84 10.1035ZM104.387 106.748L104.222 107.734L104.552 107.789L104.716 106.803L104.881 105.816L104.551 105.761L104.387 106.748ZM104.716 106.803L105.707 106.937L118.831 10.238L117.84 10.1035L116.849 9.96903L103.725 106.668L104.716 106.803Z" fill="#08595E" mask="url(#path-53-inside-27_2080_10)"/>
<mask id="path-55-inside-28_2080_10" fill="white">
<path d="M104.88 5.60059L86.375 98.8953L86.6496 98.9502L104.88 5.60059Z"/>
</mask>
<path d="M104.88 5.60059L86.375 98.8953L86.6496 98.9502L104.88 5.60059Z" fill="url(#paint27_linear_2080_10)"/>
<path d="M104.88 5.60059L105.862 5.79226L103.899 5.40602L104.88 5.60059ZM86.375 98.8953L85.3941 98.7007L85.1998 99.6801L86.1789 99.8759L86.375 98.8953ZM86.6496 98.9502L86.4535 99.9308L87.4385 100.128L87.631 99.1419L86.6496 98.9502ZM104.88 5.60059L103.899 5.40602L85.3941 98.7007L86.375 98.8953L87.3559 99.0899L105.861 5.79515L104.88 5.60059ZM86.375 98.8953L86.1789 99.8759L86.4535 99.9308L86.6496 98.9502L86.8456 97.9696L86.5711 97.9147L86.375 98.8953ZM86.6496 98.9502L87.631 99.1419L105.862 5.79226L104.88 5.60059L103.899 5.40891L85.6681 98.7585L86.6496 98.9502Z" fill="#08595E" mask="url(#path-55-inside-28_2080_10)"/>
<mask id="path-57-inside-29_2080_10" fill="white">
<path d="M91.6459 2.52539L67.8691 93.4589L68.0887 93.5138L91.6459 2.52539Z"/>
</mask>
<path d="M91.6459 2.52539L67.8691 93.4589L68.0887 93.5138L91.6459 2.52539Z" fill="url(#paint28_linear_2080_10)"/>
<path d="M91.6459 2.52539L92.6139 2.77603L90.6784 2.27242L91.6459 2.52539ZM67.8691 93.4589L66.9017 93.2059L66.646 94.1839L67.6266 94.429L67.8691 93.4589ZM68.0887 93.5138L67.8462 94.4839L68.8083 94.7244L69.0568 93.7644L68.0887 93.5138ZM91.6459 2.52539L90.6784 2.27242L66.9017 93.2059L67.8691 93.4589L68.8366 93.7118L92.6133 2.77836L91.6459 2.52539ZM67.8691 93.4589L67.6266 94.429L67.8462 94.4839L68.0887 93.5138L68.3313 92.5436L68.1117 92.4887L67.8691 93.4589ZM68.0887 93.5138L69.0568 93.7644L92.6139 2.77603L91.6459 2.52539L90.6778 2.27475L67.1207 93.2631L68.0887 93.5138Z" fill="#08595E" mask="url(#path-57-inside-29_2080_10)"/>
<mask id="path-59-inside-30_2080_10" fill="white">
<path d="M78.1391 0.658203L48.8164 90.164L48.9812 90.2189L78.1391 0.658203Z"/>
</mask>
<path d="M78.1391 0.658203L48.8164 90.164L48.9812 90.2189L78.1391 0.658203Z" fill="url(#paint29_linear_2080_10)"/>
<path d="M78.1391 0.658203L79.09 0.967776L77.1888 0.346877L78.1391 0.658203ZM48.8164 90.164L47.8661 89.8527L47.5563 90.7982L48.5003 91.1127L48.8164 90.164ZM48.9812 90.2189L48.6651 91.1676L49.6203 91.4859L49.932 90.5285L48.9812 90.2189ZM78.1391 0.658203L77.1888 0.346877L47.8661 89.8527L48.8164 90.164L49.7667 90.4753L79.0894 0.969529L78.1391 0.658203ZM48.8164 90.164L48.5003 91.1127L48.6651 91.1676L48.9812 90.2189L49.2973 89.2702L49.1325 89.2153L48.8164 90.164ZM48.9812 90.2189L49.932 90.5285L79.09 0.967776L78.1391 0.658203L77.1882 0.34863L48.0303 89.9093L48.9812 90.2189Z" fill="#08595E" mask="url(#path-59-inside-30_2080_10)"/>
<mask id="path-61-inside-31_2080_10" fill="white">
<path d="M64.1901 0.0546875L29.1016 89.0663H29.1565L64.1901 0.0546875Z"/>
</mask>
<path d="M64.1901 0.0546875L29.1016 89.0663H29.1565L64.1901 0.0546875Z" fill="url(#paint30_linear_2080_10)"/>
<path d="M64.1901 0.0546875L65.1206 0.420926L63.2598 -0.312049L64.1901 0.0546875ZM29.1016 89.0663L28.1712 88.6995L27.6325 90.0663H29.1016V89.0663ZM29.1565 89.0663V90.0663H29.8376L30.087 89.4325L29.1565 89.0663ZM64.1901 0.0546875L63.2598 -0.312049L28.1712 88.6995L29.1016 89.0663L30.0319 89.433L65.1204 0.421424L64.1901 0.0546875ZM29.1016 89.0663V90.0663H29.1565V89.0663V88.0663H29.1016V89.0663ZM29.1565 89.0663L30.087 89.4325L65.1206 0.420926L64.1901 0.0546875L63.2596 -0.311551L28.226 88.7L29.1565 89.0663Z" fill="#08595E" mask="url(#path-61-inside-31_2080_10)"/>
<mask id="path-63-inside-32_2080_10" fill="white">
<path d="M0.0549652 89.0663L43.49 0.0546875L0 89.0663H0.0549652Z"/>
</mask>
<path d="M0.0549652 89.0663L43.49 0.0546875L0 89.0663H0.0549652Z" fill="url(#paint31_linear_2080_10)"/>
<path d="M0.0549652 89.0663V90.0663H0.679701L0.953675 89.5048L0.0549652 89.0663ZM43.49 0.0546875L44.3887 0.493232L42.5915 -0.384305L43.49 0.0546875ZM0 89.0663L-0.898491 88.6273L-1.60157 90.0663H0V89.0663ZM0.0549652 89.0663L0.953675 89.5048L44.3887 0.493232L43.49 0.0546875L42.5913 -0.383857L-0.843744 88.6277L0.0549652 89.0663ZM43.49 0.0546875L42.5915 -0.384305L-0.898491 88.6273L0 89.0663L0.898491 89.5053L44.3885 0.49368L43.49 0.0546875ZM0 89.0663V90.0663H0.0549652V89.0663V88.0663H0V89.0663Z" fill="#08595E" mask="url(#path-63-inside-32_2080_10)"/>
<defs>
<linearGradient id="paint0_linear_2080_10" x1="1.04743e+06" y1="48447.4" x2="1.21244e+06" y2="48447.4" gradientUnits="userSpaceOnUse">
<stop stop-color="#5EDDC9"/>
<stop offset="1" stop-color="#00B1FB"/>
</linearGradient>
<linearGradient id="paint1_linear_2080_10" x1="1.01639e+06" y1="45513.3" x2="1.17098e+06" y2="45513.3" gradientUnits="userSpaceOnUse">
<stop stop-color="#5EDDC9"/>
<stop offset="1" stop-color="#00B1FB"/>
</linearGradient>
<linearGradient id="paint2_linear_2080_10" x1="985186" y1="42639" x2="1.12969e+06" y2="42639" gradientUnits="userSpaceOnUse">
<stop stop-color="#5EDDC9"/>
<stop offset="1" stop-color="#00B1FB"/>
</linearGradient>
<linearGradient id="paint3_linear_2080_10" x1="953810" y1="39820" x2="1.08857e+06" y2="39820" gradientUnits="userSpaceOnUse">
<stop stop-color="#5EDDC9"/>
<stop offset="1" stop-color="#00B1FB"/>
</linearGradient>
<linearGradient id="paint4_linear_2080_10" x1="922262" y1="37061.2" x2="1.04762e+06" y2="37061.2" gradientUnits="userSpaceOnUse">
<stop stop-color="#5EDDC9"/>
<stop offset="1" stop-color="#00B1FB"/>
</linearGradient>
<linearGradient id="paint5_linear_2080_10" x1="890547" y1="34356.4" x2="1.00684e+06" y2="34356.4" gradientUnits="userSpaceOnUse">
<stop stop-color="#5EDDC9"/>
<stop offset="1" stop-color="#00B1FB"/>
</linearGradient>
<linearGradient id="paint6_linear_2080_10" x1="858661" y1="31712.4" x2="966237" y2="31712.4" gradientUnits="userSpaceOnUse">
<stop stop-color="#5EDDC9"/>
<stop offset="1" stop-color="#00B1FB"/>
</linearGradient>
<linearGradient id="paint7_linear_2080_10" x1="826604" y1="29122.6" x2="925797" y2="29122.6" gradientUnits="userSpaceOnUse">
<stop stop-color="#5EDDC9"/>
<stop offset="1" stop-color="#00B1FB"/>
</linearGradient>
<linearGradient id="paint8_linear_2080_10" x1="794378" y1="26593.1" x2="885529" y2="26593.1" gradientUnits="userSpaceOnUse">
<stop stop-color="#5EDDC9"/>
<stop offset="1" stop-color="#00B1FB"/>
</linearGradient>
<linearGradient id="paint9_linear_2080_10" x1="761982" y1="24119.1" x2="845431" y2="24119.1" gradientUnits="userSpaceOnUse">
<stop stop-color="#5EDDC9"/>
<stop offset="1" stop-color="#00B1FB"/>
</linearGradient>
<linearGradient id="paint10_linear_2080_10" x1="2825.42" y1="138762" x2="2826.35" y2="138762" gradientUnits="userSpaceOnUse">
<stop stop-color="#5EDDC9"/>
<stop offset="1" stop-color="#00B1FB"/>
</linearGradient>
<linearGradient id="paint11_linear_2080_10" x1="9859.85" y1="138352" x2="9871.96" y2="138352" gradientUnits="userSpaceOnUse">
<stop stop-color="#5EDDC9"/>
<stop offset="1" stop-color="#00B1FB"/>
</linearGradient>
<linearGradient id="paint12_linear_2080_10" x1="18261.4" y1="137269" x2="18303.1" y2="137269" gradientUnits="userSpaceOnUse">
<stop stop-color="#5EDDC9"/>
<stop offset="1" stop-color="#00B1FB"/>
</linearGradient>
<linearGradient id="paint13_linear_2080_10" x1="26511.8" y1="135679" x2="26600.2" y2="135679" gradientUnits="userSpaceOnUse">
<stop stop-color="#5EDDC9"/>
<stop offset="1" stop-color="#00B1FB"/>
</linearGradient>
<linearGradient id="paint14_linear_2080_10" x1="39125.4" y1="132624" x2="39317.2" y2="132624" gradientUnits="userSpaceOnUse">
<stop stop-color="#5EDDC9"/>
<stop offset="1" stop-color="#00B1FB"/>
</linearGradient>
<linearGradient id="paint15_linear_2080_10" x1="51470.7" y1="129036" x2="51800.2" y2="129036" gradientUnits="userSpaceOnUse">
<stop stop-color="#5EDDC9"/>
<stop offset="1" stop-color="#00B1FB"/>
</linearGradient>
<linearGradient id="paint16_linear_2080_10" x1="71238.1" y1="123819" x2="71862" y2="123819" gradientUnits="userSpaceOnUse">
<stop stop-color="#5EDDC9"/>
<stop offset="1" stop-color="#00B1FB"/>
</linearGradient>
<linearGradient id="paint17_linear_2080_10" x1="92011.8" y1="120198" x2="93041.3" y2="120198" gradientUnits="userSpaceOnUse">
<stop stop-color="#5EDDC9"/>
<stop offset="1" stop-color="#00B1FB"/>
</linearGradient>
<linearGradient id="paint18_linear_2080_10" x1="113986" y1="118000" x2="115547" y2="118000" gradientUnits="userSpaceOnUse">
<stop stop-color="#5EDDC9"/>
<stop offset="1" stop-color="#00B1FB"/>
</linearGradient>
<linearGradient id="paint19_linear_2080_10" x1="137454" y1="117238" x2="139696" y2="117238" gradientUnits="userSpaceOnUse">
<stop stop-color="#5EDDC9"/>
<stop offset="1" stop-color="#00B1FB"/>
</linearGradient>
<linearGradient id="paint20_linear_2080_10" x1="171926" y1="117231" x2="175369" y2="117231" gradientUnits="userSpaceOnUse">
<stop stop-color="#5EDDC9"/>
<stop offset="1" stop-color="#00B1FB"/>
</linearGradient>
<linearGradient id="paint21_linear_2080_10" x1="2825.42" y1="138762" x2="2826.35" y2="138762" gradientUnits="userSpaceOnUse">
<stop stop-color="#5EDDC9"/>
<stop offset="1" stop-color="#00B1FB"/>
</linearGradient>
<linearGradient id="paint22_linear_2080_10" x1="9782.62" y1="138352" x2="9794.74" y2="138352" gradientUnits="userSpaceOnUse">
<stop stop-color="#5EDDC9"/>
<stop offset="1" stop-color="#00B1FB"/>
</linearGradient>
<linearGradient id="paint23_linear_2080_10" x1="18001.1" y1="137269" x2="18042.8" y2="137269" gradientUnits="userSpaceOnUse">
<stop stop-color="#5EDDC9"/>
<stop offset="1" stop-color="#00B1FB"/>
</linearGradient>
<linearGradient id="paint24_linear_2080_10" x1="25964.9" y1="135679" x2="26052.6" y2="135679" gradientUnits="userSpaceOnUse">
<stop stop-color="#5EDDC9"/>
<stop offset="1" stop-color="#00B1FB"/>
</linearGradient>
<linearGradient id="paint25_linear_2080_10" x1="37957.4" y1="132624" x2="38148.2" y2="132624" gradientUnits="userSpaceOnUse">
<stop stop-color="#5EDDC9"/>
<stop offset="1" stop-color="#00B1FB"/>
</linearGradient>
<linearGradient id="paint26_linear_2080_10" x1="49462" y1="129036" x2="49791.5" y2="129036" gradientUnits="userSpaceOnUse">
<stop stop-color="#5EDDC9"/>
<stop offset="1" stop-color="#00B1FB"/>
</linearGradient>
<linearGradient id="paint27_linear_2080_10" x1="67427.3" y1="123819" x2="68051.2" y2="123819" gradientUnits="userSpaceOnUse">
<stop stop-color="#5EDDC9"/>
<stop offset="1" stop-color="#00B1FB"/>
</linearGradient>
<linearGradient id="paint28_linear_2080_10" x1="85743.3" y1="120198" x2="86772.8" y2="120198" gradientUnits="userSpaceOnUse">
<stop stop-color="#5EDDC9"/>
<stop offset="1" stop-color="#00B1FB"/>
</linearGradient>
<linearGradient id="paint29_linear_2080_10" x1="104531" y1="118000" x2="106094" y2="118000" gradientUnits="userSpaceOnUse">
<stop stop-color="#5EDDC9"/>
<stop offset="1" stop-color="#00B1FB"/>
</linearGradient>
<linearGradient id="paint30_linear_2080_10" x1="123974" y1="117238" x2="126216" y2="117238" gradientUnits="userSpaceOnUse">
<stop stop-color="#5EDDC9"/>
<stop offset="1" stop-color="#00B1FB"/>
</linearGradient>
<linearGradient id="paint31_linear_2080_10" x1="151280" y1="117231" x2="154723" y2="117231" gradientUnits="userSpaceOnUse">
<stop stop-color="#5EDDC9"/>
<stop offset="1" stop-color="#00B1FB"/>
</linearGradient>
</defs>
</svg>
