<svg width="180" height="170" viewBox="0 0 180 170" fill="none" xmlns="http://www.w3.org/2000/svg">
<path d="M167 85.6702C167 125.716 132.552 158.161 90.0328 158.161C47.5139 158.161 13 125.716 13 85.6702C13 45.6243 47.5139 13.1797 90.0328 13.1797C132.552 13.1797 167 45.6243 167 85.6702Z" fill="url(#paint0_radial_2071_2)" fill-opacity="0.2"/>
<path fill-rule="evenodd" clip-rule="evenodd" d="M65.0221 144.98V144.919C46.3959 112.412 42.4469 58.9718 56.2026 25.7874H56.2684V25.7258C59.0986 25.5411 61.9287 25.418 64.8246 25.418C85.2279 25.418 107.211 30.8359 126.627 40.5634C146.174 50.414 161.575 63.9587 170 78.6115V78.673C163.287 94.7419 148.741 110.503 128.93 123.001C109.119 135.499 86.4126 143.318 65.0879 144.98H65.0221ZM56.3343 25.9105C42.6444 59.0333 46.5275 112.288 65.0879 144.796C109.119 141.409 156.047 111.734 169.803 78.673C152.493 48.3823 107.342 25.6027 64.8246 25.6027C61.9945 25.6027 59.0986 25.6643 56.3343 25.9105Z" fill="#08595E"/>
<path d="M108.869 133.683C99.5872 117.603 74.0287 105.919 52 107.606V107.485C74.094 105.799 99.7179 117.483 109 133.563L108.869 133.683Z" fill="#08595E"/>
<path d="M145.869 110.148C129.842 82.0101 85.9651 61.5238 48 64.424V64.3006C66.3914 62.8813 86.7533 66.8304 105.21 75.4692C123.733 84.108 138.249 96.3874 146 110.024L145.869 110.148Z" fill="#08595E"/>
<path d="M65.1315 144.981L65 144.858C93.6038 125.607 128.06 82.9846 141.803 49.8955L142 49.9571C128.257 83.0461 93.7353 125.668 65.1315 144.981Z" fill="#08595E"/>
<path d="M65.1307 144.98L65 144.919C71.1416 115.181 87.2142 64.1223 100.869 31.0664L101 31.1278C87.3448 64.1836 71.2722 115.242 65.1307 144.98Z" fill="#08595E"/>
<path fill-rule="evenodd" clip-rule="evenodd" d="M56.7775 145.922C46.5159 145.922 37.3725 144.308 29.6105 141.144C22.0458 138.103 16.1256 133.698 12.0473 128.051C8.56096 123.211 6.52179 117.626 6.12711 111.421C5.66665 105.03 6.91647 98.2043 9.81078 91.1304C1.52253 76.4863 0.798951 61.9042 7.64005 49.9903C11.5868 43.2268 17.7044 37.6422 25.861 33.4227C34.2809 29.017 44.4767 26.3487 56.054 25.418H56.1855V25.5422C42.4375 58.9258 46.3843 112.724 64.9342 145.487L65 145.549L64.8684 145.611C62.1057 145.798 59.4087 145.922 56.7775 145.922ZM55.9882 25.6042C33.2941 27.4036 15.731 36.2771 7.83739 50.0525C0.930512 61.9663 1.71986 76.4862 10.0081 91.0683V91.1304C4.28527 105.03 5.07463 118.123 12.1788 127.989C20.5329 139.406 36.3858 145.736 56.7775 145.736C59.3429 145.736 62.0399 145.674 64.7369 145.425C46.187 112.662 42.306 58.9878 55.9882 25.6042Z" fill="#08595E"/>
<path d="M28.4958 140.273C24.2584 132.944 23.8611 125.615 27.3702 119.58C31.409 112.682 40.4134 108.185 52 107.323V107.446C40.4796 108.309 31.5414 112.805 27.5026 119.703C24.0598 125.615 24.457 132.883 28.6282 140.212L28.4958 140.273Z" fill="#08595E"/>
<path d="M8.8017 120.504C1.7628 107.958 1.11702 95.3506 6.92896 85.0917C10.287 79.2824 15.4531 74.462 22.3629 70.8157C29.531 67.1076 38.1843 64.7592 48 64.0176V64.1412C28.756 65.6862 13.8387 73.3496 7.12269 85.2154C1.31075 95.4126 1.95653 107.896 8.93086 120.442L8.8017 120.504Z" fill="#08595E"/>
<path d="M64.8685 144.981C46.3259 132.204 31.4656 113.872 23.1149 93.4408C14.6984 72.9482 13.7121 52.826 20.3532 36.7158L20.5504 36.7775C13.9093 52.8876 14.8299 72.9481 23.2463 93.379C31.6628 113.81 46.4574 132.08 65 144.858L64.8685 144.981Z" fill="#08595E"/>
<path d="M64.9349 144.98C51.465 141.101 39.4918 135.189 29.2754 127.492C19.5797 120.165 11.9012 111.298 7.02079 101.938C3.57197 95.1648 1.55475 88.2067 1.09924 81.2486C0.643738 74.1057 1.74995 67.0244 4.54805 60.251L4.67821 60.3126C-0.787848 73.6747 0.0580848 88.0219 7.21601 101.815C17.3022 121.458 38.3855 137.16 65 144.795L64.9349 144.98Z" fill="#08595E"/>
<path fill-rule="evenodd" clip-rule="evenodd" d="M95.8767 169.458C84.8519 169.458 73.893 160.919 64.9807 145.438C62.274 145.623 59.5673 145.746 56.9266 145.746C46.628 145.746 37.4516 144.148 29.6616 141.015C22.0696 138.005 16.1281 133.644 12.035 128.054C8.53611 123.262 6.48958 117.733 6.09347 111.59C5.63135 105.263 6.88568 98.5057 9.79044 91.4412L9.85645 91.3184L9.98848 91.4412C27.351 121.665 72.5727 144.455 115.286 144.455C118.19 144.455 121.029 144.333 123.868 144.148H124L123.934 144.271C120.501 152.441 116.276 158.83 111.325 163.13C106.571 167.307 101.356 169.458 95.8767 169.458ZM65.0467 145.254L65.1128 145.315C74.0251 160.796 84.9179 169.335 95.8767 169.335C101.29 169.335 106.505 167.185 111.193 163.007C116.144 158.707 120.303 152.441 123.736 144.271C120.963 144.517 118.124 144.64 115.286 144.64C94.8204 144.64 72.8368 139.234 53.2957 129.467C33.7546 119.699 18.3727 106.246 9.92247 91.687C4.245 105.386 5.0372 118.286 12.167 127.992C20.5512 139.357 36.4613 145.561 56.9266 145.561C59.5673 145.561 62.274 145.5 65.0467 145.254Z" fill="#08595E"/>
<path d="M80.7511 167.575C59.703 167.575 36.6938 155.955 28 140.336L28.1307 140.273C37.4128 156.892 62.9713 169.012 85 167.263V167.45C83.6055 167.533 82.1892 167.575 80.7511 167.575Z" fill="#08595E"/>
<path d="M98.6535 166.633C82.4652 166.633 65.2366 162.625 49.3083 155.162C31.0395 146.528 16.6716 134.256 9 120.565L9.13002 120.503C24.9933 148.625 68.4223 169.1 105.935 166.202L106 166.325C103.573 166.53 101.124 166.633 98.6535 166.633Z" fill="#08595E"/>
<path d="M42.0742 155.336C39.6297 155.336 37.6476 154.717 36.062 153.604C33.155 151.5 31.7675 147.602 32.0318 142.034C32.23 136.28 34.146 129.041 37.7137 120.503L37.8458 120.565C34.2781 129.103 32.4282 136.342 32.1639 142.034C31.9657 147.54 33.2871 151.376 36.128 153.48C41.4796 157.316 51.6542 154.532 64.8679 145.622L65 145.746C55.6183 152.057 47.7561 155.336 42.0742 155.336Z" fill="#08595E"/>
<path d="M64.3763 165.692C64.29 165.692 64.2038 165.672 64.1175 165.632C61.788 165.029 63.5351 154.231 65.4116 145.304L65.541 145.364C61.9821 162.254 63.1469 165.27 64.1822 165.511C64.8939 165.692 66.3822 164.787 69.4881 159.359C72.0764 154.834 75.1823 148.079 78.8706 139.332L79 139.392C71.947 156.403 66.7704 165.692 64.3763 165.692Z" fill="#08595E"/>
<path fill-rule="evenodd" clip-rule="evenodd" d="M95.9072 169.458C84.9019 169.458 73.9624 160.918 65.0659 145.374L65 145.251H65.1318C109.219 141.872 156.272 112.258 169.979 79.2029L170.045 79.0801L170.177 79.2029C178.48 93.7027 179.205 108.202 172.351 119.999C168.397 126.696 162.269 132.225 154.097 136.403C145.662 140.765 135.513 143.407 123.915 144.268C120.488 152.439 116.27 158.829 111.328 163.13C106.583 167.307 101.377 169.458 95.9072 169.458ZM65.2636 145.374C74.0942 160.795 84.9678 169.335 95.9072 169.335C101.311 169.335 106.517 167.185 111.196 163.007C116.139 158.706 120.356 152.378 123.783 144.206V144.145H123.849C146.584 142.424 164.18 133.577 172.22 119.938C179.073 108.203 178.282 93.8255 170.111 79.4486C163.389 95.423 148.825 111.09 129.055 123.501C109.219 135.973 86.6153 143.776 65.2636 145.374Z" fill="#08595E"/>
<path d="M85 166.634V166.449C96.5204 165.589 105.459 161.163 109.497 154.277C112.94 148.314 112.543 141.06 108.372 133.807L108.504 133.684C112.742 140.999 113.139 148.376 109.63 154.339C105.591 161.286 96.5866 165.712 85 166.634Z" fill="#08595E"/>
<path d="M106.066 166.634L106 166.51C125.714 164.967 140.945 157.312 147.802 145.459C153.736 135.273 153.076 122.741 145.955 110.271L146.087 110.147C153.274 122.741 153.933 135.335 147.933 145.583C144.571 151.386 139.23 156.201 132.175 159.843C124.857 163.547 116.088 165.893 106.066 166.634Z" fill="#08595E"/>
<path d="M113.375 161.927C108.4 161.927 103.228 161.308 97.9916 160.134C86.798 157.599 75.6699 152.59 65 145.109L65.1309 144.985C86.2089 159.701 109.251 165.08 128.299 159.824C142.635 155.929 153.174 146.531 158.804 132.742L159 132.804C156.12 139.729 151.93 145.665 146.628 150.302C141.457 154.816 135.304 158.093 128.365 160.01C123.652 161.247 118.611 161.927 113.375 161.927Z" fill="#08595E"/>
<path d="M99.3462 150.629C87.9632 150.629 76.3171 148.995 65 145.726L65.0658 145.538C88.029 152.201 112.177 152.138 133.1 145.224C154.024 138.372 169.223 125.612 175.868 109.206L176 109.269C172.644 117.566 167.117 124.983 159.551 131.206C152.247 137.303 143.365 142.081 133.166 145.412C122.507 148.869 111.058 150.629 99.3462 150.629Z" fill="#08595E"/>
<path fill-rule="evenodd" clip-rule="evenodd" d="M170.099 79.0806L169.967 78.8941C152.601 48.3684 107.371 25.3033 64.6499 25.3033C61.7446 25.3033 58.9053 25.3655 56.1321 25.6141H56V25.4898C59.4335 17.2212 63.6594 10.7555 68.6116 6.40357C73.3658 2.11382 78.5821 0 84.0625 0C95.0895 0 106.05 8.64173 114.964 24.3087C117.672 24.1221 120.379 23.9978 123.02 23.9978C133.321 23.9978 142.499 25.6142 150.29 28.7849C157.884 31.8312 163.826 36.2452 167.92 41.9027C171.42 46.752 173.466 52.3474 173.929 58.5644C174.325 64.9058 173.07 71.8066 170.165 78.8941L170.099 79.0806ZM64.6499 25.179C85.119 25.179 107.173 30.5879 126.652 40.4729C146.196 50.358 161.647 63.9733 170.033 78.7077C175.711 64.8437 174.919 51.8501 167.788 42.0272C159.402 30.5257 143.489 24.1842 123.02 24.1842C120.379 24.1842 117.672 24.3085 114.898 24.495L114.832 24.433C105.918 8.76604 95.0234 0.186541 84.0625 0.186541C78.6481 0.186541 73.4318 2.3003 68.7437 6.52788C63.8575 10.8798 59.6316 17.2212 56.1981 25.4898C58.9713 25.2411 61.8106 25.179 64.6499 25.179Z" fill="#08595E"/>
<path d="M170.869 48.9546C154.842 20.8408 110.965 0.32708 73.0657 3.23114L73 3.10759C91.4571 1.68646 111.753 5.64082 130.276 14.2912C148.799 22.9416 163.249 35.2375 171 48.8927L170.869 48.9546Z" fill="#08595E"/>
<path d="M142.297 49.8956L142.099 49.8337C145.668 41.2923 147.585 34.0508 147.783 28.3566C147.981 22.7862 146.66 18.9488 143.817 16.9063C138.464 13.0689 128.285 15.7922 115.066 24.7049L115 24.5812C128.219 15.6685 138.53 12.8832 143.884 16.7825C146.792 18.8869 148.18 22.7862 147.981 28.3566C147.717 34.0508 145.8 41.2924 142.231 49.8956H142.297Z" fill="#08595E"/>
<path d="M101.129 31.0673L101 31.0049C108.052 13.3869 113.228 3.76562 115.621 3.76562C115.708 3.76562 115.794 3.76562 115.88 3.76562C118.209 4.45285 116.462 15.6359 114.651 24.8823L114.457 24.8197C118.015 7.32668 116.851 4.20298 115.815 3.95308C115.104 3.76566 113.616 4.70269 110.51 10.263C107.922 15.0111 104.817 21.9459 101.129 31.0673Z" fill="#08595E"/>
<path fill-rule="evenodd" clip-rule="evenodd" d="M9.95505 91.3193L9.82325 91.133C1.51982 76.5443 0.794921 61.8934 7.64854 49.9741C11.6026 43.2075 17.7313 37.6203 25.9029 33.3989C34.3381 28.9912 44.4868 26.3218 56.1511 25.4527C59.512 17.134 63.7296 10.7398 68.6721 6.39424C73.417 2.11074 78.6231 0 84.0928 0C95.0981 0 106.038 8.62905 114.934 24.3352L115 24.4593H114.868C70.7809 27.8116 23.7282 57.7962 10.0209 91.133L9.95505 91.3193ZM84.0928 0.186269C78.689 0.186269 73.4829 2.29695 68.8039 6.51837C63.8614 10.8639 59.6438 17.2581 56.2829 25.5768H56.217C33.4155 27.3771 15.8202 36.2545 7.78034 50.0983C0.992619 61.8934 1.71752 76.4201 9.88915 90.9467C16.611 74.806 31.1749 59.0378 50.945 46.4356C70.781 33.8335 93.3847 26.0114 114.736 24.3352C105.906 8.7532 95.0322 0.186269 84.0928 0.186269Z" fill="#08595E"/>
<path d="M33.9127 60.2518C26.7259 47.7061 26.0666 35.0987 32.0665 24.8397C35.4291 19.0304 40.7697 14.21 47.8245 10.5637C55.1431 6.79388 63.9122 4.50724 73.9341 3.76562L74 3.8892C54.286 5.43422 39.0555 13.0976 32.1984 24.9016C26.2644 35.1606 26.9238 47.6444 34.1105 60.1901L33.9127 60.2518Z" fill="#08595E"/>
<path d="M21.1964 36.7158L21 36.6541C23.8802 29.6728 28.0696 23.8035 33.3719 19.17C38.5432 14.6599 44.6964 11.3856 51.6351 9.47034C60.7994 6.93731 71.3384 6.87541 82.0084 9.34666C93.202 11.8179 104.33 16.8841 115 24.2978L114.935 24.4214C93.7911 9.77922 70.7493 4.40416 51.7006 9.65556C37.4304 13.5478 26.8259 22.9386 21.1964 36.7158Z" fill="#08595E"/>
<path d="M4.1316 60.2513L4 60.1897C7.35566 52.1321 12.8826 44.8741 20.4493 38.7232C27.7528 32.8184 36.6354 28.1437 46.834 24.8838C67.8234 18.1793 91.971 18.0563 115 24.5762L114.934 24.7606C91.971 18.2407 67.8234 18.3023 46.8998 25.0067C25.9763 31.7727 10.7771 44.259 4.1316 60.2513Z" fill="#08595E"/>
<path fill-rule="evenodd" clip-rule="evenodd" d="M115.175 144.98C94.7721 144.98 72.8551 139.52 53.3733 129.654C33.8257 119.725 18.4246 106.136 10 91.3059V91.2438C16.7133 75.1104 31.2588 59.2253 51.0697 46.6289C70.8806 33.9704 93.5874 26.152 114.912 24.4766H114.978V24.5385C133.604 57.3017 137.553 111.162 123.797 144.608H123.732C120.901 144.856 118.071 144.98 115.175 144.98ZM10.1974 91.3059C27.5073 121.773 72.6577 144.794 115.175 144.794C118.005 144.794 120.901 144.67 123.666 144.484C137.356 111.1 133.407 57.3637 114.912 24.6626C70.8806 28.0754 23.9532 57.9222 10.1974 91.3059Z" fill="#08595E"/>
<path d="M124.578 106.381C108.223 106.381 90.8164 102.291 74.7895 94.6134C56.2668 85.8032 41.8164 73.28 34 59.3724L34.1971 59.3096C50.1582 88.0058 94.0349 108.899 132 105.878V106.067C129.548 106.276 127.074 106.381 124.578 106.381Z" fill="#08595E"/>
<path d="M38.1316 120.503L38 120.441C51.7547 87.0458 86.2402 43.9674 114.934 24.4766L115 24.6007C86.3718 44.0915 51.8863 87.1079 38.1316 120.503Z" fill="#08595E"/>
<path d="M79.1304 139.332L79 139.27C92.6304 105.941 108.674 54.4603 114.804 24.4766L115 24.5386C108.804 54.4604 92.7609 106.003 79.1304 139.332Z" fill="#08595E"/>
<path fill-rule="evenodd" clip-rule="evenodd" d="M123.815 144.039L123.88 143.977C137.562 110.837 133.616 57.4317 115.066 24.9077L115 24.7846H115.132C117.894 24.5998 120.591 24.4766 123.222 24.4766C133.484 24.4766 142.628 26.0781 150.39 29.2196C157.954 32.2379 163.874 36.6113 167.953 42.2168C171.439 47.0214 173.478 52.5653 173.939 58.7252C174.333 65.0082 173.084 71.784 170.189 78.8678C178.477 93.3434 179.201 107.881 172.36 119.708C168.413 126.422 162.296 131.966 154.139 136.154C145.719 140.528 135.523 143.177 123.946 144.039H123.815ZM115.263 24.9077C133.813 57.4317 137.694 110.714 124.078 143.854C146.706 142.129 164.269 133.259 172.228 119.584C179.069 107.819 178.28 93.3434 169.992 78.8678V78.8063C175.715 65.0083 174.925 52.0726 167.821 42.2784C159.467 30.8827 143.614 24.5997 123.222 24.5997C120.657 24.5997 117.96 24.7229 115.263 24.9077Z" fill="#08595E"/>
<path d="M132 105.44V105.255C151.244 103.774 166.161 96.1186 172.877 84.2658C178.689 74.0798 178.043 61.5478 171.069 49.0159L171.198 48.9541C178.237 61.5477 178.883 74.0797 173.071 84.3274C169.713 90.1921 164.547 94.9456 157.637 98.5879C150.469 102.354 141.816 104.638 132 105.44Z" fill="#08595E"/>
<path d="M159.641 132.742L159.443 132.68C166.093 116.579 165.172 96.5299 156.744 76.1107C148.382 55.6914 133.502 37.4313 115 24.5999L115.066 24.4766C133.633 37.308 148.514 55.6297 156.876 76.0489C165.303 96.4681 166.291 116.641 159.641 132.742Z" fill="#08595E"/>
<path d="M175.432 109.206L175.302 109.144C180.766 95.8339 179.92 81.4762 172.765 67.6114C162.682 47.9543 141.606 32.3023 115 24.6613L115.065 24.4766C128.531 28.3587 140.5 34.2126 150.713 41.9153C160.405 49.3098 168.081 58.1217 172.96 67.5498C176.408 74.3281 178.424 81.2913 178.88 88.1929C179.4 95.4026 178.229 102.489 175.432 109.206Z" fill="#08595E"/>
<path fill-rule="evenodd" clip-rule="evenodd" d="M91.4813 169.458C91.4376 169.458 91.372 169.458 91.2846 169.458C90.9349 169.417 90.5634 169.397 90.17 169.397H89.3833C88.1376 169.397 86.8263 169.397 85.7773 169.335C83.9415 169.211 79.4177 168.903 75.9428 168.409C73.9759 168.1 68.7308 167.298 62.3712 165.384C59.4864 164.458 56.7983 163.532 54.0447 162.359C49.7175 160.569 46.5049 158.902 45.9148 158.531C43.8168 157.42 41.1943 156 37.8505 153.778C34.2446 151.309 32.3432 149.765 29.8518 147.728C28.5406 146.679 26.7048 145.012 25.4591 143.715C23.0988 141.308 20.1485 138.221 18.1816 135.752C17.1326 134.394 15.1001 131.801 13.7233 129.702C12.2809 127.418 10.1173 123.776 8.60933 120.812C4.80666 113.281 2.97088 106.305 2.64307 105.009C0.676169 97.3536 0.282789 93.0322 0.0205362 86.612C-0.11059 82.661 0.413924 77.352 0.807303 73.5245C0.93843 72.1664 1.26624 70.5613 1.59406 69.0179C1.7689 68.2771 1.90002 67.6187 1.98743 67.0425C2.90532 62.3507 5.20004 56.4244 6.11792 54.1402C7.42919 50.8066 9.59278 46.547 11.4285 43.4603C13.3954 40.1884 16.2802 35.9905 18.6405 33.0891C20.9352 30.2493 24.5412 26.4837 27.8849 23.4587C30.5075 20.9894 34.2446 18.1496 36.6704 16.4828C45.3903 10.3712 54.0447 6.91412 58.4374 5.37078C62.109 4.07438 66.764 2.77795 70.0421 2.09888C72.2057 1.66674 74.9594 1.17294 76.9263 0.926002C78.5653 0.679068 81.1879 0.370341 83.2859 0.246874C84.925 0.123407 87.0886 0.0617335 88.7276 0C89.2522 0 89.8204 0 90.4323 0C92.0058 0 93.2734 0.0411255 94.235 0.123437C94.6283 0.123437 95.0654 0.143924 95.5462 0.18508C96.7264 0.246813 98.1687 0.308637 99.2833 0.432104C105.84 1.23464 105.84 1.23467 108.79 1.852L109.183 1.97544C110.495 2.22238 112.068 2.53104 113.314 2.90144C115.74 3.58051 119.28 4.56822 121.837 5.49422C123.083 5.92635 124.787 6.54375 125.968 7.09935C126.82 7.40802 127.869 7.90189 128.852 8.33402C129.289 8.49864 129.683 8.68378 130.033 8.88956C131.147 9.3217 132.524 10.0625 133.638 10.6181L134.097 10.865C135.409 11.5441 137.113 12.5318 138.228 13.2109C139.015 13.7048 139.998 14.3221 140.916 14.8777C141.353 15.1658 141.768 15.4333 142.162 15.6802C143.08 16.2976 144.194 17.1001 145.243 17.8409C145.505 18.0467 145.746 18.2318 145.964 18.3965C146.948 19.0755 150.292 21.6067 154.553 25.7428C155.864 26.9158 157.307 28.459 158.29 29.5085C159.864 31.3605 161.7 33.5212 162.88 35.0645C164.978 37.7808 167.338 41.4848 169.37 44.8184C169.72 45.4358 170.048 46.0531 170.354 46.6704C170.354 46.7116 170.376 46.7322 170.419 46.7322C171.665 49.2633 172.976 52.0413 173.96 54.2637C174.484 55.4366 175.009 56.9183 175.533 58.3382C175.708 58.9555 175.905 59.5315 176.123 60.0666C176.976 62.4742 177.894 65.9931 178.746 70.6848C179.467 74.1419 179.926 79.0188 179.992 82.8463C180.057 86.5503 179.729 91.7976 179.205 95.9338C178.68 100.132 177.304 105.379 176.255 108.96C175.206 112.231 173.435 116.614 171.796 119.948C170.092 123.529 167.272 128.22 164.912 131.677C162.88 134.579 159.864 138.036 156.913 141.37C154.553 144.024 151.078 147.049 148.587 149.025C145.44 151.556 141.113 154.581 137.9 156.494C135.54 157.853 132.065 159.766 129.311 160.939C128.918 161.104 128.503 161.289 128.066 161.495C126.558 162.112 124.919 162.853 123.542 163.347C120.985 164.273 118.1 165.322 115.805 165.878C115.368 166.001 114.909 166.125 114.428 166.248C112.986 166.619 111.281 167.051 109.97 167.359C107.938 167.73 105.184 168.224 103.086 168.532C98.431 169.212 93.1859 169.458 91.4813 169.458ZM90.17 169.273C90.5634 169.273 90.9349 169.273 91.2846 169.273C91.372 169.273 91.4376 169.273 91.4813 169.273C93.1859 169.273 98.431 169.026 103.02 168.409C105.184 168.1 107.938 167.606 109.905 167.174C111.281 166.927 112.92 166.495 114.428 166.125C114.866 166.001 115.303 165.878 115.74 165.754C118.034 165.199 120.919 164.149 123.476 163.223C124.853 162.729 126.492 161.989 128 161.371C128.437 161.166 128.852 160.98 129.246 160.816C131.999 159.643 135.474 157.729 137.835 156.371C141.047 154.457 145.309 151.432 148.456 148.963C150.947 146.987 154.488 143.901 156.782 141.308C159.733 137.974 162.749 134.455 164.781 131.554C167.141 128.159 169.895 123.467 171.665 119.886C173.304 116.553 175.074 112.17 176.058 108.898C177.172 105.379 178.484 100.07 179.074 95.9338C179.598 91.7976 179.926 86.5503 179.861 82.8463C179.795 79.0188 179.27 74.1419 178.615 70.6848C177.697 65.9931 176.845 62.536 175.927 60.1284C175.752 59.5933 175.555 59.0171 175.337 58.3998C174.878 56.9799 174.353 55.4984 173.829 54.3255C173.173 52.7821 172.321 50.9918 171.403 49.2016C172.78 52.7821 173.501 56.6713 173.501 60.7457C173.501 60.7868 173.501 60.828 173.501 60.8691C173.501 66.4869 172.19 72.475 169.698 78.5866C163.011 94.6991 148.521 110.503 128.787 123.035C109.052 135.567 86.4329 143.407 65.1904 145.074V144.888C109.052 141.493 155.864 111.738 169.502 78.525C172.059 72.4134 173.304 66.4869 173.304 60.8691C173.304 55.8687 172.321 51.1153 170.223 46.8557C169.873 46.156 169.545 45.4976 169.239 44.8802C167.207 41.6083 164.847 37.8426 162.749 35.1263C161.568 33.583 159.733 31.4223 158.159 29.6321C157.176 28.5209 155.733 27.0391 154.488 25.8045C150.16 21.7301 146.817 19.1991 145.899 18.52C145.637 18.3554 145.374 18.1701 145.112 17.9644C144.129 17.2236 143.014 16.421 142.031 15.8037C141.681 15.5567 141.288 15.2892 140.85 15.0011C139.933 14.4455 138.949 13.8282 138.097 13.3343C136.982 12.6553 135.343 11.6676 134.032 11.0502L133.507 10.7416C132.458 10.186 131.082 9.50687 129.967 9.013C129.617 8.84838 129.224 8.66324 128.787 8.45746C127.803 8.02532 126.754 7.59319 125.902 7.22279C124.722 6.72892 123.017 6.04979 121.772 5.61766C119.215 4.69165 115.674 3.70395 113.248 3.02488C112.068 2.71621 110.429 2.34581 109.118 2.09888L108.724 2.03708C105.84 1.41975 105.84 1.41987 99.2178 0.617335C98.1688 0.493868 96.7264 0.370401 95.4807 0.308667C95.0436 0.308667 94.6283 0.288029 94.235 0.246874C93.2734 0.205718 92.0058 0.18508 90.4323 0.18508C89.8204 0.18508 89.2522 0.18508 88.7276 0.18508C87.0886 0.18508 84.925 0.308637 83.2859 0.432104C81.2534 0.493838 78.6309 0.802505 76.9918 1.04944C74.9593 1.35811 72.2057 1.79024 70.1077 2.28411C66.8295 2.96318 62.1745 4.25955 58.503 5.49422C54.1102 7.03756 45.4559 10.4946 36.736 16.6062C34.3757 18.2731 30.6386 21.051 27.9505 23.5204C24.6723 26.607 21.0663 30.3728 18.7716 33.1509C16.4114 36.1141 13.5266 40.2501 11.5597 43.5838C9.7239 46.6087 7.62587 50.8684 6.24905 54.1402C5.33116 56.4861 3.03645 62.4125 2.18413 67.0425C2.053 67.6598 1.92188 68.3183 1.79075 69.0179C1.46294 70.5613 1.06955 72.1664 0.938428 73.5245C0.545048 77.4137 0.0205442 82.661 0.151671 86.612C0.413924 92.9705 0.872867 97.3537 2.7742 104.947C3.10202 106.305 4.93778 113.219 8.74045 120.751C10.2484 123.714 12.4776 127.356 13.92 129.579C15.2312 131.677 17.2637 134.332 18.3127 135.69C20.2796 138.159 23.2299 141.246 25.5902 143.654C26.8359 144.95 28.6717 146.555 29.9174 147.605C32.4088 149.642 34.3101 151.185 37.9817 153.655C41.2598 155.877 43.8824 157.297 45.9804 158.408C46.5705 158.717 49.7831 160.445 54.1102 162.235C56.8639 163.347 59.552 164.334 62.4368 165.199C68.7308 167.112 73.9759 167.977 75.9428 168.224C79.4177 168.718 84.0071 169.088 85.7773 169.211C86.8263 169.273 88.1376 169.273 89.3833 169.273H90.17Z" fill="#08595E"/>
<path fill-rule="evenodd" clip-rule="evenodd" d="M65.0221 144.98V144.919C46.3959 112.412 42.4469 58.9718 56.2026 25.7874H56.2684V25.7258C59.0986 25.5411 61.9287 25.418 64.8246 25.418C85.2279 25.418 107.211 30.8359 126.627 40.5634C146.174 50.414 161.575 63.9587 170 78.6115V78.673C163.287 94.7419 148.741 110.503 128.93 123.001C109.119 135.499 86.4126 143.318 65.0879 144.98H65.0221ZM56.3343 25.9105C42.6444 59.0333 46.5275 112.288 65.0879 144.796C109.119 141.409 156.047 111.734 169.803 78.673C152.493 48.3823 107.342 25.6027 64.8246 25.6027C61.9945 25.6027 59.0986 25.6643 56.3343 25.9105Z" fill="#08595E"/>
<path d="M145.869 110.148C129.842 82.0101 85.9651 61.5238 48 64.424V64.3006C66.3914 62.8813 86.7533 66.8304 105.21 75.4692C123.733 84.108 138.249 96.3874 146 110.024L145.869 110.148Z" fill="#08595E"/>
<path d="M65.1315 144.981L65 144.858C93.6038 125.607 128.06 82.9846 141.803 49.8955L142 49.9571C128.257 83.0461 93.7353 125.668 65.1315 144.981Z" fill="#08595E"/>
<path d="M65.1307 144.98L65 144.919C71.1416 115.181 87.2142 64.1223 100.869 31.0664L101 31.1278C87.3448 64.1836 71.2722 115.242 65.1307 144.98Z" fill="#08595E"/>
<path fill-rule="evenodd" clip-rule="evenodd" d="M56.7775 145.922C46.5159 145.922 37.3725 144.308 29.6105 141.144C22.0458 138.103 16.1256 133.698 12.0473 128.051C8.56096 123.211 6.52179 117.626 6.12711 111.421C5.66665 105.03 6.91647 98.2043 9.81078 91.1304C1.52253 76.4863 0.798951 61.9042 7.64005 49.9903C11.5868 43.2268 17.7044 37.6422 25.861 33.4227C34.2809 29.017 44.4767 26.3487 56.054 25.418H56.1855V25.5422C42.4375 58.9258 46.3843 112.724 64.9342 145.487L65 145.549L64.8684 145.611C62.1057 145.798 59.4087 145.922 56.7775 145.922ZM55.9882 25.6042C33.2941 27.4036 15.731 36.2771 7.83739 50.0525C0.930512 61.9663 1.71986 76.4862 10.0081 91.0683V91.1304C4.28527 105.03 5.07463 118.123 12.1788 127.989C20.5329 139.406 36.3858 145.736 56.7775 145.736C59.3429 145.736 62.0399 145.674 64.7369 145.425C46.187 112.662 42.306 58.9878 55.9882 25.6042Z" fill="#08595E"/>
<path d="M8.8017 120.504C1.7628 107.958 1.11702 95.3506 6.92896 85.0917C10.287 79.2824 15.4531 74.462 22.3629 70.8157C29.531 67.1076 38.1843 64.7592 48 64.0176V64.1412C28.756 65.6862 13.8387 73.3496 7.12269 85.2154C1.31075 95.4126 1.95653 107.896 8.93086 120.442L8.8017 120.504Z" fill="#08595E"/>
<path d="M64.8685 144.981C46.3259 132.204 31.4656 113.872 23.1149 93.4408C14.6984 72.9482 13.7121 52.826 20.3532 36.7158L20.5504 36.7775C13.9093 52.8876 14.8299 72.9481 23.2463 93.379C31.6628 113.81 46.4574 132.08 65 144.858L64.8685 144.981Z" fill="#08595E"/>
<path d="M64.9349 144.98C51.465 141.101 39.4918 135.189 29.2754 127.492C19.5797 120.165 11.9012 111.298 7.02079 101.938C3.57197 95.1648 1.55475 88.2067 1.09924 81.2486C0.643738 74.1057 1.74995 67.0244 4.54805 60.251L4.67821 60.3126C-0.787848 73.6747 0.0580848 88.0219 7.21601 101.815C17.3022 121.458 38.3855 137.16 65 144.795L64.9349 144.98Z" fill="#08595E"/>
<path fill-rule="evenodd" clip-rule="evenodd" d="M95.8767 169.458C84.8519 169.458 73.893 160.919 64.9807 145.438C62.274 145.623 59.5673 145.746 56.9266 145.746C46.628 145.746 37.4516 144.148 29.6616 141.015C22.0696 138.005 16.1281 133.644 12.035 128.054C8.53611 123.262 6.48958 117.733 6.09347 111.59C5.63135 105.263 6.88568 98.5057 9.79044 91.4412L9.85645 91.3184L9.98848 91.4412C27.351 121.665 72.5727 144.455 115.286 144.455C118.19 144.455 121.029 144.333 123.868 144.148H124L123.934 144.271C120.501 152.441 116.276 158.83 111.325 163.13C106.571 167.307 101.356 169.458 95.8767 169.458ZM65.0467 145.254L65.1128 145.315C74.0251 160.796 84.9179 169.335 95.8767 169.335C101.29 169.335 106.505 167.185 111.193 163.007C116.144 158.707 120.303 152.441 123.736 144.271C120.963 144.517 118.124 144.64 115.286 144.64C94.8204 144.64 72.8368 139.234 53.2957 129.467C33.7546 119.699 18.3727 106.246 9.92247 91.687C4.245 105.386 5.0372 118.286 12.167 127.992C20.5512 139.357 36.4613 145.561 56.9266 145.561C59.5673 145.561 62.274 145.5 65.0467 145.254Z" fill="#08595E"/>
<path d="M98.6535 166.633C82.4652 166.633 65.2366 162.625 49.3083 155.162C31.0395 146.528 16.6716 134.256 9 120.565L9.13002 120.503C24.9933 148.625 68.4223 169.1 105.935 166.202L106 166.325C103.573 166.53 101.124 166.633 98.6535 166.633Z" fill="#08595E"/>
<path d="M42.0742 155.336C39.6297 155.336 37.6476 154.717 36.062 153.604C33.155 151.5 31.7675 147.602 32.0318 142.034C32.23 136.28 34.146 129.041 37.7137 120.503L37.8458 120.565C34.2781 129.103 32.4282 136.342 32.1639 142.034C31.9657 147.54 33.2871 151.376 36.128 153.48C41.4796 157.316 51.6542 154.532 64.8679 145.622L65 145.746C55.6183 152.057 47.7561 155.336 42.0742 155.336Z" fill="#08595E"/>
<path d="M64.3763 165.692C64.29 165.692 64.2038 165.672 64.1175 165.632C61.788 165.029 63.5351 154.231 65.4116 145.304L65.541 145.364C61.9821 162.254 63.1469 165.27 64.1822 165.511C64.8939 165.692 66.3822 164.787 69.4881 159.359C72.0764 154.834 75.1823 148.079 78.8706 139.332L79 139.392C71.947 156.403 66.7704 165.692 64.3763 165.692Z" fill="#08595E"/>
<path fill-rule="evenodd" clip-rule="evenodd" d="M95.9072 169.458C84.9019 169.458 73.9624 160.918 65.0659 145.374L65 145.251H65.1318C109.219 141.872 156.272 112.258 169.979 79.2029L170.045 79.0801L170.177 79.2029C178.48 93.7027 179.205 108.202 172.351 119.999C168.397 126.696 162.269 132.225 154.097 136.403C145.662 140.765 135.513 143.407 123.915 144.268C120.488 152.439 116.27 158.829 111.328 163.13C106.583 167.307 101.377 169.458 95.9072 169.458ZM65.2636 145.374C74.0942 160.795 84.9678 169.335 95.9072 169.335C101.311 169.335 106.517 167.185 111.196 163.007C116.139 158.706 120.356 152.378 123.783 144.206V144.145H123.849C146.584 142.424 164.18 133.577 172.22 119.938C179.073 108.203 178.282 93.8255 170.111 79.4486C163.389 95.423 148.825 111.09 129.055 123.501C109.219 135.973 86.6153 143.776 65.2636 145.374Z" fill="#08595E"/>
<path d="M106.066 166.634L106 166.51C125.714 164.967 140.945 157.312 147.802 145.459C153.736 135.273 153.076 122.741 145.955 110.271L146.087 110.147C153.274 122.741 153.933 135.335 147.933 145.583C144.571 151.386 139.23 156.201 132.175 159.843C124.857 163.547 116.088 165.893 106.066 166.634Z" fill="#08595E"/>
<path d="M113.375 161.927C108.4 161.927 103.228 161.308 97.9916 160.134C86.798 157.599 75.6699 152.59 65 145.109L65.1309 144.985C86.2089 159.701 109.251 165.08 128.299 159.824C142.635 155.929 153.174 146.531 158.804 132.742L159 132.804C156.12 139.729 151.93 145.665 146.628 150.302C141.457 154.816 135.304 158.093 128.365 160.01C123.652 161.247 118.611 161.927 113.375 161.927Z" fill="#08595E"/>
<path d="M99.3462 150.629C87.9632 150.629 76.3171 148.995 65 145.726L65.0658 145.538C88.029 152.201 112.177 152.138 133.1 145.224C154.024 138.372 169.223 125.612 175.868 109.206L176 109.269C172.644 117.566 167.117 124.983 159.551 131.206C152.247 137.303 143.365 142.081 133.166 145.412C122.507 148.869 111.058 150.629 99.3462 150.629Z" fill="#08595E"/>
<path fill-rule="evenodd" clip-rule="evenodd" d="M170.099 79.0806L169.967 78.8941C152.601 48.3684 107.371 25.3033 64.6499 25.3033C61.7446 25.3033 58.9053 25.3655 56.1321 25.6141H56V25.4898C59.4335 17.2212 63.6594 10.7555 68.6116 6.40357C73.3658 2.11382 78.5821 0 84.0625 0C95.0895 0 106.05 8.64173 114.964 24.3087C117.672 24.1221 120.379 23.9978 123.02 23.9978C133.321 23.9978 142.499 25.6142 150.29 28.7849C157.884 31.8312 163.826 36.2452 167.92 41.9027C171.42 46.752 173.466 52.3474 173.929 58.5644C174.325 64.9058 173.07 71.8066 170.165 78.8941L170.099 79.0806ZM64.6499 25.179C85.119 25.179 107.173 30.5879 126.652 40.4729C146.196 50.358 161.647 63.9733 170.033 78.7077C175.711 64.8437 174.919 51.8501 167.788 42.0272C159.402 30.5257 143.489 24.1842 123.02 24.1842C120.379 24.1842 117.672 24.3085 114.898 24.495L114.832 24.433C105.918 8.76604 95.0234 0.186541 84.0625 0.186541C78.6481 0.186541 73.4318 2.3003 68.7437 6.52788C63.8575 10.8798 59.6316 17.2212 56.1981 25.4898C58.9713 25.2411 61.8106 25.179 64.6499 25.179Z" fill="#08595E"/>
<path d="M170.869 48.9546C154.842 20.8408 110.965 0.32708 73.0657 3.23114L73 3.10759C91.4571 1.68646 111.753 5.64082 130.276 14.2912C148.799 22.9416 163.249 35.2375 171 48.8927L170.869 48.9546Z" fill="#08595E"/>
<path d="M151.867 30.1259C142.422 13.5331 116.482 1.43152 94 3.17812V2.99111C116.482 1.2445 142.555 13.4083 152 30.0634L151.867 30.1259Z" fill="#08595E"/>
<path d="M142.297 49.8956L142.099 49.8337C145.668 41.2923 147.585 34.0508 147.783 28.3566C147.981 22.7862 146.66 18.9488 143.817 16.9063C138.464 13.0689 128.285 15.7922 115.066 24.7049L115 24.5812C128.219 15.6685 138.53 12.8832 143.884 16.7825C146.792 18.8869 148.18 22.7862 147.981 28.3566C147.717 34.0508 145.8 41.2924 142.231 49.8956H142.297Z" fill="#08595E"/>
<path d="M101.129 31.0673L101 31.0049C108.052 13.3869 113.228 3.76562 115.621 3.76562C115.708 3.76562 115.794 3.76562 115.88 3.76562C118.209 4.45285 116.462 15.6359 114.651 24.8823L114.457 24.8197C118.015 7.32668 116.851 4.20298 115.815 3.95308C115.104 3.76566 113.616 4.70269 110.51 10.263C107.922 15.0111 104.817 21.9459 101.129 31.0673Z" fill="#08595E"/>
<path fill-rule="evenodd" clip-rule="evenodd" d="M9.95505 91.3193L9.82325 91.133C1.51982 76.5443 0.794921 61.8934 7.64854 49.9741C11.6026 43.2075 17.7313 37.6203 25.9029 33.3989C34.3381 28.9912 44.4868 26.3218 56.1511 25.4527C59.512 17.134 63.7296 10.7398 68.6721 6.39424C73.417 2.11074 78.6231 0 84.0928 0C95.0981 0 106.038 8.62905 114.934 24.3352L115 24.4593H114.868C70.7809 27.8116 23.7282 57.7962 10.0209 91.133L9.95505 91.3193ZM84.0928 0.186269C78.689 0.186269 73.4829 2.29695 68.8039 6.51837C63.8614 10.8639 59.6438 17.2581 56.2829 25.5768H56.217C33.4155 27.3771 15.8202 36.2545 7.78034 50.0983C0.992619 61.8934 1.71752 76.4201 9.88915 90.9467C16.611 74.806 31.1749 59.0378 50.945 46.4356C70.781 33.8335 93.3847 26.0114 114.736 24.3352C105.906 8.7532 95.0322 0.186269 84.0928 0.186269Z" fill="#08595E"/>
<path d="M33.9127 60.2518C26.7259 47.7061 26.0666 35.0987 32.0665 24.8397C35.4291 19.0304 40.7697 14.21 47.8245 10.5637C55.1431 6.79388 63.9122 4.50724 73.9341 3.76562L74 3.8892C54.286 5.43422 39.0555 13.0976 32.1984 24.9016C26.2644 35.1606 26.9238 47.6444 34.1105 60.1901L33.9127 60.2518Z" fill="#08595E"/>
<path d="M71.3663 35.7745C67.2858 28.4454 66.9033 21.1162 70.2824 15.1421C74.1716 8.18248 82.8425 3.68647 94 2.82422V3.00887C82.9063 3.87112 74.2991 8.30557 70.4099 15.2036C67.0946 21.1777 67.4771 28.4453 71.4938 35.7128L71.3663 35.7745Z" fill="#08595E"/>
<path d="M21.1964 36.7158L21 36.6541C23.8802 29.6728 28.0696 23.8035 33.3719 19.17C38.5432 14.6599 44.6964 11.3856 51.6351 9.47034C60.7994 6.93731 71.3384 6.87541 82.0084 9.34666C93.202 11.8179 104.33 16.8841 115 24.2978L114.935 24.4214C93.7911 9.77922 70.7493 4.40416 51.7006 9.65556C37.4304 13.5478 26.8259 22.9386 21.1964 36.7158Z" fill="#08595E"/>
<path d="M4.1316 60.2513L4 60.1897C7.35566 52.1321 12.8826 44.8741 20.4493 38.7232C27.7528 32.8184 36.6354 28.1437 46.834 24.8838C67.8234 18.1793 91.971 18.0563 115 24.5762L114.934 24.7606C91.971 18.2407 67.8234 18.3023 46.8998 25.0067C25.9763 31.7727 10.7771 44.259 4.1316 60.2513Z" fill="#08595E"/>
<path fill-rule="evenodd" clip-rule="evenodd" d="M115.175 144.98C94.7721 144.98 72.8551 139.52 53.3733 129.654C33.8257 119.725 18.4246 106.136 10 91.3059V91.2438C16.7133 75.1104 31.2588 59.2253 51.0697 46.6289C70.8806 33.9704 93.5874 26.152 114.912 24.4766H114.978V24.5385C133.604 57.3017 137.553 111.162 123.797 144.608H123.732C120.901 144.856 118.071 144.98 115.175 144.98ZM10.1974 91.3059C27.5073 121.773 72.6577 144.794 115.175 144.794C118.005 144.794 120.901 144.67 123.666 144.484C137.356 111.1 133.407 57.3637 114.912 24.6626C70.8806 28.0754 23.9532 57.9222 10.1974 91.3059Z" fill="#08595E"/>
<path d="M124.578 106.381C108.223 106.381 90.8164 102.291 74.7895 94.6134C56.2668 85.8032 41.8164 73.28 34 59.3724L34.1971 59.3096C50.1582 88.0058 94.0349 108.899 132 105.878V106.067C129.548 106.276 127.074 106.381 124.578 106.381Z" fill="#08595E"/>
<path d="M123.751 63.0761C102.703 63.0761 79.6938 51.4199 71 35.8368L71.1307 35.7744C80.4129 52.3548 105.971 64.5097 128 62.7644V62.889C126.606 63.0137 125.189 63.0761 123.751 63.0761Z" fill="#08595E"/>
<path d="M38.1316 120.503L38 120.441C51.7547 87.0458 86.2402 43.9674 114.934 24.4766L115 24.6007C86.3718 44.0915 51.8863 87.1079 38.1316 120.503Z" fill="#08595E"/>
<path d="M79.1304 139.332L79 139.27C92.6304 105.941 108.674 54.4603 114.804 24.4766L115 24.5386C108.804 54.4604 92.7609 106.003 79.1304 139.332Z" fill="#08595E"/>
<path fill-rule="evenodd" clip-rule="evenodd" d="M123.815 144.039L123.88 143.977C137.562 110.837 133.616 57.4317 115.066 24.9077L115 24.7846H115.132C117.894 24.5998 120.591 24.4766 123.222 24.4766C133.484 24.4766 142.628 26.0781 150.39 29.2196C157.954 32.2379 163.874 36.6113 167.953 42.2168C171.439 47.0214 173.478 52.5653 173.939 58.7252C174.333 65.0082 173.084 71.784 170.189 78.8678C178.477 93.3434 179.201 107.881 172.36 119.708C168.413 126.422 162.296 131.966 154.139 136.154C145.719 140.528 135.523 143.177 123.946 144.039H123.815ZM115.263 24.9077C133.813 57.4317 137.694 110.714 124.078 143.854C146.706 142.129 164.269 133.259 172.228 119.584C179.069 107.819 178.28 93.3434 169.992 78.8678V78.8063C175.715 65.0083 174.925 52.0726 167.821 42.2784C159.467 30.8827 143.614 24.5997 123.222 24.5997C120.657 24.5997 117.96 24.7229 115.263 24.9077Z" fill="#08595E"/>
<path d="M132 105.44V105.255C151.244 103.774 166.161 96.1186 172.877 84.2658C178.689 74.0798 178.043 61.5478 171.069 49.0159L171.198 48.9541C178.237 61.5477 178.883 74.0797 173.071 84.3274C169.713 90.1921 164.547 94.9456 157.637 98.5879C150.469 102.354 141.816 104.638 132 105.44Z" fill="#08595E"/>
<path d="M128 63.0753V62.9521C139.52 62.0899 148.459 57.5938 152.497 50.6958C155.94 44.7832 155.609 37.4542 151.372 30.1866L151.504 30.125C155.742 37.4541 156.139 44.7832 152.63 50.7574C148.591 57.717 139.587 62.213 128 63.0753Z" fill="#08595E"/>
<path d="M159.641 132.742L159.443 132.68C166.093 116.579 165.172 96.5299 156.744 76.1107C148.382 55.6914 133.502 37.4313 115 24.5999L115.066 24.4766C133.633 37.308 148.514 55.6297 156.876 76.0489C165.303 96.4681 166.291 116.641 159.641 132.742Z" fill="#08595E"/>
<path d="M175.432 109.206L175.302 109.144C180.766 95.8339 179.92 81.4762 172.765 67.6114C162.682 47.9543 141.606 32.3023 115 24.6613L115.065 24.4766C128.531 28.3587 140.5 34.2126 150.713 41.9153C160.405 49.3098 168.081 58.1217 172.96 67.5498C176.408 74.3281 178.424 81.2913 178.88 88.1929C179.4 95.4026 178.229 102.489 175.432 109.206Z" fill="#08595E"/>
<path fill-rule="evenodd" clip-rule="evenodd" d="M89.1151 169.458C88.263 169.458 87.0176 169.397 86.0344 169.335C83.2159 169.211 79.152 168.841 76.1369 168.409C74.7604 168.224 72.794 167.915 71.2864 167.606C65.4528 166.31 65.4528 166.31 62.3721 165.384C59.488 164.458 56.8006 163.532 54.0476 162.359C50.9014 161.063 50.4426 160.877 45.9854 158.593C43.6257 157.42 42.7736 156.865 38.0542 153.901C36.8089 153.099 35.1702 151.926 34.0559 151.062C31.6307 149.148 28.6155 146.617 26.4525 144.641C25.1416 143.53 23.5029 141.863 22.3886 140.629L21.9953 140.135C20.8155 138.777 19.3079 137.11 18.1936 135.752C17.3415 134.702 16.3583 133.344 15.5062 132.11C15.244 131.78 15.0037 131.472 14.7852 131.184C13.5398 129.455 11.9011 126.924 10.6557 124.64C8.82044 121.306 6.72295 116.8 5.41201 113.528C4.23217 110.565 2.92123 106.428 2.20022 103.28C1.54475 100.317 0.692643 95.9338 0.36491 92.415C0.16827 90.0691 -0.225003 84.081 0.168278 79.451C0.430464 77.1051 1.02038 71.3022 2.00358 66.9808C2.92123 63.0916 4.5599 57.906 6.13302 54.1402C7.77169 50.0041 10.5246 45.0037 12.36 41.9788C13.8675 39.386 16.6205 35.3732 19.1768 32.4717C22.8474 28.3356 25.6659 25.3725 27.8945 23.4587C30.9097 20.7425 35.0391 17.4706 38.2509 15.4334C41.6593 13.1492 45.1988 11.1119 47.6896 9.939C48.1266 9.73322 48.5636 9.52744 49.0006 9.32167C50.4426 8.6426 52.0812 7.84003 53.4577 7.28443C55.8829 6.2967 59.488 4.93865 62.241 4.13611C66.5671 2.90144 69.5822 2.03717 75.7436 1.04944C80.2663 0.370371 85.7722 7.71731e-10 88.1319 7.71731e-10C88.5252 7.71731e-10 88.9185 7.71731e-10 89.3118 7.71731e-10C89.8361 7.71731e-10 90.3605 7.71731e-10 90.8849 7.71731e-10C91.737 7.71731e-10 92.9824 -9.04308e-05 94.0311 0.0616431C95.342 0.18511 100.061 0.493777 103.863 0.987645C105.24 1.17285 107.206 1.54334 108.714 1.852C114.547 3.14841 114.547 3.14832 117.628 4.07432C120.512 5.00032 123.199 5.92641 125.952 7.09935C129.099 8.33402 129.557 8.58086 134.015 10.865C136.374 12.0379 137.226 12.5936 141.946 15.5568C143.191 16.3593 144.83 17.4705 145.944 18.3965C148.369 20.2485 151.384 22.8413 153.548 24.755C154.858 25.928 156.497 27.5948 157.611 28.8295L158.005 29.2616C159.185 30.6198 160.692 32.3484 161.806 33.6448C162.658 34.756 163.642 36.114 164.559 37.287C164.778 37.6574 164.996 37.9867 165.215 38.2748C166.526 40.0033 167.968 42.4726 168.951 44.1394C169.082 44.3452 169.191 44.5304 169.279 44.695L169.344 44.8184C170.983 47.9668 173.277 52.4734 174.588 55.9305C175.768 58.8937 177.079 62.9681 177.8 66.1165C178.455 69.1414 179.307 73.5246 179.635 76.9816C179.832 79.3892 180.225 85.3773 179.832 90.0073C179.57 92.2915 178.98 98.0945 177.996 102.478C177.079 106.367 175.44 111.552 173.867 115.318C172.228 119.454 169.475 124.455 167.706 127.48C166.132 130.072 163.38 134.085 160.823 136.987C157.153 141.061 154.334 144.024 152.105 146C149.09 148.716 144.961 151.926 141.815 154.025C138.341 156.309 134.801 158.346 132.31 159.519C131.873 159.725 131.436 159.931 130.999 160.137C129.557 160.816 127.919 161.618 126.542 162.174C124.117 163.1 120.578 164.52 117.759 165.322C113.433 166.557 110.418 167.359 104.256 168.347C99.7337 169.088 94.2278 169.397 91.8681 169.397C91.4748 169.397 91.0597 169.397 90.6227 169.397C90.142 169.438 89.6395 169.458 89.1151 169.458ZM90.8849 0.18508C90.3605 0.18508 89.8361 0.18508 89.3118 0.18508C88.9185 0.18508 88.5252 0.18508 88.1319 0.18508C85.7722 0.18508 80.2663 0.493868 75.8091 1.23467C69.5822 2.22241 66.6326 3.02488 62.241 4.25955C59.488 5.06209 55.9485 6.48202 53.5233 7.40802C52.1468 7.96362 50.5081 8.76604 49.0661 9.4451C48.6291 9.65088 48.1922 9.85666 47.7552 10.0624C45.2644 11.2354 41.7249 13.2727 38.3164 15.5568C35.1702 17.594 30.9752 20.8658 27.9601 23.5204C25.797 25.4958 22.9785 28.4591 19.3079 32.5335C16.7516 35.435 14.0642 39.5093 12.491 42.0404C10.6557 45.0654 7.96832 50.0658 6.26411 54.1402C4.75654 57.9677 3.11787 63.0916 2.20022 66.9808C1.15147 71.3639 0.56155 77.1668 0.36491 79.451C-0.0939172 84.081 0.364912 90.0691 0.561552 92.415C0.823738 95.8721 1.67585 100.317 2.39686 103.28C3.11787 106.428 4.36326 110.503 5.5431 113.466C6.85404 116.8 8.95153 121.244 10.7868 124.578C12.0322 126.8 13.6709 129.393 14.9163 131.122C15.1348 131.41 15.3751 131.719 15.6373 132.048C16.4894 133.283 17.4726 134.641 18.3247 135.69C19.439 136.986 20.881 138.715 22.1264 140.073L22.5197 140.505C23.634 141.74 25.2726 143.407 26.518 144.58C28.6811 146.494 31.7618 149.025 34.1214 150.938C35.3013 151.803 36.8744 152.976 38.1198 153.716C42.9047 156.741 43.7568 157.297 46.051 158.47C50.5081 160.692 50.9669 160.939 54.1132 162.235C56.8661 163.347 59.5536 164.334 62.4376 165.199C65.5183 166.125 65.5183 166.125 71.352 167.421C72.794 167.792 74.8259 168.1 76.2024 168.285C79.152 168.718 83.2159 169.026 86.0344 169.211C87.0176 169.273 88.263 169.273 89.1151 169.273C89.6395 169.273 90.142 169.273 90.6227 169.273C91.0597 169.273 91.4748 169.273 91.8681 169.273C94.2278 169.273 99.7337 168.903 104.191 168.224C110.418 167.236 113.367 166.433 117.759 165.137C120.512 164.396 124.051 162.976 126.477 161.989C127.853 161.495 129.492 160.692 130.934 160.013C131.371 159.766 131.808 159.56 132.245 159.396C134.736 158.223 138.275 156.186 141.684 153.901C144.83 151.803 149.025 148.592 152.04 145.876C154.203 143.962 157.021 140.999 160.692 136.863C163.248 134.023 166.001 129.949 167.509 127.356C169.344 124.393 172.032 119.393 173.736 115.256C175.243 111.491 176.882 106.305 177.8 102.478C178.849 98.0945 179.438 92.2915 179.635 90.0073C180.094 85.3773 179.635 79.3892 179.438 76.9816C179.176 73.5246 178.324 69.1415 177.603 66.1783C176.882 63.0299 175.637 58.9555 174.457 55.9922C173.408 53.276 171.573 49.4485 169.213 44.8802C169.082 44.6744 168.951 44.448 168.82 44.2011C165.018 37.9043 158.922 32.9038 151.122 29.5085C143.257 26.0514 133.687 24.2611 122.872 24.2611C120.512 24.2611 118.087 24.323 115.662 24.5082C115.399 24.5082 115.159 24.5287 114.941 24.5698H114.809V24.3847H114.941C117.628 24.1995 120.315 24.0761 122.872 24.0761C134.473 24.0761 144.633 26.175 152.761 30.0642C158.791 32.9657 163.642 36.7931 167.181 41.4849C166.46 40.3737 165.739 39.2624 165.084 38.3364C164.865 38.0483 164.647 37.7397 164.428 37.4104C163.511 36.1757 162.527 34.8177 161.675 33.7682C160.561 32.4101 159.053 30.7432 157.874 29.3851L157.48 28.9529C156.366 27.6565 154.727 26.0514 153.482 24.8785C151.319 22.9647 148.238 20.3721 145.879 18.52C144.699 17.594 143.126 16.4828 141.88 15.6802C137.095 12.717 136.243 12.1614 133.949 10.9884C129.492 8.7043 129.033 8.51919 125.887 7.22279C123.134 6.04985 120.446 5.12382 117.562 4.25955C114.482 3.33355 114.482 3.33358 108.648 1.97544C107.206 1.66677 105.174 1.35808 103.798 1.17288C100.061 0.617275 95.3421 0.308607 93.9656 0.246874C92.9824 0.18514 91.737 0.18508 90.8849 0.18508Z" fill="#08595E"/>
<defs>
<radialGradient id="paint0_radial_2071_2" cx="0" cy="0" r="1" gradientUnits="userSpaceOnUse" gradientTransform="translate(19361.1 156477) scale(18070.1 17011.8)">
<stop offset="0.37" stop-color="#01338D"/>
<stop offset="1"/>
</radialGradient>
</defs>
</svg>
