<svg width="305" height="75" viewBox="0 0 305 75" fill="none" xmlns="http://www.w3.org/2000/svg">
<g opacity="0.5">
<path d="M30.2863 51.9748H29.5663V45.2698H22.8613V44.5498H30.2863V51.9748Z" fill="#F8F8F8"/>
<path d="M3.46614 51.9748H2.74609V44.5498H10.1711V45.2698H3.46614V51.9748Z" fill="#F8F8F8"/>
<path d="M30.2863 71.9094H22.8613V71.1894H29.5663V64.4844H30.2863V71.9094Z" fill="#F8F8F8"/>
<path d="M10.1711 71.9094H2.74609V64.4844H3.46614V71.1894H10.1711V71.9094Z" fill="#F8F8F8"/>
</g>
<g opacity="0.5">
<path d="M23.0402 58.5891H9.99023V57.8691H23.0402V58.5891Z" fill="#F8F8F8"/>
</g>
<g opacity="0.5">
<path d="M16.8762 64.7551H16.1562V51.7051H16.8762V64.7551Z" fill="#F8F8F8"/>
</g>
<path d="M16.8762 48.1048H16.1562V41.7148H16.8762V48.1048Z" fill="#F8F8F8"/>
<path d="M16.8762 74.7445H16.1562V68.3545H16.8762V74.7445Z" fill="#F8F8F8"/>
<path d="M33.0306 58.5891H26.6406V57.8691H33.0306V58.5891Z" fill="#F8F8F8"/>
<path d="M6.39003 58.5891H0V57.8691H6.39003V58.5891Z" fill="#F8F8F8"/>
<path d="M19.1262 60.8391H13.9062V55.6191H19.1262V60.8391Z" fill="#F8F8F8"/>
<path d="M70.6965 74.3196H65.5215V69.0996H70.6965V74.3196Z" fill="#F8F8F8"/>
<g opacity="0.7">
<path d="M30.1962 45.1349L29.6562 44.6849L69.1212 1.16992L69.6163 1.61992L30.1962 45.1349Z" fill="#F8F8F8"/>
</g>
<path d="M70.6965 3.56504H65.5215V0H70.6965V3.56504Z" fill="#F8F8F8"/>
<g opacity="0.7">
<path d="M68.6459 14.2913H67.7715V1.53711H91.9645V2.02884H68.6459V14.2913Z" fill="#F8F8F8"/>
</g>
<g opacity="0.7">
<path d="M91.9645 72.0994H67.7715V59.3145H68.6459V71.6077H91.9645V72.0994Z" fill="#F8F8F8"/>
</g>
<g opacity="0.7">
<path d="M301.715 14.2913H300.782V2.02884H277.521V1.53711H301.715V14.2913Z" fill="#F8F8F8"/>
</g>
<g opacity="0.7">
<path d="M301.715 72.0994H277.521V71.6077H300.782V59.3145H301.715V72.0994Z" fill="#F8F8F8"/>
</g>
<path d="M297.869 3.56504H304.632V0H297.869V3.56504Z" fill="#F8F8F8"/>
<g opacity="0.3">
<path fill-rule="evenodd" clip-rule="evenodd" d="M297.051 68.8416H72.377V4.14844H297.051V68.8416ZM73.3097 68.3499H296.177V4.60943H73.3097V68.3499Z" fill="#F8F8F8"/>
</g>
</svg>
