<svg width="311" height="23" viewBox="0 0 311 23" fill="none" xmlns="http://www.w3.org/2000/svg">
<path d="M155.082 22.1279H95.5778C95.4538 22.1279 95.3919 22.1279 95.3919 22.1279L90.3711 17.1072L90.929 16.7354L95.7637 21.5701H155.082V22.1279Z" fill="#08595E"/>
<path d="M90.7444 16.9215H21.3848L24.174 13.9463H87.7692L90.7444 16.9215Z" fill="#08595E"/>
<path fill-rule="evenodd" clip-rule="evenodd" d="M91.4878 17.2928H20.6406L23.9877 13.7598H87.9547L91.4878 17.2928ZM22.1282 16.549H90.0001L87.5827 14.3176H24.3596L22.1282 16.549Z" fill="#08595E"/>
<path d="M13.9459 13.9463L10.9707 16.9215H16.1773L18.9665 13.9463H13.9459Z" fill="#08595E"/>
<path fill-rule="evenodd" clip-rule="evenodd" d="M16.177 17.2928H10.2266L13.7597 13.7598H19.7101L16.177 17.2928ZM11.7143 16.549H15.9911L18.2225 14.3176H13.9456L11.7143 16.549Z" fill="#08595E"/>
<path d="M3.5334 13.9463L0.744141 16.9215H5.76482L8.73999 13.9463H3.5334Z" fill="#08595E"/>
<path fill-rule="evenodd" clip-rule="evenodd" d="M5.95044 17.2928H0L3.3472 13.7598H9.48354L5.95044 17.2928ZM1.48769 16.549H5.76453L7.99596 14.3176H3.71901L1.48769 16.549Z" fill="#08595E"/>
<path d="M114.918 21.9422L112.314 19.3389H97.0666C96.9426 19.3389 96.8805 19.2769 96.8805 19.1529L89.0707 11.343H65.455L61.5499 15.248L60.9922 14.8761L65.083 10.9711C65.083 10.8472 65.1449 10.7852 65.2689 10.7852H89.2566C89.2566 10.7852 89.3185 10.8472 89.4425 10.9711L97.2525 18.5951H112.5C112.624 18.5951 112.686 18.6571 112.686 18.781L115.476 21.3843L114.918 21.9422Z" fill="#08595E"/>
<path d="M66.5703 20.0825H49.0909C48.9669 20.0825 48.905 20.0825 48.905 20.0825L45.9297 17.1072L46.3016 16.7354L49.2768 19.5246H66.3843L69.1736 16.7354L69.7313 17.1072L66.7562 20.0825C66.7562 20.0825 66.6942 20.0825 66.5703 20.0825Z" fill="#08595E"/>
<path d="M214.4 22.1279H155.082V21.5701H214.214L219.235 16.7354L219.607 17.1072L214.586 22.1279C214.586 22.1279 214.524 22.1279 214.4 22.1279Z" fill="#08595E"/>
<path d="M219.422 16.9215H288.781L285.806 13.9463H222.211L219.422 16.9215Z" fill="#08595E"/>
<path fill-rule="evenodd" clip-rule="evenodd" d="M289.525 17.2928H218.678L222.211 13.7598H285.992L289.525 17.2928ZM220.165 16.549H288.037L285.62 14.3176H222.397L220.165 16.549Z" fill="#08595E"/>
<path d="M296.218 13.9463L299.008 16.9215H293.801L291.012 13.9463H296.218Z" fill="#08595E"/>
<path fill-rule="evenodd" clip-rule="evenodd" d="M299.751 17.2928H293.801L290.268 13.7598H296.218L299.751 17.2928ZM293.987 16.549H298.264L296.032 14.3176H291.755L293.987 16.549Z" fill="#08595E"/>
<path d="M306.447 13.9463L309.422 16.9215H304.215L301.24 13.9463H306.447Z" fill="#08595E"/>
<path fill-rule="evenodd" clip-rule="evenodd" d="M310.166 17.2928H304.029L300.496 13.7598H306.633L310.166 17.2928ZM304.401 16.549H308.678L306.261 14.3176H301.984L304.401 16.549Z" fill="#08595E"/>
<path d="M195.061 21.9422L194.689 21.3843L197.293 18.781C197.417 18.6571 197.479 18.5951 197.479 18.5951H212.912L220.536 10.9711C220.66 10.8472 220.784 10.7852 220.908 10.7852H244.71C244.834 10.7852 244.896 10.8472 244.896 10.9711L248.987 14.8761L248.615 15.248L244.71 11.343H220.908L213.098 19.1529C213.098 19.2769 213.036 19.3389 212.912 19.3389H197.665L195.061 21.9422Z" fill="#08595E"/>
<path d="M260.888 20.0825H243.409C243.409 20.0825 243.347 20.0825 243.223 20.0825L240.248 17.1072L240.806 16.7354L243.595 19.5246H260.888L263.678 16.7354L264.05 17.1072L261.26 20.0825C261.136 20.0825 261.012 20.0825 260.888 20.0825Z" fill="#08595E"/>
<path d="M112.5 19.3385H97.0663C96.9423 19.3385 96.8801 19.2765 96.8801 19.1525L89.0703 11.3426L89.4421 10.9707L97.2522 18.5947H112.5V19.3385Z" fill="#08595E"/>
<path d="M89.4421 11.3424L89.0703 10.9705L96.8801 2.97461C96.8801 2.97461 96.9423 2.97461 97.0663 2.97461H155.083V3.53247H97.2522L89.4421 11.3424Z" fill="#08595E"/>
<path d="M220.536 11.3424L212.913 3.53247H155.082V2.97461H212.913C213.037 2.97461 213.098 2.97461 213.098 2.97461L221.094 10.9705L220.536 11.3424Z" fill="#08595E"/>
<path d="M186.694 3.53306L183.904 0.743805H126.074L123.285 3.53306L122.727 2.9752L125.702 0.185948C125.702 0.0619806 125.764 0 125.888 0H184.09C184.214 0 184.276 0.0619806 184.276 0.185948L187.251 2.9752L186.694 3.53306Z" fill="#08595E"/>
</svg>
