<svg width="181" height="182" viewBox="0 0 181 182" fill="none" preserveAspectRatio="none" xmlns="http://www.w3.org/2000/svg">
<path d="M2.96953 12.9601L4.13958 11.79V4.32005H11.5195L12.6896 3.24004H19.7995L22.4995 0.540039H0.269531V22.77L2.96953 20.07V12.9601Z" fill="#08595E"/>
<path d="M167.759 3.24004L168.929 4.32005H176.399V11.79L177.569 12.9601V20.07L180.269 22.77V0.540039H158.039L160.739 3.24004H167.759Z" fill="#08595E"/>
<path d="M165.96 5.21973H140.76L139.14 6.74974H90.2697H41.3098L39.6898 5.21973H14.5798L12.5098 7.19974H90.2697H167.94L165.96 5.21973Z" fill="#08595E"/>
<path d="M14.5798 175.86H39.6898L41.3098 174.24H90.2697H139.14L140.76 175.86H165.96L167.94 173.79H90.2697H12.5098L14.5798 175.86Z" fill="#08595E"/>
<path d="M23.49 4.13998C23.94 4.13998 24.21 3.96 24.39 3.6H31.95L34.65 0.9H84.42L85.77 2.25H94.77L96.12 0.9H145.8L148.5 3.6H156.06C156.24 3.96 156.6 4.13998 156.96 4.13998C157.5 4.13998 158.04 3.69 158.04 3.15C158.04 2.61 157.5 2.16002 156.96 2.16002C156.6 2.16002 156.24 2.43 156.06 2.7H148.95L146.16 0H34.29L31.59 2.7H24.39C24.21 2.43 23.94 2.16002 23.49 2.16002C22.95 2.16002 22.5 2.61 22.5 3.15C22.5 3.69 22.95 4.13998 23.49 4.13998Z" fill="#08595E"/>
<path d="M12.6896 177.84L11.5195 176.67H4.13958V169.2L2.96953 168.03V160.92L0.269531 158.22V180.54H22.4995L19.7995 177.84H12.6896Z" fill="#08595E"/>
<path d="M177.569 168.03L176.399 169.2V176.67H168.929L167.759 177.84H160.739L158.039 180.54H180.269V158.22L177.569 160.92V168.03Z" fill="#08595E"/>
<path d="M156.96 176.851C156.6 176.851 156.24 177.031 156.06 177.391H148.5L145.8 180.181H96.12L94.77 178.831H85.77L84.42 180.181H34.65L31.95 177.391H24.39C24.21 177.031 23.85 176.851 23.49 176.851C22.95 176.851 22.5 177.301 22.5 177.841C22.5 178.381 22.95 178.831 23.49 178.831C23.85 178.831 24.21 178.651 24.39 178.291H31.59L34.29 181.081H146.16L148.95 178.291H156.06C156.24 178.651 156.6 178.831 156.96 178.831C157.5 178.831 158.04 178.381 158.04 177.841C158.04 177.301 157.5 176.851 156.96 176.851Z" fill="#08595E"/>
<path d="M175.14 140.85V166.05L173.43 167.67L174.06 168.3L176.04 166.41V141.21L180.45 136.71V44.2805L176.04 39.7805V14.5805L174.06 12.6904L173.43 13.3204L175.14 15.0305V40.1404L180 45.0904V135.9L175.14 140.85Z" fill="#08595E"/>
<path d="M5.4 40.1404V15.0305L7.01999 13.3204L6.39003 12.6904L4.5 14.5805V39.7805L0 44.2805V136.71L4.5 141.21V166.41L6.39003 168.3L7.01999 167.67L5.4 166.05V140.85L0.45 135.9V45.0904L5.4 40.1404Z" fill="#08595E"/>
</svg>
