<svg width="410" height="765" viewBox="0 0 410 765" fill="none" xmlns="http://www.w3.org/2000/svg">
<path d="M7.68003 84.1203C7.68003 86.2503 5.97001 87.9603 3.84001 87.9603C1.71001 87.9603 0 86.2503 0 84.1203C0 82.0203 1.71001 80.2803 3.84001 80.2803C5.97001 80.2803 7.68003 82.0203 7.68003 84.1203Z" fill="#08595E"/>
<path d="M409.051 334.77C409.051 336.87 407.311 338.61 405.211 338.61C403.081 338.61 401.371 336.87 401.371 334.77C401.371 332.64 403.081 330.93 405.211 330.93C407.311 330.93 409.051 332.64 409.051 334.77Z" fill="#08595E"/>
<path d="M7.68003 720.63C7.68003 722.76 5.97001 724.47 3.84001 724.47C1.71001 724.47 0 722.76 0 720.63C0 718.53 1.71001 716.79 3.84001 716.79C5.97001 716.79 7.68003 718.53 7.68003 720.63Z" fill="#08595E"/>
<path fill-rule="evenodd" clip-rule="evenodd" d="M405.78 764.1H3.23984V571.65L23.1598 551.73V228.39L3.08984 208.32V208.05L3.23984 0H242.49L267.09 24.6H405.57V397.5L384.87 418.2V612.09L405.78 633V764.1ZM4.43984 762.9H404.58V633.54L383.67 612.6V417.72L404.37 397.02V25.83H266.61L241.98 1.23H4.43984L4.28984 207.84L24.3598 227.91V552.24L4.43984 572.16V762.9Z" fill="#08595E"/>
<g opacity="0.5">
<path fill-rule="evenodd" clip-rule="evenodd" d="M396.03 752.13H13.7701V577.98L33.0601 558.69V221.609L13.0801 201.6V9.08949H13.3801L236.28 8.72949L236.37 8.81949L261.45 33.8995H395.52V385.38L372.96 407.97V616.919L396.03 640.019V752.13ZM14.3701 751.53H395.43V640.29L372.36 617.19V407.73L394.92 385.14V34.4995H261.18L236.04 9.32949L13.6801 9.68949V201.359L33.6601 221.37V558.93L14.3701 578.25V751.53Z" fill="#08595E"/>
</g>
<path d="M1.11133 236.97V541.68L12.3013 530.46V247.08L1.11133 236.97Z" fill="#08595E"/>
<path d="M405.78 416.79L394.41 428.16V433.71L405.78 422.34V416.79Z" fill="#08595E"/>
<path d="M405.78 430.26L394.41 441.66V447.21L405.78 435.81V430.26Z" fill="#08595E"/>
<path d="M405.78 443.76L394.41 455.13V460.68L405.78 449.31V443.76Z" fill="#08595E"/>
<path d="M405.78 457.229L394.41 468.599V474.15L405.78 462.779V457.229Z" fill="#08595E"/>
<path d="M405.78 470.729L394.41 482.099V487.65L405.78 476.249V470.729Z" fill="#08595E"/>
<path d="M405.78 484.2L394.41 495.57V501.12L405.78 489.75V484.2Z" fill="#08595E"/>
<path d="M405.78 497.67L394.41 509.07V514.62L405.78 503.22V497.67Z" fill="#08595E"/>
<path d="M405.78 511.17L394.41 522.54V528.09L405.78 516.72V511.17Z" fill="#08595E"/>
<path d="M405.78 524.64L394.41 536.01V541.56L405.78 530.19V524.64Z" fill="#08595E"/>
<path d="M405.78 538.109L394.41 549.509V555.059L405.78 543.659V538.109Z" fill="#08595E"/>
<path d="M405.78 551.609L394.41 562.979V568.529L405.78 557.159V551.609Z" fill="#08595E"/>
<path d="M405.78 565.08L394.41 576.45V582L405.78 570.63V565.08Z" fill="#08595E"/>
<path d="M261.09 0L274.74 13.65H405.21V0H261.09Z" fill="#08595E"/>
</svg>
